<svg width="71" height="28" viewBox="0 0 71 28" fill="none" xmlns="http://www.w3.org/2000/svg">
<path d="M65.2308 27.4295C62.2327 27.4295 59.9766 25.0977 59.9766 21.9027C59.9766 18.7078 62.2327 16.376 65.2308 16.376C68.2289 16.376 70.485 18.7078 70.485 21.9027C70.485 25.0977 68.2289 27.4295 65.2308 27.4295ZM65.2308 25.5368C67.2749 25.5368 68.5923 24.068 68.5923 21.9027C68.5923 19.7375 67.2749 18.2687 65.2308 18.2687C63.1866 18.2687 61.8693 19.7375 61.8693 21.9027C61.8693 24.068 63.1866 25.5368 65.2308 25.5368Z" fill="white"/>
<path d="M33.4669 16.8311V25.5376H39.6751V27.4303H31.5742V16.8311H33.4669Z" fill="white"/>
<path d="M33.3654 10.5993H31.4727V0L33.3654 0V10.5993Z" fill="white"/>
<path d="M11.1747 10.5993H9.13053L8.0706 7.87376H3.08894L2.04415 10.5993H0L4.0883 0L7.08638 0L11.1747 10.5993ZM5.58734 1.42333L3.81574 5.98103H7.34379L5.58734 1.42333Z" fill="white"/>
</svg>
