<?xml version="1.0" encoding="UTF-8"?>
<svg version="1.1" xmlns="http://www.w3.org/2000/svg" width="1347" height="330">
<path d="M0 0 C0.804375 0.59167969 1.60875 1.18335937 2.4375 1.79296875 C16.40230503 12.37567256 27.14595614 26.42655303 35 42 C35.43054688 42.79148438 35.86109375 43.58296875 36.3046875 44.3984375 C40.99899801 53.64127248 42.88984241 63.91886749 45 74 C45.20496094 74.969375 45.40992188 75.93875 45.62109375 76.9375 C47.55431799 92.56273513 46.05764588 107.87640152 42 123 C41.76152344 123.969375 41.52304687 124.93875 41.27734375 125.9375 C37.12501937 141.45277194 28.24893384 154.86664681 18 167 C17.32324219 167.82371094 16.64648438 168.64742187 15.94921875 169.49609375 C-1.89896246 190.41142128 -28.0006358 202.19331183 -55.08886719 204.7890625 C-88.543522 207.2131502 -121.47110999 202.92802336 -147.953125 180.81640625 C-150.40553545 178.64012598 -152.71482522 176.35046548 -155 174 C-156.12148438 173.17628906 -156.12148438 173.17628906 -157.265625 172.3359375 C-160.731785 169.37484653 -163.25062326 166.03779684 -165.9375 162.375 C-166.46819092 161.65570313 -166.99888184 160.93640625 -167.5456543 160.1953125 C-184.53054545 136.95310489 -193.26604394 108.90727828 -189.61767578 79.96728516 C-186.86666278 62.32067731 -182.28069485 44.84705807 -172 30 C-171.42894531 29.14664063 -170.85789062 28.29328125 -170.26953125 27.4140625 C-161.86349262 15.31629969 -152.18369013 5.2856085 -140 -3 C-139.33871094 -3.46664062 -138.67742188 -3.93328125 -137.99609375 -4.4140625 C-136.04443606 -5.72078795 -134.05881739 -6.86889928 -132 -8 C-131.03964844 -8.54269531 -130.07929687 -9.08539063 -129.08984375 -9.64453125 C-90.67569286 -29.5228799 -34.3621332 -26.90507304 0 0 Z M-114.73828125 51.578125 C-127.80774771 65.57306317 -130.72766987 81.10779209 -130.12304688 99.73681641 C-129.38044688 113.39535211 -121.72718008 125.65847904 -112 135 C-109.44992111 137.20377188 -106.80885592 139.13979542 -104 141 C-103.35804688 141.44214844 -102.71609375 141.88429688 -102.0546875 142.33984375 C-88.53903436 150.79355075 -71.739152 151.75034278 -56.5 148.5625 C-42.02137759 145.12969435 -30.25570657 135.80010008 -22.41015625 123.2890625 C-21.94480469 122.53367187 -21.47945312 121.77828125 -21 121 C-20.54496094 120.34773438 -20.08992188 119.69546875 -19.62109375 119.0234375 C-11.96517864 107.18533593 -12.09148509 91.43414354 -14.53515625 78.07421875 C-17.90801413 63.79511383 -27.53114656 50.59616115 -39.6796875 42.30859375 C-64.26144411 28.44514516 -94.46957352 31.58209046 -114.73828125 51.578125 Z " fill="#000000" transform="translate(700,66)"/>
<path d="M0 0 C20.79 0 41.58 0 63 0 C63.99 2.97 64.98 5.94 66 9 C68.42525238 16.05527966 70.90235347 23.01554488 74.04003906 29.78735352 C74.94910282 31.88268537 75.68435406 33.95827758 76.37890625 36.1328125 C78.03193415 41.17289662 79.90479166 46.11417961 81.8125 51.0625 C82.52506778 52.92174925 83.2373044 54.78112545 83.94921875 56.640625 C84.29774902 57.55005859 84.6462793 58.45949219 85.00537109 59.39648438 C86.3933619 63.02965422 87.76234534 66.66976436 89.125 70.3125 C89.36452393 70.9526001 89.60404785 71.5927002 89.85083008 72.25219727 C90.32811927 73.52826159 90.80525301 74.80438407 91.28222656 76.08056641 C92.51903016 79.38796431 93.75971368 82.6939069 95 86 C96.47837205 89.94073172 97.95615965 93.8816727 99.4296875 97.82421875 C102.26025592 105.39291257 105.11935701 112.95021284 108 120.5 C111.12229131 128.68311571 114.21589324 136.87633713 117.28222656 145.08056641 C118.26841628 147.71778532 119.25719674 150.35402966 120.24609375 152.99023438 C120.9950757 154.98687278 121.74363295 156.98367008 122.4921875 158.98046875 C123.51673012 161.71280503 124.54297676 164.44449399 125.5703125 167.17578125 C126.08858934 168.55466958 126.60681904 169.93357563 127.125 171.3125 C127.37620605 171.98031494 127.62741211 172.64812988 127.88623047 173.33618164 C129.33317919 177.19168313 130.74201698 181.05866481 132.125 184.9375 C133.31328098 188.23608911 134.60761911 191.43524228 136.0625 194.625 C138.62907711 200.2532813 140.50087128 206.00348514 142 212 C121.87 212 101.74 212 81 212 C79.02 207.05 77.04 202.1 75 197 C74.38511719 195.49179688 73.77023438 193.98359375 73.13671875 192.4296875 C72.65847656 191.25664062 72.18023437 190.08359375 71.6875 188.875 C71.19636719 187.67617187 70.70523438 186.47734375 70.19921875 185.2421875 C69 182 69 182 68 177 C43.25 176.67 18.5 176.34 -7 176 C-7.33 177.65 -7.66 179.3 -8 181 C-8.53013991 182.50643555 -9.10058189 183.99919472 -9.70703125 185.4765625 C-10.04669922 186.31316406 -10.38636719 187.14976562 -10.73632812 188.01171875 C-11.09146484 188.87410156 -11.44660156 189.73648438 -11.8125 190.625 C-14.70927191 197.70116702 -17.38398958 204.80597134 -20 212 C-40.13 212 -60.26 212 -81 212 C-76.74461091 199.23383272 -71.95305303 186.73022457 -66.8918457 174.26635742 C-64.82495747 169.15446714 -62.89990478 164.00602916 -61.03125 158.81860352 C-59.28874258 154.05599742 -57.42268945 149.34260618 -55.5625 144.625 C-54.76537714 142.5951494 -53.96850014 140.56520223 -53.171875 138.53515625 C-52.79482422 137.57496582 -52.41777344 136.61477539 -52.02929688 135.62548828 C-48.95187804 127.77573446 -45.9554484 119.89637093 -43 112 C-39.09742797 101.57633219 -35.08909569 91.20215371 -30.9375 80.875 C-28.53887071 74.90622819 -26.20287951 68.93249241 -24.046875 62.87109375 C-21.49282223 55.86650872 -18.71601883 48.94300181 -16 42 C-11.58106672 30.69736126 -7.23716141 19.37215161 -3 8 C-2.01 5.36 -1.02 2.72 0 0 Z M31 70 C27.79489461 77.2668749 24.9992084 84.63205643 22.375 92.125 C22.08616943 92.94709961 21.79733887 93.76919922 21.49975586 94.61621094 C20.06935 98.73965222 18.72247314 102.87203711 17.48828125 107.05859375 C15.87626757 112.51726442 13.95200959 117.84223637 11.98632812 123.18164062 C10.87957471 126.2467096 10 128.71425265 10 132 C23.86 132 37.72 132 52 132 C48.91454137 121.06590808 48.91454137 121.06590808 45 111 C44.01367625 107.94730569 43.09435612 104.87725923 42.171875 101.8046875 C40.83030499 97.44905686 39.39179595 93.13149471 37.9375 88.8125 C35.84029415 82.57450605 33.81253677 76.32797926 32 70 C31.67 70 31.34 70 31 70 Z " fill="#000000" transform="translate(108,51)"/>
<path d="M0 0 C18.48 0 36.96 0 56 0 C57.41887552 2.83775104 57.12270759 5.21638311 57.12025452 8.39065552 C57.12110894 9.05389985 57.12196337 9.71714418 57.12284368 10.40048683 C57.1244968 12.63306648 57.11897987 14.86557175 57.11352539 17.09814453 C57.11324346 18.69447833 57.11340137 20.29081227 57.1139679 21.887146 C57.11425563 26.22987556 57.1083628 30.57257768 57.10139394 34.91530085 C57.09515638 39.45035826 57.09455628 43.98541625 57.09336853 48.52047729 C57.0902564 57.11233045 57.08204461 65.70417092 57.07201904 74.29601848 C57.06085423 84.07580451 57.05534652 93.85559113 57.05032361 103.63538194 C57.0398619 123.75692994 57.02151788 143.87846057 57 164 C89.175 164.495 89.175 164.495 122 165 C122 180.51 122 196.02 122 212 C81.74 212 41.48 212 0 212 C0 142.04 0 72.08 0 0 Z " fill="#000000" transform="translate(371,51)"/>
<path d="M0 0 C18.81 0 37.62 0 57 0 C57 69.96 57 139.92 57 212 C38.19 212 19.38 212 0 212 C0 142.04 0 72.08 0 0 Z " fill="#000000" transform="translate(271,51)"/>
<path d="M0 0 C10.83984375 -0.09765625 10.83984375 -0.09765625 14 0 C15.84797201 1.84797201 15.12775947 4.86796077 15.12939453 7.33984375 C15.13114685 8.00162628 15.13289917 8.66340881 15.13470459 9.34524536 C15.13912217 11.5426899 15.13618547 13.74005458 15.1328125 15.9375 C15.13348557 17.45825211 15.13445561 18.97900412 15.13571167 20.49975586 C15.13718851 23.69092836 15.13503452 26.88207292 15.13037109 30.07324219 C15.1246738 34.1726453 15.12795288 38.27198296 15.13394356 42.37138367 C15.13754954 45.51282244 15.13641042 48.65424558 15.13381577 51.79568481 C15.1331466 53.30762744 15.13397457 54.81957146 15.13629532 56.33151245 C15.13882245 58.44109887 15.13498044 60.55057787 15.12939453 62.66015625 C15.12859894 63.86293213 15.12780334 65.06570801 15.12698364 66.30493164 C15 69 15 69 14 70 C11.98035801 70.07244053 9.95832876 70.08377188 7.9375 70.0625 C6.83277344 70.05347656 5.72804688 70.04445313 4.58984375 70.03515625 C3.73519531 70.02355469 2.88054688 70.01195312 2 70 C1.34 68.68 0.68 67.36 0 66 C-0.928125 66.804375 -1.85625 67.60875 -2.8125 68.4375 C-7.58989389 71.80864488 -12.23872565 72.37297506 -18 72 C-26.19055149 70.36913798 -31.35032133 65.77690665 -36 59 C-39.25013772 51.95803495 -39.30820759 42.01100884 -36.875 34.625 C-33.97256186 28.22613637 -29.58111471 23.55451521 -23.1328125 20.72265625 C-15.93840456 18.28499056 -9.87087911 18.70255907 -3 22 C-2.34 22.66 -1.68 23.32 -1 24 C-0.67 16.08 -0.34 8.16 0 0 Z M-20 36 C-22.36288424 39.20677146 -23.71530413 42.01425777 -24 46 C-23.25723796 50.23374362 -22.64197382 52.39012487 -19.5 55.375 C-15.38058224 58.05262154 -12.96798317 58.33681242 -8 58 C-4.28384011 56.31083641 -2.16095009 54.43676526 0 51 C0.74700572 46.4959949 0.52328795 42.29444915 -1.1875 38.0625 C-4.34106898 34.47395599 -6.7169654 33.13746799 -11.5 32.625 C-15.28541073 33.03057972 -17.05344689 33.62638778 -20 36 Z " fill="#000000" transform="translate(883,64)"/>
<path d="M0 0 C4.70496245 5.9716831 4.75045366 13.46979627 4.7578125 20.80078125 C4.75910156 22.03248047 4.76039062 23.26417969 4.76171875 24.53320312 C4.75785156 25.80099609 4.75398438 27.06878906 4.75 28.375 C4.75580078 30.30569336 4.75580078 30.30569336 4.76171875 32.27539062 C4.76042969 33.50064453 4.75914063 34.72589844 4.7578125 35.98828125 C4.75668457 37.10630127 4.75555664 38.22432129 4.75439453 39.3762207 C4.625 42.0625 4.625 42.0625 3.625 44.0625 C1.66733719 44.14332094 -0.29126728 44.20160778 -2.25 44.25 C-3.88582031 44.30220703 -3.88582031 44.30220703 -5.5546875 44.35546875 C-6.48539063 44.25878906 -7.41609375 44.16210938 -8.375 44.0625 C-9.035 43.0725 -9.695 42.0825 -10.375 41.0625 C-11.344375 41.701875 -12.31375 42.34125 -13.3125 43 C-18.29626295 45.80775377 -23.09027624 46.67601039 -28.73828125 45.62109375 C-33.95414546 44.08701604 -37.49476202 41.84573203 -41.375 38.0625 C-43.49610312 33.82029375 -42.98537119 28.65789081 -42.375 24.0625 C-40.23945148 19.61598291 -37.51756955 17.5279913 -33 15.6875 C-25.33444567 14.3658527 -18.15051389 13.93386098 -10.375 14.0625 C-12.06307908 9.83165097 -12.06307908 9.83165097 -15.375 7.0625 C-18.74857334 6.56179679 -18.74857334 6.56179679 -22.375 7.0625 C-23.3959375 8.3 -23.3959375 8.3 -24.4375 9.5625 C-29.31205818 13.71106015 -35.22954328 12.4367159 -41.375 12.0625 C-41.15223028 6.60464186 -39.93032092 3.63502472 -36.18359375 -0.36328125 C-25.55666899 -9.61306673 -10.59727365 -8.64514429 0 0 Z M-27.375 27.0625 C-27.03214799 30.7534351 -27.03214799 30.7534351 -24.6875 33.4375 C-21.4335129 34.31695597 -19.59202144 34.11295598 -16.375 33.0625 C-14.24561214 31.20554035 -12.99576846 29.44598303 -11.375 27.0625 C-11.375 26.0725 -11.375 25.0825 -11.375 24.0625 C-13.29095968 23.98116209 -15.20791932 23.92315633 -17.125 23.875 C-18.19234375 23.84019531 -19.2596875 23.80539063 -20.359375 23.76953125 C-23.67527855 24.09167214 -24.96516673 24.83398914 -27.375 27.0625 Z " fill="#000000" transform="translate(1045.375,89.9375)"/>
<path d="M0 0 C4.30347002 3.69404616 6.29746993 6.56948109 6.86303711 12.34667969 C7.18373506 18.55941639 7.09989416 24.78128035 7.0625 31 C7.05747576 32.45702971 7.05291449 33.9140611 7.04882812 35.37109375 C7.03789388 38.9140977 7.02068 42.45703797 7 46 C2.71 46 -1.58 46 -6 46 C-6.495 44.02 -6.495 44.02 -7 42 C-7.47308594 42.34933594 -7.94617188 42.69867188 -8.43359375 43.05859375 C-13.50393213 46.54754004 -17.77842332 48.3697032 -24 48 C-29.44428125 46.9075912 -34.07760164 45.04125891 -38 41 C-40.2604099 37.01737304 -40.45984846 33.52184316 -40 29 C-38.89045744 25.02351862 -37.48007659 22.01191877 -34.01171875 19.640625 C-25.90897139 15.77817548 -17.80925795 15.83753418 -9 16 C-9.57452746 12.06924356 -9.57452746 12.06924356 -12 9 C-17.88336903 8.49033587 -17.88336903 8.49033587 -23 11 C-23.33 11.99 -23.66 12.98 -24 14 C-28.62 14 -33.24 14 -38 14 C-38 7.71977651 -37.87423699 6.55222846 -34 2 C-23.99379859 -6.03595378 -10.80545044 -7.63554314 0 0 Z M-23.390625 27.8828125 C-25.2143267 29.83871564 -25.2143267 29.83871564 -25 32.125 C-24.11188939 34.09694931 -24.11188939 34.09694931 -22.3125 35.3125 C-19.05300879 36.28153793 -17.24125665 36.05836952 -14 35 C-11.87061214 33.14304035 -10.62076846 31.38348303 -9 29 C-9 28.01 -9 27.02 -9 26 C-10.91541138 25.89158049 -12.83259773 25.81421921 -14.75 25.75 C-15.81734375 25.70359375 -16.8846875 25.6571875 -17.984375 25.609375 C-21.10482343 25.75157819 -21.10482343 25.75157819 -23.390625 27.8828125 Z " fill="#000000" transform="translate(947,88)"/>
<path d="M0 0 C5.35861798 4.10042896 10.25111933 9.20506042 11.33032227 16.11499023 C11.96669228 24.58649823 12.59048204 33.44472921 6.85546875 40.26953125 C-0.98268677 47.57964261 -6.53204064 49.47812993 -17.3203125 49.28515625 C-22.15812935 48.91025112 -24.21648973 47.96100804 -28 45 C-28.86625 44.4225 -29.7325 43.845 -30.625 43.25 C-35.37967289 38.74557305 -38.58534933 33.63441065 -39 27 C-39.0825 25.741875 -39.165 24.48375 -39.25 23.1875 C-39.08265798 15.20072164 -36.20731602 9.40217003 -30.7578125 3.65625 C-22.25139139 -4.358689 -10.26207932 -4.82638418 0 0 Z M-21 13 C-23.60008751 17.30014472 -24.37337567 21.8310823 -23.5 26.75 C-22.28681041 30.94837125 -20.67064071 33.4713364 -17 36 C-13.5 36.83333333 -13.5 36.83333333 -10 36 C-6.38185064 33.18588383 -4.02188998 30.4963159 -3 26 C-3.00960227 20.73795354 -3.59070974 16.19604955 -7 12 C-11.88427442 10.37190853 -16.59877065 10.1142455 -21 13 Z " fill="#000000" transform="translate(1142,200)"/>
<path d="M0 0 C4.68926019 4.04925617 7.54881121 10.4900342 8.1484375 16.59765625 C8.42751817 25.60337493 7.16109671 32.16346769 0.9375 38.9140625 C-5.94201463 45.24634301 -12.02988307 46.54059335 -21.31640625 46.2578125 C-28.28785444 45.44268933 -33.35639883 41.95417869 -38.125 36.9375 C-42.92166149 29.44271643 -43.25712695 20.2129405 -41.73046875 11.58203125 C-39.88397655 5.61369196 -35.92011327 0.71992288 -31.125 -3.1875 C-20.43070819 -8.44566163 -9.45940156 -6.62158109 0 0 Z M-26.125 11.8125 C-28.28872824 16.77517945 -28.44866187 20.74665891 -26.75 25.875 C-26.23046812 27.19641805 -25.69653154 28.51272666 -25.125 29.8125 C-24.465 29.8125 -23.805 29.8125 -23.125 29.8125 C-23.125 30.4725 -23.125 31.1325 -23.125 31.8125 C-19.92279471 33.41360264 -16.59999602 33.30203317 -13.125 32.8125 C-9.33151754 30.21695937 -8.03001718 27.25531159 -7.125 22.8125 C-6.9777447 17.71583052 -7.34638502 13.99221966 -10.1875 9.6875 C-15.85996572 6.0667772 -21.68486102 6.45821476 -26.125 11.8125 Z " fill="#000000" transform="translate(937.125,203.1875)"/>
<path d="M0 0 C4.95 0 9.9 0 15 0 C15.03738281 2.09601563 15.07476563 4.19203125 15.11328125 6.3515625 C15.15958461 8.39707461 15.21078579 10.44241008 15.26245117 12.48779297 C15.29556291 13.9017449 15.32363716 15.31582464 15.34643555 16.72998047 C15.38023775 18.77105823 15.43255964 20.81097928 15.48828125 22.8515625 C15.51446533 24.07697754 15.54064941 25.30239258 15.56762695 26.56494141 C16.04307181 30.34219108 16.94953884 32.80072004 19 36 C22.91379213 37.23211974 25.0167206 37.41516241 28.8125 35.8125 C32.10048077 33.08817307 32.89516384 31.05478346 33.31884766 26.79199219 C33.35026855 25.55610352 33.38168945 24.32021484 33.4140625 23.046875 C33.43342865 22.38665344 33.4527948 21.72643188 33.4727478 21.04620361 C33.53229349 18.94759847 33.57882722 16.84893772 33.625 14.75 C33.66320294 13.3228934 33.70225602 11.89580928 33.7421875 10.46875 C33.83956786 6.97928695 33.91932976 3.49004915 34 0 C38.95 0 43.9 0 49 0 C49 16.17 49 32.34 49 49 C44.71 49 40.42 49 36 49 C35.34 47.68 34.68 46.36 34 45 C33.236875 45.639375 32.47375 46.27875 31.6875 46.9375 C26.16518785 51.17555351 19.68508321 50.58525389 13 50 C7.42822534 47.41310462 3.26008539 43.00817442 0.87158203 37.30615234 C-0.13847567 33.47472339 -0.25220426 29.90475827 -0.1953125 25.9765625 C-0.1924826 25.23038666 -0.18965271 24.48421082 -0.18673706 23.71542358 C-0.17561687 21.35178012 -0.15052821 18.98852732 -0.125 16.625 C-0.11495962 15.01432842 -0.10583562 13.40365085 -0.09765625 11.79296875 C-0.0774129 7.86171063 -0.03825037 3.93128829 0 0 Z " fill="#000000" transform="translate(978,199)"/>
<path d="M0 0 C3.5067031 2.39093393 5.95306586 5.00908591 7.75 8.875 C8.6325297 13.86319449 8.88568223 18.72537845 8.84765625 23.77734375 C8.8462413 24.4999086 8.84482635 25.22247345 8.84336853 25.9669342 C8.83782225 28.24883365 8.8252802 30.53063079 8.8125 32.8125 C8.80747804 34.37044128 8.80291636 35.92838412 8.79882812 37.48632812 C8.78872623 41.28262211 8.76914102 45.07869809 8.75 48.875 C4.13 48.875 -0.49 48.875 -5.25 48.875 C-5.29898437 46.93496094 -5.34796875 44.99492187 -5.3984375 42.99609375 C-5.47349132 40.43488211 -5.54903802 37.87368487 -5.625 35.3125 C-5.6559375 34.03568359 -5.686875 32.75886719 -5.71875 31.44335938 C-5.94180572 22.46583236 -5.94180572 22.46583236 -8.25 13.875 C-10.8112303 11.59835085 -12.2996608 11.8767736 -15.75 12 C-19.70448045 12.98862011 -20.82356692 13.66450212 -23.25 16.875 C-23.89273954 20.35224894 -23.89273954 20.35224894 -23.859375 24.265625 C-23.87591125 24.97023865 -23.89244751 25.67485229 -23.90948486 26.40081787 C-23.95791139 28.64230102 -23.97932187 30.88310613 -24 33.125 C-24.02816448 34.64847151 -24.05809259 36.17191152 -24.08984375 37.6953125 C-24.16697946 41.42218508 -24.20753903 45.1469271 -24.25 48.875 C-29.2 48.875 -34.15 48.875 -39.25 48.875 C-39.25 32.705 -39.25 16.535 -39.25 -0.125 C-34.96 -0.125 -30.67 -0.125 -26.25 -0.125 C-26.25 1.195 -26.25 2.515 -26.25 3.875 C-25.239375 3.25625 -24.22875 2.6375 -23.1875 2 C-15.27858702 -2.45371653 -8.48547013 -2.93727812 0 0 Z " fill="#000000" transform="translate(1202.25,199.125)"/>
<path d="M0 0 C4.24411091 4.14979733 5.6446631 7.07771837 6 13 C3.93867858 13.10864945 1.87568679 13.18588321 -0.1875 13.25 C-1.91033203 13.31960937 -1.91033203 13.31960937 -3.66796875 13.390625 C-7.6413491 12.92481253 -9.01342874 11.54262148 -12 9 C-15.73723433 9.13986273 -15.73723433 9.13986273 -19 10 C-19 10.99 -19 11.98 -19 13 C-16.97944982 13.62591479 -14.9585454 14.25068609 -12.9375 14.875 C-11.74898437 15.24753906 -10.56046875 15.62007812 -9.3359375 16.00390625 C-6.89459903 16.73287734 -4.54974022 17.31167561 -2.0625 17.8125 C2.28158631 19.49694163 4.65706452 22.00368865 7 26 C8.50451638 30.28661091 8.19020765 33.33986757 6.9375 37.6875 C4.0987298 42.54088132 0.30655417 45.93180453 -5 48 C-13.3843688 48.87915567 -21.55914098 49.0441524 -29.00390625 44.625 C-32.26351535 41.97138476 -34.57247606 38.96701391 -36 35 C-36.1171875 32.25 -36.1171875 32.25 -36 30 C-33.56065775 29.86498106 -31.12875896 29.76596103 -28.6875 29.6875 C-27.99720703 29.64560547 -27.30691406 29.60371094 -26.59570312 29.56054688 C-24.57421875 29.51171875 -24.57421875 29.51171875 -21 30 C-19.3125 32.5 -19.3125 32.5 -18 35 C-15.72668201 35.60169446 -15.72668201 35.60169446 -13.3125 35.3125 C-12.50425781 35.26738281 -11.69601562 35.22226563 -10.86328125 35.17578125 C-10.24839844 35.11777344 -9.63351562 35.05976563 -9 35 C-8.67 34.01 -8.34 33.02 -8 32 C-8.81267523 29.82078767 -8.81267523 29.82078767 -10.9777832 29.2097168 C-11.82687256 28.95875244 -12.67596191 28.70778809 -13.55078125 28.44921875 C-14.47697266 28.16240234 -15.40316406 27.87558594 -16.35742188 27.58007812 C-18.31350562 26.98924516 -20.27183601 26.40579531 -22.23242188 25.83007812 C-31.22951026 23.01809832 -31.22951026 23.01809832 -34 18 C-35.26389485 12.40275136 -35.28665092 8.40481127 -33 3 C-25.52460973 -5.68109837 -9.08487581 -6.27289044 0 0 Z " fill="#000000" transform="translate(880,201)"/>
<path d="M0 0 C3.65325004 2.8414167 5.23577549 4.77880458 5.8125 9.3125 C5.874375 10.529375 5.93625 11.74625 6 13 C1.71 13 -2.58 13 -7 13 C-7.33 12.01 -7.66 11.02 -8 10 C-9.45736087 9.80508548 -10.91594593 9.61930642 -12.375 9.4375 C-13.18710938 9.33308594 -13.99921875 9.22867188 -14.8359375 9.12109375 C-17.04899186 8.81762672 -17.04899186 8.81762672 -19 10 C-19 10.99 -19 11.98 -19 13 C-16.97944982 13.62591479 -14.9585454 14.25068609 -12.9375 14.875 C-11.74898437 15.24625 -10.56046875 15.6175 -9.3359375 16 C-6.90424028 16.72893968 -4.53602598 17.33776359 -2.0625 17.875 C2.04011448 19.38208287 4.6387924 21.29629979 7 25 C8.66929634 30.04519174 8.50289341 35.28315791 6.3046875 40.13671875 C3.39777993 44.28820051 -0.25958665 46.38060413 -5 48 C-13.37456895 49.17701222 -21.53216448 49.06016544 -29.00390625 44.625 C-32.26351535 41.97138476 -34.57247606 38.96701391 -36 35 C-36.1171875 32.25 -36.1171875 32.25 -36 30 C-33.56065775 29.86498106 -31.12875896 29.76596103 -28.6875 29.6875 C-27.99720703 29.64560547 -27.30691406 29.60371094 -26.59570312 29.56054688 C-24.57421875 29.51171875 -24.57421875 29.51171875 -21 30 C-19.3125 32.5 -19.3125 32.5 -18 35 C-15.72668201 35.60169446 -15.72668201 35.60169446 -13.3125 35.3125 C-12.50425781 35.26738281 -11.69601562 35.22226563 -10.86328125 35.17578125 C-10.24839844 35.11777344 -9.63351562 35.05976563 -9 35 C-8.34 33.35 -7.68 31.7 -7 30 C-7.65484375 29.82984375 -8.3096875 29.6596875 -8.984375 29.484375 C-11.99798405 28.68415113 -14.99974028 27.84892476 -18 27 C-19.07636719 26.69835937 -20.15273437 26.39671875 -21.26171875 26.0859375 C-29.17347512 23.69197432 -29.17347512 23.69197432 -32.6875 20.75 C-35.2070678 15.47090555 -35.54316872 11.71526964 -33.8125 6.25 C-31.64585181 2.36497567 -29.70454079 -0.23475235 -25.58984375 -2.08203125 C-16.82907661 -4.49479039 -7.89921682 -5.26614454 0 0 Z " fill="#000000" transform="translate(1255,201)"/>
<path d="M0 0 C4.29 0 8.58 0 13 0 C13 4.62 13 9.24 13 14 C17.29 14 21.58 14 26 14 C26 17.96 26 21.92 26 26 C21.71 26 17.42 26 13 26 C13.14066164 29.27113144 13.28730356 32.54180445 13.4375 35.8125 C13.47681641 36.74126953 13.51613281 37.67003906 13.55664062 38.62695312 C13.59853516 39.51962891 13.64042969 40.41230469 13.68359375 41.33203125 C13.72025146 42.15421143 13.75690918 42.9763916 13.79467773 43.82348633 C13.93427772 46.17905178 13.93427772 46.17905178 15 49 C16.06541016 49.09087891 16.06541016 49.09087891 17.15234375 49.18359375 C18.07144531 49.26738281 18.99054687 49.35117188 19.9375 49.4375 C20.85402344 49.51871094 21.77054688 49.59992188 22.71484375 49.68359375 C25 50 25 50 26 51 C26.07244053 53.01964199 26.08377188 55.04167124 26.0625 57.0625 C26.05347656 58.16722656 26.04445313 59.27195313 26.03515625 60.41015625 C26.02355469 61.26480469 26.01195312 62.11945313 26 63 C8.40038615 63.76891517 8.40038615 63.76891517 2 59 C-1.2416853 53.98061632 -2.13036051 49.46489122 -2.09765625 43.578125 C-2.09443359 42.55332031 -2.09121094 41.52851562 -2.08789062 40.47265625 C-2.07951172 39.40917969 -2.07113281 38.34570312 -2.0625 37.25 C-2.05798828 36.17105469 -2.05347656 35.09210938 -2.04882812 33.98046875 C-2.03705727 31.32025617 -2.02061399 28.66015635 -2 26 C-4.31 26 -6.62 26 -9 26 C-9 22.04 -9 18.08 -9 14 C-6.69 14 -4.38 14 -2 14 C-1.34 9.38 -0.68 4.76 0 0 Z " fill="#000000" transform="translate(969,71)"/>
<path d="M0 0 C4.29 0 8.58 0 13 0 C13 4.62 13 9.24 13 14 C17.29 14 21.58 14 26 14 C26 17.96 26 21.92 26 26 C21.71 26 17.42 26 13 26 C13.14066164 29.27113144 13.28730356 32.54180445 13.4375 35.8125 C13.47681641 36.74126953 13.51613281 37.67003906 13.55664062 38.62695312 C13.59853516 39.51962891 13.64042969 40.41230469 13.68359375 41.33203125 C13.72025146 42.15421143 13.75690918 42.9763916 13.79467773 43.82348633 C13.93427772 46.17905178 13.93427772 46.17905178 15 49 C16.06541016 49.09087891 16.06541016 49.09087891 17.15234375 49.18359375 C18.07144531 49.26738281 18.99054688 49.35117188 19.9375 49.4375 C20.85402344 49.51871094 21.77054688 49.59992188 22.71484375 49.68359375 C25 50 25 50 26 51 C26.07244053 53.01964199 26.08377188 55.04167124 26.0625 57.0625 C26.05347656 58.16722656 26.04445313 59.27195313 26.03515625 60.41015625 C26.02355469 61.26480469 26.01195312 62.11945313 26 63 C23.45767658 63.08152344 20.91800798 63.14073716 18.375 63.1875 C17.66214844 63.21263672 16.94929688 63.23777344 16.21484375 63.26367188 C11.3828961 63.33016657 8.21011732 62.62032675 4 60 C-1.07770344 54.92229656 -2.10565356 49.43005919 -2.1953125 42.50390625 C-2.18215261 40.52334254 -2.1584993 38.54282411 -2.125 36.5625 C-2.11597656 35.54478516 -2.10695313 34.52707031 -2.09765625 33.47851562 C-2.07424698 30.98542844 -2.041457 28.49284141 -2 26 C-4.31 26 -6.62 26 -9 26 C-9 22.04 -9 18.08 -9 14 C-5.535 13.505 -5.535 13.505 -2 13 C-1.34 8.71 -0.68 4.42 0 0 Z " fill="#000000" transform="translate(1044,185)"/>
<path d="M0 0 C4.95 0 9.9 0 15 0 C15 23.1 15 46.2 15 70 C10.05 70 5.1 70 0 70 C0 46.9 0 23.8 0 0 Z " fill="#000000" transform="translate(954,178)"/>
<path d="M0 0 C4.95 0 9.9 0 15 0 C15 16.17 15 32.34 15 49 C10.05 49 5.1 49 0 49 C0 32.83 0 16.66 0 0 Z " fill="#000000" transform="translate(1079,199)"/>
<path d="M0 0 C2.9375 2.125 2.9375 2.125 5 5 C5.06886551 8.92533388 4.55357459 11.13642364 2.4375 14.4375 C-0.40184519 16.25759307 -2.66077563 16.63409202 -6.02734375 16.4453125 C-9.57163515 15.64521503 -11.00475077 13.93052231 -13 11 C-13.5625 7.4375 -13.5625 7.4375 -13 4 C-9.29747748 -0.85158124 -5.78161732 -1.61885285 0 0 Z " fill="#000000" transform="translate(1091,178)"/>
<path d="" fill="#000000" transform="translate(0,0)"/>
<path d="" fill="#000000" transform="translate(0,0)"/>
<path d="" fill="#000000" transform="translate(0,0)"/>
<path d="" fill="#000000" transform="translate(0,0)"/>
<path d="" fill="#000000" transform="translate(0,0)"/>
<path d="" fill="#000000" transform="translate(0,0)"/>
<path d="" fill="#000000" transform="translate(0,0)"/>
<path d="" fill="#000000" transform="translate(0,0)"/>
<path d="" fill="#000000" transform="translate(0,0)"/>
<path d="" fill="#000000" transform="translate(0,0)"/>
<path d="" fill="#000000" transform="translate(0,0)"/>
<path d="" fill="#000000" transform="translate(0,0)"/>
<path d="" fill="#000000" transform="translate(0,0)"/>
<path d="" fill="#000000" transform="translate(0,0)"/>
</svg>
