<svg width="156" height="19" viewBox="0 0 156 19" fill="none" xmlns="http://www.w3.org/2000/svg">
<g clip-path="url(#clip0_210_1327)">
<path d="M119.752 12.4371C119.028 12.6927 118.312 12.9071 117.629 13.0886C117.678 12.7834 117.835 12.3134 117.991 12.3134C118.18 12.3134 118.197 12.2392 118.353 12.2392C118.51 12.2392 118.608 12.2062 118.649 12.3134C118.699 12.4206 118.822 12.4123 118.97 12.3299C119.11 12.2474 119.226 12.2639 119.349 12.2639C119.448 12.2639 119.678 12.3876 119.752 12.4371Z" fill="#000"/>
<path d="M116.303 13.4102C114.69 13.7565 113.283 13.8885 112.229 13.773C112.196 13.7813 112.172 13.773 112.139 13.7648C112.106 13.7648 112.073 13.7648 112.04 13.7565C111.974 13.6493 111.916 13.5339 111.875 13.4184C111.834 13.3442 111.801 13.27 111.768 13.1875C111.595 12.7834 111.447 12.3546 111.332 11.9175C111.357 11.9175 111.39 11.9258 111.423 11.9258H111.513C112.55 11.9835 113.842 11.8598 115.299 11.5547C115.348 11.6949 115.381 11.8268 115.381 11.8268C115.381 11.8268 115.406 12.0742 115.505 12.1402C115.595 12.2062 115.801 12.4123 115.818 12.3464C115.834 12.2804 115.883 12.1567 115.785 12.1567C115.694 12.1567 115.661 12.0577 115.645 11.934C115.628 11.8103 115.579 11.7444 115.521 11.6207C115.505 11.5877 115.497 11.5547 115.488 11.5135C115.546 11.5052 115.604 11.497 115.661 11.4805V11.5052C115.661 11.6372 115.851 12.0165 115.966 12.1072C116.073 12.2062 115.933 12.2474 116.073 12.536C116.213 12.8247 116.106 13.204 116.106 13.204C116.106 13.204 116.188 13.3112 116.303 13.4102Z" fill="#000"/>
<path d="M119.301 15.3385C117.293 15.924 115.482 16.2374 114.083 16.2539H113.993C113.943 16.2539 113.886 16.2539 113.836 16.2457C113.31 15.7179 112.84 15.1324 112.445 14.4891C112.478 14.4891 112.519 14.4974 112.552 14.4891C112.585 14.4974 112.61 14.4974 112.643 14.4974C113.836 14.5469 115.351 14.3572 117.046 13.9531C117.211 14.0768 117.631 14.184 117.721 14.2005C117.828 14.217 118.067 14.2335 118.215 14.3902C118.355 14.5469 118.528 14.5304 118.61 14.5469C118.684 14.5634 119.063 14.8355 119.063 14.9097C119.063 14.9922 119.227 15.1159 119.244 15.2148C119.244 15.2478 119.268 15.2973 119.301 15.3385Z" fill="#000"/>
<path d="M129.275 11.2387C127.654 12.5087 125.349 13.8116 122.683 14.8919C122.526 14.9497 122.378 15.0156 122.23 15.0734C121.654 15.296 121.094 15.4939 120.535 15.6836C118.428 16.3763 116.461 16.7969 114.864 16.9123H114.856C114.856 16.9123 114.798 16.9206 114.765 16.9206C114.707 16.9206 114.658 16.9288 114.6 16.9288C112.683 17.0278 111.349 16.6732 111.004 15.8238C110.954 15.7001 110.93 15.5681 110.93 15.4362C110.93 15.4609 110.938 15.4774 110.946 15.5022C111.267 16.3021 112.477 16.6649 114.23 16.6155H114.395C114.395 16.6155 114.444 16.6155 114.477 16.6072C115.95 16.5412 117.777 16.1949 119.761 15.5846C119.909 15.5434 120.057 15.5022 120.197 15.4527C120.518 15.3537 120.847 15.2383 121.177 15.1228C121.251 15.0981 121.325 15.0651 121.407 15.0404C121.802 14.8919 122.214 14.7352 122.617 14.5703C125.16 13.5395 127.382 12.3025 128.987 11.082C129.037 11.1398 129.086 11.1727 129.144 11.1975C129.193 11.214 129.234 11.2305 129.267 11.2387H129.275Z" fill="#000"/>
<path d="M129.91 10.7127C129.318 15.3885 125.334 19.0004 120.511 19.0004C118.281 19.0004 116.223 18.2253 114.602 16.9306C114.659 16.9306 114.709 16.9223 114.766 16.9223C114.799 16.9223 114.824 16.9141 114.857 16.9141H114.865C116.462 16.7986 118.429 16.378 120.536 15.6853H120.552C120.651 15.7018 120.659 16.1966 120.618 16.2956C120.569 16.3863 120.206 16.5265 120.124 16.7079C120.05 16.8811 120.001 16.8316 120.001 16.9718C120.001 17.1202 120.108 17.3511 120.206 17.4336C120.297 17.5078 120.602 17.5903 120.602 17.6398C120.602 17.6892 120.824 17.7799 120.84 17.8789C120.857 17.9696 121.663 18.3242 121.663 18.4809C121.663 18.5964 121.663 18.6788 121.688 18.753C123.639 18.5056 125.4 17.6645 126.783 16.4028C126.766 16.3945 126.758 16.3945 126.758 16.3863C126.766 16.2956 127.021 15.974 127.087 15.9245C127.153 15.8832 127.309 15.7513 127.169 15.6111C127.021 15.4709 126.964 15.3225 126.848 15.372C126.741 15.4214 126.593 15.4379 126.503 15.5039C126.404 15.5616 126.215 15.6606 126.108 15.6606C125.993 15.6606 125.853 15.6853 125.746 15.7513C125.63 15.8173 125.301 15.7018 125.301 15.6606C125.301 15.6111 125.235 15.372 125.062 15.3225C124.89 15.273 123.935 15.2483 123.935 15.2483C123.935 15.2483 123.482 15.0833 123.416 15.0091C123.351 14.9266 123.104 14.9266 122.955 14.9926C122.824 15.0586 122.355 15.0586 122.231 15.0751C122.379 15.0174 122.527 14.9514 122.684 14.8937C125.351 13.8134 127.655 12.5104 129.276 11.2405C129.392 11.2899 129.474 11.2982 129.556 11.2487C129.606 11.224 129.639 11.158 129.68 11.1085C129.696 11.0425 129.704 10.9683 129.721 10.8859C129.581 11.0013 129.433 11.1168 129.276 11.2405C129.244 11.2322 129.202 11.2157 129.153 11.1992C129.095 11.1745 129.046 11.1415 128.997 11.0838C129.276 10.8776 129.532 10.6714 129.77 10.4735C129.836 10.4076 129.902 10.3581 129.96 10.3086C131.128 9.25304 131.787 8.26345 131.737 7.48828C132.025 8.32943 131.318 9.48394 129.91 10.7127Z" fill="#000"/>
<path d="M119.071 5.17969L119.062 5.18898H119.071V5.17969Z" fill="#000"/>
<path d="M120.182 5.68117C120.182 5.68117 120.165 5.68117 120.156 5.67188H120.182V5.68117Z" fill="#000"/>
<path d="M122.435 9.07785C122.435 9.07785 122.353 9.16032 122.328 9.17681C122.419 9.13558 122.501 9.09435 122.583 9.05311C122.542 9.01188 122.493 9.02013 122.435 9.07785Z" fill="#000"/>
<path d="M110.28 11.4362C110.214 11.5187 110.165 11.6094 110.132 11.6918C109.564 11.5104 109.186 11.2218 109.021 10.8177C108.98 10.7188 108.955 10.6115 108.955 10.4961C109.136 10.9497 109.597 11.263 110.28 11.4362Z" fill="#000"/>
<path d="M130.246 4.7487C130.139 4.46007 129.892 4.24566 129.546 4.08073C129.505 4.06424 129.464 4.05599 129.423 4.04774C129.423 4.0395 129.431 4.0395 129.431 4.0395C129.365 4.00651 129.283 3.98177 129.201 3.95703C129.201 3.95703 129.192 3.97352 129.176 3.99002C129.127 4.06424 129.069 4.13845 129.011 4.21267C128.904 4.35286 128.781 4.49306 128.649 4.63325C128.608 4.67448 128.575 4.71571 128.534 4.75694C128.485 4.80642 128.435 4.86415 128.378 4.91363C128.172 5.11979 127.941 5.3342 127.686 5.54036C127.538 5.67231 127.374 5.80425 127.201 5.9362C126.098 6.79384 124.674 7.66797 123.044 8.48437C122.946 8.53385 122.847 8.58333 122.74 8.62457C122.55 8.72352 122.361 8.81424 122.164 8.90495C121.67 9.13585 121.16 9.35026 120.633 9.56467C118.715 10.3398 116.855 10.9006 115.192 11.2387C113.752 11.5356 112.468 11.6593 111.439 11.6016H111.341C111.341 11.6016 111.283 11.5933 111.258 11.5933C111.085 11.5768 110.929 11.5603 110.781 11.5438C110.699 11.5273 110.616 11.5108 110.542 11.4944C110.485 11.5933 110.435 11.684 110.402 11.7747C110.468 11.7912 110.534 11.8077 110.608 11.816C110.83 11.8655 111.069 11.8984 111.332 11.9149C111.357 11.9149 111.39 11.9232 111.423 11.9232H111.513C112.55 11.9809 113.843 11.8572 115.299 11.5521C115.365 11.5438 115.423 11.5273 115.489 11.5109C115.546 11.5026 115.604 11.4944 115.662 11.4779C117.217 11.1315 118.937 10.6037 120.699 9.88628C121.242 9.66363 121.769 9.43273 122.279 9.20182C122.295 9.19358 122.312 9.18533 122.328 9.17708C122.353 9.16059 122.394 9.11936 122.435 9.07812C122.493 9.0204 122.542 9.01215 122.583 9.05338C122.625 9.07812 122.649 9.13585 122.674 9.20182C122.715 9.35026 122.748 9.28429 122.608 9.33377C122.575 9.34201 122.567 9.34201 122.559 9.34201C122.55 9.35851 122.509 9.40799 122.337 9.55642C121.958 9.88628 121.958 9.68012 121.892 9.66363C121.834 9.64714 121.629 9.78733 121.629 9.78733C121.629 9.78733 121.53 10.1749 121.406 10.1749C121.275 10.1749 121.085 10.6615 120.995 10.7274C120.896 10.7934 120.978 11.2057 120.913 11.3294C120.855 11.4531 120.707 11.6758 120.567 11.6593C120.427 11.6428 120.312 12.0139 120.188 12.0304C120.114 12.0386 120.139 12.1541 120.18 12.286C120.616 12.1293 121.053 11.9644 121.497 11.783C124.262 10.6615 126.625 9.30078 128.213 8.03082C128.09 7.84115 128.024 7.55252 128.016 7.41233C127.991 7.22266 128.172 6.85156 128.238 6.77734C128.295 6.70312 128.312 6.52995 128.246 6.34852C128.18 6.1671 128.221 5.57335 128.369 5.57335C128.518 5.57335 128.616 5.46615 128.633 5.38368C128.657 5.30122 128.559 5.23524 128.534 5.15278V5.14453C128.583 5.09505 128.633 5.04557 128.674 4.99609C128.715 4.95486 128.756 4.91363 128.797 4.8724C128.978 4.66623 129.135 4.47656 129.267 4.27865H129.275C129.81 4.43533 130.172 4.69922 130.32 5.07031C130.32 4.95486 130.295 4.84766 130.254 4.7487H130.246ZM123.464 9.01215C123.291 9.11111 123.069 8.99566 123.003 8.95443C122.987 8.93793 122.962 8.92144 122.929 8.88845C123.077 8.82248 123.209 8.74826 123.349 8.68229C123.456 8.76476 123.612 8.92969 123.464 9.01215ZM128.081 6.8763C128.081 6.8763 127.448 7.14019 127.398 7.04123C127.357 6.95052 127.423 6.96701 127.423 6.85981C127.423 6.76085 127.423 6.77734 127.283 6.77734C127.151 6.77734 127.135 6.66189 127.127 6.57118C127.118 6.47222 127.135 6.44748 127.225 6.35677C127.299 6.27431 127.332 6.28255 127.341 6.19184C127.481 6.08464 127.62 5.97743 127.744 5.86198C127.752 5.89497 127.76 5.92795 127.769 5.94444C127.826 6.0434 127.802 6.05165 127.9 6.05165C127.991 6.05165 127.9 6.21658 127.974 6.28255C128.048 6.34852 128.081 6.44748 128.098 6.54644C128.114 6.6454 128.081 6.8763 128.081 6.8763Z" fill="#000"/>
<path d="M129.573 3.78689C129.507 3.76215 129.441 3.73741 129.367 3.72092C129.639 3.27561 129.779 2.86328 129.762 2.49219C129.886 2.86328 129.812 3.30035 129.573 3.78689Z" fill="#000"/>
<path d="M130.27 6.42578C130.27 6.42578 130.262 6.43403 130.254 6.44227C130.336 6.46701 130.41 6.48351 130.484 6.50825C130.419 6.47526 130.344 6.45052 130.27 6.42578Z" fill="#000"/>
<path d="M111.201 13.9779C111.143 14.0686 111.102 14.151 111.069 14.2418C110.534 14.0603 110.172 13.7717 110.016 13.3841C109.967 13.2604 109.942 13.1285 109.934 12.9883C109.942 13.013 109.95 13.0378 109.958 13.0625C110.131 13.4996 110.567 13.8047 111.201 13.9779Z" fill="#000"/>
<path d="M110.608 11.8186C110.394 12.1814 110.296 12.5278 110.32 12.8247C110.197 12.5195 110.23 12.1649 110.403 11.7773C110.468 11.7938 110.534 11.8103 110.608 11.8186Z" fill="#000"/>
<path d="M130.617 6.2526C130.552 6.22786 130.486 6.20313 130.42 6.19488C130.667 5.76606 130.782 5.37023 130.749 5.01562C130.889 5.37847 130.831 5.79905 130.617 6.2526Z" fill="#000"/>
<path d="M129.68 6.59852C129.631 6.59028 129.582 6.58203 129.532 6.57378C129.549 6.62326 129.565 6.67274 129.582 6.72222C129.54 6.7717 129.491 6.82118 129.45 6.87891C129.261 6.21918 128.997 5.5842 128.668 4.9987C128.709 4.95747 128.75 4.91623 128.791 4.875C128.997 5.23785 129.178 5.60894 129.326 6.00477C129.359 6.07899 129.392 6.16146 129.417 6.24392C129.433 6.26866 129.442 6.30165 129.45 6.32639C129.59 6.32639 129.721 6.35113 129.845 6.37587C129.787 6.45009 129.738 6.52431 129.68 6.59852Z" fill="#000"/>
<path d="M131.234 7.19184C131.118 6.89497 130.863 6.67231 130.493 6.50738C130.419 6.48264 130.345 6.46615 130.262 6.44141C130.213 6.51562 130.155 6.59809 130.098 6.67231C129.983 6.82899 129.851 6.98568 129.711 7.14236C129.662 7.19184 129.62 7.24132 129.563 7.2908C129.225 7.65365 128.806 8.02474 128.328 8.40408C126.699 9.69878 124.361 11.0265 121.645 12.1315C121.192 12.3129 120.748 12.4861 120.312 12.6428C120.196 12.684 120.09 12.7253 119.983 12.7582C119.201 13.0304 118.443 13.2613 117.719 13.4592C117.415 13.5417 117.118 13.6076 116.822 13.6819C115.135 14.0694 113.629 14.2344 112.452 14.1684H112.361C112.361 14.1684 112.287 14.1684 112.254 14.1684C112.057 14.1519 111.876 14.1272 111.703 14.1024C111.62 14.0859 111.546 14.0694 111.48 14.053C111.431 14.1519 111.39 14.2426 111.357 14.3333C111.225 14.6797 111.201 14.9931 111.316 15.2734C111.291 15.0013 111.373 14.6962 111.538 14.3746C111.81 14.4405 112.114 14.4818 112.452 14.4983C112.485 14.4983 112.526 14.5065 112.559 14.4983C112.592 14.5065 112.616 14.5065 112.649 14.5065C113.843 14.556 115.357 14.3663 117.052 13.9622C117.373 13.888 117.703 13.8056 118.032 13.7066C118.122 13.7561 118.188 13.7891 118.205 13.7973C118.246 13.8138 118.41 13.855 118.41 13.7313C118.41 13.6076 118.583 13.6076 118.6 13.5582C118.6 13.5582 118.608 13.5417 118.616 13.5417C118.633 13.5252 118.666 13.5169 118.699 13.5169H118.715C118.715 13.5169 118.814 13.5087 118.863 13.5087C118.978 13.5087 119.011 13.5747 119.069 13.5911C119.135 13.6076 119.085 13.7313 119.085 13.8468C119.085 13.954 119.036 14.0942 118.962 14.1602C118.88 14.2261 119.028 14.3828 119.102 14.3168C119.184 14.2591 119.308 14.3003 119.357 14.3333C119.406 14.3663 119.596 14.3498 119.596 14.4158C119.596 14.4735 119.801 14.49 119.859 14.6055C119.925 14.7127 119.892 14.8858 119.834 14.9683C119.793 15.026 119.81 15.1085 119.834 15.1827C120.699 14.9188 121.587 14.5972 122.493 14.2344C125.028 13.2036 127.234 11.9748 128.806 10.7791C128.731 10.6471 128.641 10.4575 128.517 10.2101C128.312 9.79774 128.287 9.23698 128.303 8.80816C128.822 8.40408 129.266 8.00825 129.637 7.62066C129.76 8.2309 129.826 8.85764 129.826 9.50911C129.826 9.65755 129.826 9.80599 129.818 9.94618C129.876 9.8967 129.933 9.83898 129.991 9.78125C129.999 9.69054 129.999 9.59983 129.999 9.50911C129.999 8.80816 129.925 8.1237 129.777 7.46398C129.999 7.22483 130.188 6.98568 130.345 6.75477C130.838 6.9197 131.168 7.17535 131.308 7.5217C131.308 7.40625 131.283 7.29904 131.242 7.20009L131.234 7.19184ZM121.085 13.9952C120.929 13.9952 120.674 14.0282 120.649 13.8963C120.616 13.7726 120.361 13.6901 120.254 13.6571C120.139 13.6324 120.057 13.5169 119.95 13.5334C119.843 13.5499 119.604 13.5004 119.637 13.4674C119.637 13.4674 119.727 13.4427 119.851 13.4097C119.983 13.3767 119.999 13.4674 120.106 13.4839C120.221 13.5004 120.443 13.5169 120.517 13.6159C120.6 13.7066 120.896 13.6571 120.962 13.6901C121.028 13.7231 121.151 13.7148 121.176 13.7891C121.209 13.8715 121.25 13.9952 121.085 13.9952ZM122.089 14.1519C121.941 14.1684 121.629 14.2509 121.563 14.1684C121.497 14.0859 121.373 14.0859 121.324 14.0447C121.275 13.9952 121.291 13.8056 121.341 13.8468C121.423 13.9293 121.546 13.8385 121.596 13.8385C121.645 13.8385 121.736 13.7231 121.801 13.7561C121.867 13.7891 122.024 13.8963 122.04 13.9457C122.057 13.9952 122.229 14.1354 122.089 14.1519Z" fill="#000"/>
<path d="M8.19753 10.2248C7.74486 9.54861 7.11111 9.07031 6.32099 8.79818C7.1358 8.05599 7.54733 7.14063 7.54733 6.06858C7.54733 5.48307 7.42387 4.89757 7.16872 4.32031C6.92181 3.7513 6.59259 3.273 6.17284 2.88542C5.76132 2.52257 5.25103 2.25868 4.65021 2.102C4.05761 1.94531 3.25926 1.87109 2.25514 1.87109H0V16.8798H3.42387C4.45268 16.8798 5.30041 16.7808 5.97531 16.5911C6.60082 16.4015 7.16049 16.0551 7.65432 15.5521C8.4856 14.7439 8.89712 13.7543 8.89712 12.5833C8.89712 11.6845 8.66667 10.901 8.19753 10.2248ZM2.26337 3.94922H3.06173C3.81893 3.94922 4.40329 4.13064 4.80658 4.50174C5.20988 4.86458 5.40741 5.40061 5.40741 6.10981C5.40741 6.81901 5.20988 7.37977 4.82305 7.75087C4.42798 8.13021 3.8107 8.31163 2.97119 8.31163H2.26337V3.94922ZM5.90947 14.1419C5.4321 14.546 4.68313 14.7522 3.66255 14.7522H2.26337V10.2083H3.40741C4.62551 10.2083 5.46502 10.4227 5.94239 10.8598C6.42798 11.3051 6.66667 11.8411 6.66667 12.4926C6.66667 13.1441 6.41152 13.7131 5.90947 14.1419Z" fill="#000"/>
<path d="M20.0173 3.9987V1.87109H11.7539V16.8798H20.0173V14.7522H14.0091V9.73004H19.8444V7.60243H14.0091V3.9987H20.0173Z" fill="#000"/>
<path d="M21.4062 1.87109V3.9987H24.8548V16.8798H27.1182V3.9987H30.5503V1.87109H21.4062Z" fill="#000"/>
<path d="M42.5114 1.87109H32.6431V3.9987H38.7994L31.4414 16.8798H42.3468V14.7522H35.1616L42.5114 1.87109Z" fill="#000"/>
<path d="M47.2434 14.7522V1.87109H44.9883V16.8798H51.6467V14.7522H47.2434Z" fill="#000"/>
<path d="M62.0563 3.9987V1.87109H53.793V16.8798H62.0563V14.7522H56.0481V9.73004H61.8835V7.60243H56.0481V3.9987H62.0563Z" fill="#000"/>
<path d="M70.0993 10.4805C71.0951 10.2661 71.8935 9.77951 72.5025 9.01259C73.1116 8.24566 73.4161 7.33854 73.4161 6.27474C73.4161 4.91406 72.9305 3.81727 71.9593 2.98437C71.0869 2.24219 69.6548 1.87109 67.6713 1.87109H65.0293V16.8798H67.2844V10.7361H67.696L71.9758 16.8798H74.733L70.0993 10.4805ZM67.2844 8.75694V3.9987H68.091C70.1733 3.9987 71.2186 4.76562 71.2186 6.29948C71.2186 7.94054 70.1486 8.75694 68.0005 8.75694H67.2844Z" fill="#000"/>
<path d="M90.8155 9.06207V11.1897H94.5522C94.4534 12.2452 93.9596 13.1523 93.0707 13.9028C92.1818 14.6532 91.1859 15.0326 90.0748 15.0326C88.7662 15.0326 87.5563 14.5295 86.4369 13.5234C85.2353 12.4431 84.6427 11.066 84.6427 9.39193C84.6427 7.71788 85.1777 6.42318 86.2476 5.35113C87.3258 4.25434 88.6509 3.71007 90.2394 3.71007C92.0007 3.71007 93.4987 4.52648 94.725 6.16753L96.3382 4.61719C95.3999 3.54514 94.4452 2.76997 93.474 2.29167C92.4616 1.81337 91.367 1.57422 90.1983 1.57422C88.0172 1.57422 86.1736 2.34115 84.6509 3.85851C83.1283 5.37587 82.3711 7.22309 82.3711 9.40017C82.3711 11.5773 83.1201 13.3585 84.6098 14.8841C86.1077 16.4015 87.902 17.1602 89.9925 17.1602C92.083 17.1602 93.9102 16.3767 95.3011 14.8099C95.9184 14.1089 96.3546 13.3585 96.6098 12.5503C96.8731 11.6845 97.0131 10.6866 97.0131 9.55686V9.06207H90.8155Z" fill="#000"/>
<path d="M104.922 10.4805C105.917 10.2661 106.724 9.77951 107.325 9.01259C107.934 8.24566 108.238 7.33854 108.238 6.27474C108.238 4.91406 107.753 3.81727 106.782 2.98437C105.909 2.24219 104.477 1.87109 102.494 1.87109H99.8516V16.8798H102.107V10.7361H102.518L106.798 16.8798H109.563L104.922 10.4805ZM102.107 8.75694V3.9987H102.913C104.996 3.9987 106.041 4.76562 106.041 6.29948C106.041 7.94054 104.971 8.75694 102.831 8.75694H102.107Z" fill="#000"/>
<path d="M141.753 1.87891V10.9089C141.753 12.2201 141.539 13.1602 141.119 13.7374C140.494 14.5951 139.605 15.0321 138.461 15.0321C137.317 15.0321 136.436 14.5951 135.811 13.7374C135.391 13.1437 135.177 12.1953 135.177 10.9089V1.87891H132.922V11.5438C132.922 13.1189 133.416 14.4219 134.395 15.4444C135.498 16.5907 136.848 17.1597 138.461 17.1597C140.074 17.1597 141.432 16.5907 142.535 15.4444C143.514 14.4219 144.008 13.1189 144.008 11.5438V1.87891H141.753Z" fill="#000"/>
<path d="M154.709 3.13238C154.215 2.64583 153.647 2.31597 153.005 2.1428C152.363 1.96962 151.417 1.87891 150.157 1.87891H147.598V16.8876H149.861V10.7934H150.906C152.462 10.7934 153.705 10.3893 154.618 9.58941C155.54 8.78125 156.001 7.69271 156.001 6.32379C156.001 5.03733 155.573 3.97352 154.709 3.13238ZM150.701 8.69054H149.861V3.96528H150.61C152.75 3.96528 153.82 4.74045 153.82 6.2908C153.82 7.84115 152.783 8.69054 150.701 8.69054Z" fill="#000"/>
<path d="M111.366 6.97569C111.366 6.97569 111.383 6.96745 111.391 6.9592L111.407 6.84375C111.391 6.89323 111.383 6.93446 111.366 6.97569ZM111.095 10.4062C111.095 10.4062 111.078 10.4227 111.078 10.431C111.086 10.5299 111.095 10.6289 111.111 10.7279C111.111 10.7196 111.119 10.7114 111.128 10.7031L111.095 10.4062Z" fill="#000"/>
<path d="M111.836 13.5L111.96 13.7227C111.96 13.7227 111.943 13.7391 111.943 13.7474C111.853 13.7309 111.762 13.7144 111.68 13.6979C111.696 13.6649 111.721 13.6319 111.746 13.6072C111.778 13.5742 111.803 13.533 111.836 13.5Z" fill="#000"/>
<path d="M111.367 6.97569C111.367 6.97569 111.384 6.96745 111.392 6.9592L111.409 6.84375C111.392 6.89323 111.384 6.93446 111.367 6.97569Z" fill="#000"/>
<path d="M111.095 10.4062C111.095 10.4062 111.078 10.4227 111.078 10.431C111.087 10.5299 111.095 10.6289 111.112 10.7279C111.112 10.7196 111.12 10.7114 111.128 10.7031L111.095 10.4062Z" fill="#000"/>
<path d="M129.25 2.18533C129.135 1.8967 128.896 1.67405 128.542 1.51736C128.534 1.51736 128.526 1.50911 128.518 1.50911C127.752 1.27821 126.674 1.23698 125.398 1.36892C125.349 1.32769 125.3 1.2947 125.242 1.26997H125.217C123.835 0.453559 122.221 0 120.509 0C116.197 0 112.551 2.89453 111.407 6.84462L111.39 6.96007C111.39 6.96007 111.374 6.97656 111.365 6.97656C111.357 7.01779 111.341 7.05903 111.332 7.10026C110.723 7.5868 110.213 8.0651 109.818 8.52691C109.802 8.53516 109.793 8.55165 109.785 8.56814C109.324 9.19488 109.143 9.75564 109.308 10.2174C109.291 9.45877 110.007 8.48568 111.25 7.44661C111.102 8.10634 111.028 8.7908 111.028 9.5C111.028 9.81337 111.044 10.1267 111.077 10.4319C111.077 10.4236 111.086 10.4154 111.094 10.4071L111.127 10.704C111.127 10.704 111.11 10.7205 111.11 10.7287V10.77C111.028 10.8607 110.946 10.9431 110.872 11.0256C110.83 11.0668 110.797 11.1081 110.773 11.1493C110.863 11.1658 110.954 11.1823 111.053 11.1905C111.086 11.1493 111.118 11.1081 111.16 11.0668C111.168 11.1163 111.176 11.1658 111.184 11.207C111.209 11.2153 111.234 11.2153 111.258 11.2153C111.291 11.2235 111.332 11.2235 111.365 11.2235C112.337 11.306 113.604 11.1905 115.044 10.8937C114.97 10.7205 114.872 10.168 114.872 10.0278C114.872 9.87934 114.954 9.57422 114.97 9.50825C114.979 9.44227 115.028 9.06293 115.028 8.98047C115.028 8.90625 115.201 8.58463 115.267 8.44444C115.332 8.30425 115.645 7.82595 115.645 7.82595V7.57031C115.645 7.49609 115.629 6.86111 115.629 6.86111L115.777 6.76215C115.777 6.76215 115.76 6.57248 115.744 6.51476C115.728 6.44878 115.826 6.25087 115.826 6.25087C115.917 6.01996 115.917 5.74783 115.95 5.49219C115.958 5.39323 115.9 5.28602 115.851 5.19531C115.777 5.07161 115.645 4.93142 115.522 4.90668C115.349 4.8737 115.209 4.79123 115.011 4.73351C114.97 4.73351 114.855 4.66753 114.781 4.60156C114.74 4.56858 114.732 4.56033 114.748 4.52734C114.765 4.48611 114.781 4.44488 114.822 4.46137C114.872 4.46962 114.921 4.5026 114.946 4.5191C115.036 4.58507 115.127 4.57682 115.16 4.54384C115.242 4.45312 115.365 4.34592 115.39 4.22222C115.407 4.13976 115.464 4.03255 115.538 3.98307C115.588 3.95009 115.678 3.98307 115.76 3.99957C115.843 4.01606 115.925 4.00781 115.983 4.02431C115.991 3.92535 115.983 3.87587 116.048 3.7934C116.123 3.69444 116.147 3.70269 116.271 3.69444C116.271 3.69444 116.295 3.71918 116.312 3.71918C116.386 3.77691 116.361 3.82639 116.452 3.75217C116.542 3.6862 116.518 3.58724 116.649 3.5625C116.732 3.55425 116.855 3.5625 116.937 3.59549C117.209 3.69444 117.143 4.21398 117.135 4.21398C117.135 4.46962 117.168 4.46962 117.332 4.6263C117.522 4.80773 117.941 4.9974 118.139 5.16233C118.238 5.24479 118.295 5.37674 118.394 5.46745C118.666 5.68186 118.732 5.26953 118.435 5.2283C118.386 5.03863 118.32 4.94792 118.155 4.84896C117.917 4.70052 118.369 4.49436 118.526 4.58507C118.641 4.65104 118.723 4.78299 118.806 4.8737C118.904 4.97266 118.987 5.07161 119.061 5.18707C119.028 5.32726 118.937 5.61589 119.127 5.6901C119.258 5.73958 119.217 5.59939 119.324 5.60764C119.316 5.54167 119.349 5.50868 119.365 5.4592C119.382 5.38498 119.382 5.31901 119.423 5.24479C119.489 5.26128 119.546 5.26128 119.579 5.31901C119.662 5.44271 119.538 5.67361 119.703 5.76432C119.843 5.83854 120.007 5.67361 120.147 5.67361C120.081 5.65712 120.007 5.62413 119.941 5.55816C119.9 5.50868 119.876 5.4592 119.818 5.41797C119.769 5.38498 119.752 5.37674 119.728 5.29427C119.695 5.18707 119.777 5.15408 119.867 5.14583C119.867 5.03863 119.966 5.03038 120.09 5.05512C120.18 5.07161 120.246 5.12934 120.246 5.12934C120.551 5.30252 120.74 5.36849 120.946 5.65712C121.02 5.76432 121.151 5.92101 121.258 5.98698C121.332 6.03646 121.431 6.00347 121.505 6.0612C121.579 6.11892 121.555 6.1849 121.579 6.25911C121.596 6.30859 121.653 6.35807 121.637 6.4158C121.621 6.47352 121.497 6.523 121.456 6.55599C121.431 6.68793 121.423 6.77865 121.291 6.82812C121.193 6.85286 121.061 6.84462 121.028 6.72917C120.913 6.73741 120.822 6.71267 120.723 6.67144C120.69 6.65495 120.674 6.60547 120.633 6.58898C120.608 6.58898 120.583 6.59722 120.559 6.58898C120.476 6.57248 120.32 6.55599 120.32 6.45703C120.501 6.39931 120.773 6.36632 120.674 6.10243C120.674 6.10243 120.707 6.01996 120.666 5.92925C120.501 5.87977 120.444 5.73134 120.254 5.69835C120.23 5.69835 120.205 5.6901 120.18 5.68186C120.262 5.69835 120.205 5.86328 120.295 5.87977C120.394 5.89627 120.295 5.97049 120.221 5.97049C120.139 5.97049 120.279 6.06944 120.106 6.14366C119.933 6.22613 119.456 6.72917 119.349 6.81163C119.242 6.8941 119.209 7.51259 119.267 7.5868C119.332 7.66927 119.9 7.92491 119.966 8.09809C120.032 8.27127 120.254 8.61762 120.411 8.51042C120.567 8.39496 120.534 7.79297 120.534 7.66927C120.534 7.54557 120.361 7.49609 120.361 7.38064C120.361 7.27344 120.345 6.8776 120.427 6.76215C120.501 6.65495 120.534 6.76215 120.658 6.74566C120.789 6.72917 120.88 6.84462 121.011 6.92708C121.135 7.0013 121.201 7.20747 121.267 7.22396C121.324 7.24045 121.662 7.25694 121.785 7.25694C121.909 7.25694 122.295 7.65278 122.353 7.68576C122.419 7.71875 122.559 8.0651 122.641 8.17231C122.649 8.1888 122.674 8.21354 122.699 8.23003C124.279 7.46311 125.662 6.63021 126.748 5.82205C126.715 5.76432 126.715 5.6901 126.715 5.61589C126.715 5.48394 126.748 5.12934 126.674 5.11285C126.6 5.08811 126.559 4.92318 126.551 4.86545C126.534 4.81597 126.526 4.75825 126.444 4.70052C126.361 4.63455 126.435 4.80773 126.271 4.61806C126.114 4.42839 126.147 4.05729 126.139 3.95833C126.123 3.86762 126.106 3.87587 126.024 3.85113C125.933 3.83464 125.991 3.73568 125.991 3.6697C125.991 3.61198 125.859 3.52951 125.785 3.47179C125.711 3.42231 125.728 3.19965 125.703 3.12543C125.678 3.05122 125.538 3.05946 125.497 3.00174C125.448 2.93576 125.168 2.72135 125.053 2.71311C124.937 2.70486 124.987 2.86979 125.069 2.89453C125.151 2.91102 125.127 3.04297 125.061 3.04297C124.995 3.04297 124.904 3.0842 124.921 3.16667C124.946 3.24913 125.102 3.24089 125.209 3.24913C125.316 3.26562 125.439 3.54601 125.538 3.57899C125.629 3.61198 125.711 3.71918 125.843 3.72743C125.966 3.73568 125.843 3.86762 125.752 3.85113C125.67 3.84288 125.596 3.99957 125.514 4.0408C125.431 4.08203 125.431 4.21398 125.3 4.15625C125.176 4.10677 125.127 4.05729 125.127 4.05729C124.88 4.07378 124.658 3.62847 124.551 3.48003C124.452 3.3316 124.213 3.16667 124.016 3.15842C123.818 3.14193 123.382 2.68012 123.382 2.59766C123.382 2.50694 123.588 2.40799 123.653 2.40799C123.728 2.40799 123.983 2.40799 124.098 2.34201C124.213 2.27604 124.106 2.16059 123.999 2.1276C123.876 2.09462 123.835 2.19358 123.818 2.25955C123.793 2.31727 123.555 2.2678 123.53 2.16884C123.514 2.07812 123.53 1.99566 123.464 2.00391C123.407 2.01215 123.275 2.00391 123.267 1.91319C123.258 1.82248 122.394 1.17101 122.295 1.12977C122.205 1.08854 122.131 1.21224 122.09 1.32769C122.04 1.44314 121.818 1.45139 121.686 1.45139C121.546 1.45139 121.538 1.32769 121.431 1.28646C121.324 1.24523 121.127 1.28646 120.979 1.28646C120.83 1.28646 120.88 1.34418 120.633 1.49262C120.378 1.64106 119.859 1.38542 119.777 1.38542C119.695 1.38542 119.719 1.21224 119.629 1.11328C119.53 1.02257 119.357 1.0803 119.341 1.21224C119.332 1.33594 118.872 1.36068 118.699 1.34418C118.534 1.34418 118.435 1.49262 118.427 1.59158C118.419 1.68229 118.386 1.74826 118.238 1.75651C118.09 1.76476 117.974 1.72352 117.818 1.78125C117.653 1.83073 117.793 2.01215 117.76 2.11936C117.728 2.22656 117.497 2.19358 117.275 2.21007C117.053 2.23481 117.003 2.6059 117.003 2.6059C116.658 3.14193 115.925 3.47179 115.843 3.41406C115.76 3.36458 115.958 3.19965 116.007 3.12543C116.065 3.05122 116.098 2.95226 116.032 2.93576C115.966 2.91102 115.703 2.86979 115.686 2.81207C115.662 2.76259 115.505 2.61415 115.505 2.4987C115.505 2.38325 116.032 2.1276 116.147 2.06163C116.262 2.00391 116.23 1.90495 116.221 1.84722C116.213 1.78125 116.172 1.51736 116.246 1.45964C116.32 1.41016 116.509 1.47613 116.534 1.36892C116.567 1.26172 116.748 1.26997 116.748 1.26997V0.97309C117.909 0.461805 119.176 0.181424 120.509 0.181424C122.197 0.181424 123.769 0.626736 125.127 1.40191C125.234 1.46788 125.332 1.52561 125.439 1.59158C126.337 2.15234 127.135 2.86979 127.793 3.69444C127.744 3.75217 127.835 4.08203 127.9 4.12326C127.974 4.18099 128.172 4.42839 128.172 4.49436C128.164 4.56033 128.065 4.6428 127.941 4.59332C127.81 4.53559 127.439 4.56858 127.678 4.79948C127.678 4.80773 127.752 4.75825 127.867 4.79948C127.9 4.80773 127.925 4.82422 127.941 4.84071C128.081 4.70052 128.205 4.57682 128.328 4.44488C128.337 4.43663 128.345 4.42839 128.361 4.41189C128.386 4.37891 128.419 4.34592 128.444 4.31293C128.402 4.24696 128.361 4.18099 128.312 4.11502C128.411 4.11502 128.493 4.13151 128.583 4.148C128.649 4.07378 128.707 4.00781 128.756 3.93359C128.559 3.90061 128.353 3.88411 128.139 3.87587C128.123 3.84288 128.098 3.8099 128.073 3.78516C128.032 3.71918 127.983 3.65321 127.925 3.59549L127.892 3.54601C127.267 2.77908 126.534 2.10286 125.703 1.56684C127.637 1.41016 128.987 1.70703 129.308 2.50694C129.316 2.52344 129.316 2.53168 129.324 2.54818C129.316 2.42448 129.291 2.30903 129.25 2.19358V2.18533ZM125.472 4.41189L125.703 4.6263C125.703 4.6263 125.785 4.66753 125.958 4.66753C126.131 4.66753 126.23 4.92318 126.378 4.93967C126.526 4.96441 126.592 5.26128 126.567 5.38498C126.542 5.50868 126.444 5.45095 126.295 5.36024C126.147 5.27778 126.04 5.19531 125.958 5.19531C125.876 5.19531 125.974 5.27778 125.999 5.40972C126.016 5.53342 126.23 5.53342 126.123 5.61589C126.016 5.7066 125.974 5.55816 125.785 5.50868C125.596 5.46745 125.621 5.07161 125.596 4.93967C125.579 4.81597 125.39 4.79123 125.283 4.66753C125.176 4.54384 125.472 4.41189 125.472 4.41189ZM123.703 4.77474C123.76 4.77474 123.892 4.68403 124.057 4.58507C124.23 4.47786 124.312 4.58507 124.312 4.58507C124.312 4.58507 124.419 4.6263 124.419 4.70877C124.419 4.79123 124.353 5.00564 124.271 5.08811C124.188 5.17057 124.188 5.40972 123.999 5.38498C123.802 5.36849 123.76 5.19531 123.703 5.07161C123.637 4.93967 123.637 4.77474 123.703 4.77474ZM119.974 3.95009C119.95 3.86762 119.974 3.84288 120.032 3.81814C120.09 3.80165 120.147 3.80165 120.213 3.73568C120.271 3.6697 120.452 3.69444 120.452 3.69444C120.616 3.62847 120.666 3.85937 120.732 3.90885C120.797 3.95833 120.822 3.87587 120.83 3.76042C120.839 3.65321 120.929 3.74392 120.962 3.66146C120.987 3.58724 121.291 3.48828 121.546 3.44705C121.81 3.40582 121.752 3.57899 121.826 3.62023C121.892 3.66146 121.991 3.69444 121.991 3.76042C121.991 3.8099 122.092 3.82089 122.295 3.7934C122.608 3.75217 123.102 4.29644 123.184 4.36241C123.275 4.43663 123.308 4.52734 123.357 4.64279C123.407 4.75 123.25 4.8737 123.258 4.94792C123.267 5.03038 123.242 5.02214 123.118 5.08811C123.003 5.14583 123.061 6.0447 123.11 6.16016C123.16 6.27561 123.201 6.32509 123.349 6.36632C123.497 6.40755 123.612 6.32509 123.612 6.44054C123.612 6.55599 123.225 6.523 123.011 6.67144C122.732 6.86936 122.83 6.58073 122.649 6.59722C122.476 6.61371 122.444 6.44878 122.345 6.39931C122.246 6.34983 122.345 6.15191 122.213 6.15191C122.081 6.15191 122.04 5.94575 122.04 5.8138C122.04 5.68186 122.032 5.43446 121.925 5.37674C121.818 5.31076 120.987 4.78299 120.88 4.68403C120.773 4.58507 120.715 4.33767 120.674 4.29644C120.641 4.25521 120.551 4.23871 120.534 4.28819C120.518 4.33767 120.542 4.46137 120.427 4.46962C120.32 4.46962 120.468 4.75 120.369 4.81597C120.271 4.88194 120.262 4.72526 120.164 4.65104C120.065 4.58507 119.925 4.49436 119.876 4.38715C119.835 4.27995 119.942 4.19748 119.999 4.13151C120.057 4.06554 119.999 4.02431 119.974 3.95009Z" fill="#000"/>
</g>
<defs>
<clipPath id="clip0_210_1327">
<rect width="156" height="19" fill="white"/>
</clipPath>
</defs>
</svg>
