<?xml version="1.0" encoding="UTF-8"?>
<svg xmlns="http://www.w3.org/2000/svg" id="Layer_1" data-name="Layer 1" viewBox="0 0 605 155">
  <defs>
    <style>
      .cls-1, .cls-2 {
        stroke-width: 0px;
      }

      .cls-2 {
        fill: #000;
      }
    </style>
  </defs>
  <path class="cls-1" d="m58.81,2.85v148.88h52.66c41.29,0,74.43-33.79,74.03-75.17-.39-40.99-33.05-73.71-74.03-73.71h-52.66Zm31.64,117.26V34.48h21.02c23.32,0,42.02,18.83,42.39,42.15.36,23.74-18.74,43.48-42.39,43.48h-21.02Z"></path>
  <path class="cls-1" d="m288.75,94.06c0,20.89-8.79,31.33-27.97,31.33s-27.97-10.44-27.97-31.33V2.85h-31.63v87.8c0,43.9,16.97,63.5,59.6,63.5s59.6-19.6,59.6-63.5V2.85h-31.63v91.21Z"></path>
  <rect class="cls-2" x="2.5" y="2.85" width="31.63" height="148.88"></rect>
  <path class="cls-1" d="m457.25,50.41h0c0-28.37-17.49-47.56-45.01-47.56h-70.6v148.88h31.62v-54.61h24.06l26.02,54.61h36.05l-29.22-58.45c18.13-6.83,27.09-22.83,27.09-42.87m-33.49,4.69c0,9.6-5.98,14.71-15.57,14.71h-34.93V31h34.93c9.6,0,15.57,5.12,15.57,14.71v9.39Z"></path>
  <path class="cls-1" d="m554.08,2.85h-40.1l-49.06,148.88h32.85l10.67-35.41h49.7l10.67,35.41h33.7L554.08,2.85Zm-37.97,85.96l16.42-56.53h1.07l16.63,56.53h-34.13Z"></path>
</svg>
