<?xml version="1.0" encoding="UTF-8"?>
<svg version="1.1" xmlns="http://www.w3.org/2000/svg" width="1554" height="575">
<path d="M0 0 C0.8953949 -0.0071553 1.79078979 -0.01431061 2.71331787 -0.02168274 C3.70381638 -0.02437164 4.69431488 -0.02706055 5.71482849 -0.02983093 C6.75241302 -0.03640213 7.78999756 -0.04297333 8.85902405 -0.04974365 C12.31543545 -0.06955327 15.771803 -0.08116371 19.22825623 -0.09111023 C20.40991804 -0.09518576 21.59157986 -0.09926128 22.80904961 -0.10346031 C29.07793378 -0.12436567 35.34679585 -0.13864115 41.6157074 -0.147995 C48.0611479 -0.15899576 54.50623706 -0.1933091 60.9515543 -0.23316669 C65.92851349 -0.25947011 70.9053913 -0.26769956 75.88241386 -0.27127647 C78.25559263 -0.2761166 80.62876839 -0.28765605 83.00187874 -0.30631447 C106.20016725 -0.47719121 126.49802001 2.4063035 143.84544373 19.08564758 C145.19386598 20.42575764 146.52227714 21.785916 147.84934998 23.14717102 C148.51450623 23.80330383 149.17966248 24.45943665 149.86497498 25.13545227 C164.23220982 40.24693577 169.43208739 60.52678128 169.12278748 80.83076477 C168.50583046 97.76043185 162.12608398 113.47354429 150.84934998 126.14717102 C150.31825623 126.75947571 149.78716248 127.3717804 149.23997498 128.00263977 C144.48618877 133.12993775 138.80374277 136.56161666 132.84934998 140.14717102 C136.68329391 147.37731159 140.77208565 154.34527916 145.22434998 161.20967102 C151.2677014 170.61342549 157.16678804 180.09795646 162.99143982 189.6386261 C166.10985968 194.73694043 169.25475927 199.8073681 172.52903748 204.80732727 C173.09219666 205.67269104 173.65535583 206.53805481 174.23558044 207.42964172 C175.27768465 209.02306793 176.33068148 210.60944748 177.39671326 212.18696594 C180.07626552 216.29664805 181.59850691 219.05914687 180.84934998 224.14717102 C179.19819077 225.79833022 177.24167121 225.3419412 174.96580505 225.40351868 C173.92414688 225.43249237 172.88248871 225.46146606 171.80926514 225.49131775 C167.02617125 225.58852019 162.24323333 225.66287802 157.4594574 225.71699524 C154.93634456 225.75365377 152.41342574 225.80822134 149.89109802 225.88105774 C146.25798585 225.98444576 142.62823749 226.02892004 138.99388123 226.06123352 C137.30607292 226.12620529 137.30607292 226.12620529 135.58416748 226.19248962 C127.93198941 226.17405126 127.93198941 226.17405126 124.89456177 223.2930603 C123.32992129 220.97797417 122.06933084 218.65861274 120.84934998 216.14717102 C120.19861511 215.10842834 119.54788025 214.06968567 118.87742615 212.99946594 C118.3048407 212.05176331 117.73225525 211.10406067 117.14231873 210.12763977 C116.48135193 209.0361261 115.82038513 207.94461243 115.13938904 206.82002258 C114.43853131 205.65824559 113.73768524 204.49646157 113.03684998 203.33467102 C112.29846048 202.11416194 111.55984931 200.89378695 110.82102966 199.67353821 C109.28124629 197.12996337 107.74241867 194.58581422 106.20433044 192.04121399 C102.71080457 186.26282457 99.20803831 180.49004414 95.70423889 174.71788025 C94.62595354 172.94101014 93.54850221 171.16363655 92.47117615 169.38618469 C91.80706726 168.29152893 91.14295837 167.19687317 90.45872498 166.06904602 C89.83933044 165.04746399 89.21993591 164.02588196 88.58177185 162.9733429 C87.03775664 160.45452665 85.45854848 157.9628799 83.86497498 155.47529602 C81.84934998 152.14717102 81.84934998 152.14717102 81.84934998 150.14717102 C69.63934998 150.14717102 57.42934998 150.14717102 44.84934998 150.14717102 C44.86095154 155.47744446 44.8725531 160.8077179 44.88450623 166.29951477 C44.88961306 169.66735452 44.89442683 173.03518953 44.8981781 176.4030304 C44.90416627 181.7538705 44.91126586 187.10469357 44.92478943 192.45552063 C44.93561926 196.76729075 44.94162701 201.07904261 44.94422722 205.39082527 C44.94608129 207.039534 44.94970158 208.68824168 44.95508003 210.33694267 C44.96229176 212.63820974 44.96334086 214.93940042 44.96287537 217.24067688 C44.96509598 218.55305832 44.96731659 219.86543976 44.96960449 221.21759033 C44.84934998 224.14717102 44.84934998 224.14717102 43.84934998 225.14717102 C42.3506495 225.24548248 40.84736459 225.27515558 39.34544373 225.27656555 C37.90890442 225.28129379 37.90890442 225.28129379 36.44334412 225.28611755 C35.40170105 225.28409332 34.36005798 225.28206909 33.28684998 225.27998352 C32.22522644 225.28094025 31.16360291 225.28189697 30.06980896 225.28288269 C27.82021526 225.28356466 25.57061961 225.28170921 23.32102966 225.27754211 C19.86427926 225.27219412 16.4076588 225.27748656 12.95091248 225.28388977 C10.77122469 225.28322899 8.59153698 225.28194784 6.41184998 225.27998352 C5.37020691 225.28200775 4.32856384 225.28403198 3.25535583 225.28611755 C2.29766296 225.28296539 1.33997009 225.27981323 0.35325623 225.27656555 C-0.4942218 225.27576996 -1.34169983 225.27497437 -2.21485901 225.27415466 C-4.15065002 225.14717102 -4.15065002 225.14717102 -5.15065002 224.14717102 C-5.25081002 221.27951362 -5.2850381 218.43586525 -5.27763367 215.56770325 C-5.27919366 214.65692221 -5.28075365 213.74614118 -5.28236091 212.80776072 C-5.28637505 209.73142829 -5.28317967 206.65514451 -5.28004456 203.57881165 C-5.28139841 201.38326997 -5.28317826 199.18772852 -5.28535461 196.9921875 C-5.28993079 191.01095973 -5.28813863 185.02974913 -5.28497553 179.04852104 C-5.28245288 172.80426358 -5.2847892 166.56000764 -5.28636169 160.31575012 C-5.28830055 149.15461821 -5.28518277 137.99349263 -5.28010236 126.83236223 C-5.27563431 116.70275685 -5.27641025 106.57316292 -5.28102112 96.44355774 C-5.28636682 84.69401644 -5.28836775 72.94448073 -5.28540885 61.19493818 C-5.28384564 54.97029819 -5.28365351 48.7456661 -5.28694534 42.52102661 C-5.28982291 36.67051211 -5.28785048 30.82001936 -5.28205109 24.96950722 C-5.28072287 22.81555022 -5.28111863 20.66159141 -5.28331375 18.50763512 C-5.28602286 15.58061118 -5.28264708 12.65365814 -5.27763367 9.72663879 C-5.27986439 8.86255229 -5.28209511 7.99846578 -5.28439343 7.10819483 C-5.26066933 0.02874486 -5.26066933 0.02874486 0 0 Z M44.84934998 45.14717102 C44.84934998 65.27717102 44.84934998 85.40717102 44.84934998 106.14717102 C53.26434998 106.20904602 61.67934998 106.27092102 70.34934998 106.33467102 C74.31225037 106.37563904 74.31225037 106.37563904 78.35520935 106.41743469 C80.46783492 106.42620307 82.58046559 106.43384617 84.69309998 106.44013977 C85.77494568 106.45548767 86.85679138 106.47083557 87.97142029 106.48664856 C96.69880789 106.48964835 103.62610886 105.05715378 110.24388123 99.02998352 C117.48094246 90.54272435 118.5270575 80.73997965 118.03294373 70.06465149 C117.63390638 65.89704599 116.05462886 62.63946512 113.84934998 59.14717102 C113.48712341 58.51424133 113.12489685 57.88131165 112.75169373 57.22920227 C108.81553111 50.97137086 103.08982023 47.53188824 96.03288269 45.56906128 C91.54953124 44.70281261 86.99599914 44.90632377 82.44700623 44.95185852 C81.49080383 44.95387268 80.53460144 44.95588684 79.54942322 44.95796204 C76.00351614 44.96836595 72.45767785 44.99628823 68.91184998 45.02217102 C60.97122498 45.06342102 53.03059998 45.10467102 44.84934998 45.14717102 Z " fill="#FFFFFF" transform="translate(1373.150650024414,1.8528289794921875)"/>
<path d="M0 0 C0.75534027 0.00021149 1.51068054 0.00042297 2.28890991 0.00064087 C13.79366071 0.0328269 24.51570118 0.75302216 35.5 4.375 C36.655 4.74882813 37.81 5.12265625 39 5.5078125 C60.15443569 13.04158559 77.7279885 26.60026218 88.7578125 46.33984375 C89.70063648 48.92516635 89.9135611 50.64377354 89.5 53.375 C87.8046875 55.26171875 87.8046875 55.26171875 85.375 57.0625 C84.46492187 57.74570312 83.55484375 58.42890625 82.6171875 59.1328125 C81.58851563 59.87273438 80.55984375 60.61265625 79.5 61.375 C78.6651709 61.98166504 78.6651709 61.98166504 77.81347656 62.60058594 C74.86229487 64.74494597 71.89672169 66.86613411 68.91015625 68.9609375 C66.758218 70.47180883 64.65665868 72.01338586 62.55859375 73.6015625 C61.26115234 74.57222656 61.26115234 74.57222656 59.9375 75.5625 C59.19371094 76.13355469 58.44992187 76.70460938 57.68359375 77.29296875 C55.5 78.375 55.5 78.375 52.9296875 78.3671875 C49.63885142 77.02334125 48.89693794 75.39627514 47.1875 72.3125 C39.06804967 58.8841783 26.40094759 50.80408222 11.26953125 47 C-4.0807462 44.45487628 -19.49154455 46.25279153 -32.5 55.375 C-48.10055307 67.52751739 -56.38344754 84.2757709 -59.25 103.625 C-60.59090243 123.73853649 -56.17379576 140.79979112 -44.5 157.375 C-44.06300781 158.01050781 -43.62601563 158.64601562 -43.17578125 159.30078125 C-34.32203014 170.86649216 -20.0260168 176.87436658 -6.03515625 179.05859375 C10.57064055 181.13112001 26.6083136 175.02808142 39.9375 165.375 C41.13319588 164.38481435 42.32038177 163.38428543 43.5 162.375 C44.304375 161.77042969 45.10875 161.16585937 45.9375 160.54296875 C47.175 159.56263672 47.175 159.56263672 48.4375 158.5625 C49.18902344 157.97855469 49.94054687 157.39460937 50.71484375 156.79296875 C53.33155411 153.24867178 53.32026514 149.68690276 53.5 145.375 C52.60168457 145.38547363 51.70336914 145.39594727 50.77783203 145.40673828 C47.44935553 145.4407947 44.12106378 145.46588618 40.79248047 145.48486328 C39.35104453 145.49492963 37.90962905 145.5085838 36.46826172 145.52587891 C34.39806066 145.55010012 32.32812924 145.56147641 30.2578125 145.5703125 C28.38826904 145.58602295 28.38826904 145.58602295 26.48095703 145.60205078 C23.5 145.375 23.5 145.375 21.5 143.375 C21.31246689 140.58989776 21.24438768 137.90600354 21.26953125 135.12109375 C21.26998947 134.30504166 21.27044769 133.48898956 21.2709198 132.64820862 C21.27394256 130.92244005 21.28182958 129.19667422 21.29418945 127.47094727 C21.31245022 124.81972667 21.31469914 122.16885504 21.31445312 119.51757812 C21.31936806 117.84374696 21.32519627 116.16991818 21.33203125 114.49609375 C21.33314407 113.69819931 21.3342569 112.90030487 21.33540344 112.07823181 C21.38395099 106.49104901 21.38395099 106.49104901 22.5 105.375 C24.76449379 105.27532414 27.03214211 105.24700169 29.29882812 105.24560547 C30.00937851 105.24385315 30.71992889 105.24210083 31.45201111 105.24029541 C33.81178191 105.23587723 36.17147837 105.23881475 38.53125 105.2421875 C40.16410334 105.24151445 41.79695658 105.24054442 43.42980957 105.23928833 C46.85637361 105.2378114 50.28291163 105.23996574 53.70947266 105.24462891 C58.11154501 105.2503262 62.51355641 105.24704716 66.91562653 105.24105644 C70.28868065 105.23745069 73.66172022 105.23858948 77.03477478 105.24118423 C78.65836087 105.24185346 80.28194827 105.24102522 81.90553284 105.23870468 C84.1707817 105.23617791 86.4359305 105.24001906 88.70117188 105.24560547 C90.63857239 105.24679886 90.63857239 105.24679886 92.6151123 105.24801636 C95.5 105.375 95.5 105.375 96.5 106.375 C96.59804865 107.92888163 96.62631862 109.48721764 96.62698364 111.04418945 C96.62980347 112.05381744 96.63262329 113.06344543 96.63552856 114.10366821 C96.63249222 115.77905167 96.63249222 115.77905167 96.62939453 117.48828125 C96.63202301 119.24173355 96.63202301 119.24173355 96.63470459 121.03060913 C96.63836264 124.24540439 96.63748976 127.46015878 96.6343255 130.67495346 C96.63180142 134.03240803 96.63413958 137.38985978 96.63571167 140.74731445 C96.63753322 146.38656101 96.63512743 152.02579449 96.63037109 157.66503906 C96.6249285 164.1935026 96.62669116 170.72193491 96.6321975 177.25039768 C96.63672904 182.84614359 96.63737898 188.44188007 96.63475883 194.03762722 C96.63319628 197.38386484 96.63300169 200.73008777 96.63629532 204.07632446 C96.63882014 207.80481105 96.63498364 211.53323673 96.62939453 215.26171875 C96.63141876 216.37864105 96.63344299 217.49556335 96.63552856 218.64633179 C96.63270874 219.65595978 96.62988892 220.66558777 96.62698364 221.70581055 C96.6264181 223.02986153 96.6264181 223.02986153 96.62584114 224.38066101 C96.5 226.375 96.5 226.375 95.5 227.375 C92.56634254 227.48853016 89.65711538 227.53918708 86.72265625 227.54296875 C85.84097275 227.54629715 84.95928925 227.54962555 84.05088806 227.55305481 C82.18212406 227.55812783 80.31335096 227.56046302 78.44458008 227.56030273 C75.57813656 227.56248808 72.7120784 227.58063655 69.84570312 227.59960938 C68.03385549 227.60254339 66.22200602 227.60452813 64.41015625 227.60546875 C63.5486647 227.61265427 62.68717316 227.61983978 61.79957581 227.62724304 C55.7288216 227.6038216 55.7288216 227.6038216 53.5 225.375 C53.18115234 223.40380859 53.18115234 223.40380859 53.0859375 221.0234375 C53.02792969 219.74726563 53.02792969 219.74726563 52.96875 218.4453125 C52.92234375 217.11113281 52.92234375 217.11113281 52.875 215.75 C52.83632813 214.8528125 52.79765625 213.955625 52.7578125 213.03125 C52.66340643 210.8127073 52.57783252 208.59417597 52.5 206.375 C51.85675781 206.88289062 51.21351563 207.39078125 50.55078125 207.9140625 C29.93557688 223.61808409 5.31398956 227.97310754 -20.0703125 224.9140625 C-47.29058233 220.31421571 -72.46977252 205.09819204 -88.77441406 182.7644043 C-98.27763959 169.21721808 -104.75732098 154.48684314 -108.5 138.375 C-108.68618896 137.57634521 -108.87237793 136.77769043 -109.06420898 135.95483398 C-110.70919152 128.05028696 -110.85899134 120.23742111 -110.8125 112.1875 C-110.81001251 111.50046997 -110.80752502 110.81343994 -110.80496216 110.10559082 C-110.62558253 78.09308343 -98.94317925 51.32980651 -76.26538086 28.77368164 C-62.47889957 15.53036248 -44.92210232 7.00522611 -26.5 2.375 C-25.80036133 2.18953613 -25.10072266 2.00407227 -24.37988281 1.81298828 C-16.33287383 -0.08132022 -8.2174754 -0.02114244 0 0 Z " fill="#FFFFFF" transform="translate(612.5,-0.375)"/>
<path d="M0 0 C0.75633728 0.00054382 1.51267456 0.00108765 2.29193115 0.00164795 C13.79283621 0.03971126 24.52923912 0.72460659 35.5 4.375 C36.17579102 4.58398926 36.85158203 4.79297852 37.54785156 5.00830078 C58.98303904 11.70993434 77.02303177 25.85920972 88.24609375 45.41796875 C89.54253903 48.4753179 90.13591613 50.12060567 89.5 53.375 C87.69140625 55.41015625 87.69140625 55.41015625 85.0625 57.4375 C84.06992187 58.20578125 83.07734375 58.9740625 82.0546875 59.765625 C75.9164034 64.31014622 69.69665734 68.75010289 63.39208984 73.06103516 C62.18595893 73.89863472 60.99629968 74.76084122 59.83056641 75.65380859 C57.40511744 77.45992811 55.89171493 78.36525014 52.83203125 78.44140625 C49.67604621 76.99821711 48.85964383 75.32899767 47.1875 72.3125 C39.42186332 59.39208724 27.03699661 51.18011189 12.5625 47.125 C-3.62797265 44.00599476 -18.78244699 46.77475655 -32.78125 55.46875 C-46.06775313 64.78457403 -54.39351495 80.39882022 -57.93359375 96.015625 C-61.76634327 118.74779456 -57.28587664 139.30693776 -44.10546875 158.39453125 C-35.19777489 169.76660152 -21.12074409 176.49928964 -7.16015625 178.96484375 C12.92807071 181.21592575 29.64128532 173.85091516 45.0078125 161.62890625 C51.50615724 156.49320653 51.50615724 156.49320653 54.32421875 149.03515625 C54.38222656 147.82730469 54.44023438 146.61945313 54.5 145.375 C53.5713916 145.38547363 52.6427832 145.39594727 51.68603516 145.40673828 C48.2457431 145.44079204 44.80562973 145.46588493 41.36523438 145.48486328 C39.8752968 145.49493043 38.38537903 145.50858518 36.89550781 145.52587891 C34.75580972 145.55009653 32.61637247 145.56147564 30.4765625 145.5703125 C29.18830566 145.58078613 27.90004883 145.59125977 26.57275391 145.60205078 C23.5 145.375 23.5 145.375 21.5 143.375 C21.30026267 140.67364677 21.22018427 138.07702789 21.234375 135.375 C21.23246155 134.58351562 21.2305481 133.79203125 21.22857666 132.9765625 C21.22721482 131.3020801 21.23091118 129.62758715 21.23925781 127.953125 C21.2499576 125.38517619 21.23936275 122.81792697 21.2265625 120.25 C21.2278841 118.62499845 21.23044649 116.99999734 21.234375 115.375 C21.23032654 114.60414062 21.22627808 113.83328125 21.22210693 113.0390625 C21.27007868 107.60492132 21.27007868 107.60492132 23.5 105.375 C26.46717834 105.12776184 26.46717834 105.12776184 30.32055664 105.13208008 C31.3719709 105.12923256 31.3719709 105.12923256 32.44462585 105.12632751 C34.7665823 105.12261614 37.0882275 105.13332794 39.41015625 105.14453125 C41.01915958 105.14572285 42.62816361 105.14617626 44.23716736 105.1459198 C47.61071115 105.14748523 50.9841489 105.15578011 54.35766602 105.16918945 C58.69133639 105.18619302 63.0248903 105.19000345 67.35859013 105.18924427 C70.68103659 105.1895156 74.00345737 105.19499062 77.32589531 105.20224571 C78.92435957 105.20543732 80.52282675 105.20740093 82.12129402 105.20813942 C84.35052624 105.21029704 86.57963253 105.21902818 88.80883789 105.22973633 C90.07965714 105.23354813 91.35047638 105.23735992 92.6598053 105.24128723 C95.5 105.375 95.5 105.375 96.5 106.375 C96.59804865 107.92888163 96.62631862 109.48721764 96.62698364 111.04418945 C96.62980347 112.05381744 96.63262329 113.06344543 96.63552856 114.10366821 C96.63249222 115.77905167 96.63249222 115.77905167 96.62939453 117.48828125 C96.63202301 119.24173355 96.63202301 119.24173355 96.63470459 121.03060913 C96.63836264 124.24540439 96.63748976 127.46015878 96.6343255 130.67495346 C96.63180142 134.03240803 96.63413958 137.38985978 96.63571167 140.74731445 C96.63753322 146.38656101 96.63512743 152.02579449 96.63037109 157.66503906 C96.6249285 164.1935026 96.62669116 170.72193491 96.6321975 177.25039768 C96.63672904 182.84614359 96.63737898 188.44188007 96.63475883 194.03762722 C96.63319628 197.38386484 96.63300169 200.73008777 96.63629532 204.07632446 C96.63882014 207.80481105 96.63498364 211.53323673 96.62939453 215.26171875 C96.63141876 216.37864105 96.63344299 217.49556335 96.63552856 218.64633179 C96.63270874 219.65595978 96.62988892 220.66558777 96.62698364 221.70581055 C96.6264181 223.02986153 96.6264181 223.02986153 96.62584114 224.38066101 C96.5 226.375 96.5 226.375 95.5 227.375 C92.5546443 227.47610353 89.6332244 227.51469279 86.6875 227.5078125 C85.36141724 227.50924759 85.36141724 227.50924759 84.00854492 227.51071167 C82.13557871 227.51139351 80.26261014 227.50953893 78.38964844 227.50537109 C75.51231612 227.50002289 72.63513992 227.50531593 69.7578125 227.51171875 C67.94270799 227.51105797 66.12760357 227.50977681 64.3125 227.5078125 C63.44584717 227.50983673 62.57919434 227.51186096 61.6862793 227.51394653 C55.61495009 227.48995009 55.61495009 227.48995009 54.5 226.375 C54.41314397 224.81327255 54.39297781 223.24770656 54.40234375 221.68359375 C54.40556641 220.73935547 54.40878906 219.79511719 54.41210938 218.82226562 C54.42048828 217.82904297 54.42886719 216.83582031 54.4375 215.8125 C54.44201172 214.81541016 54.44652344 213.81832031 54.45117188 212.79101562 C54.46299993 210.31895151 54.47948151 207.84700482 54.5 205.375 C53.89704102 205.83028076 53.29408203 206.28556152 52.67285156 206.75463867 C31.18610978 222.77795387 6.4319008 228.10782627 -20.0703125 224.9140625 C-41.73164619 221.25359856 -60.46845058 211.15763268 -76.5 196.375 C-77.49386719 195.50294922 -77.49386719 195.50294922 -78.5078125 194.61328125 C-97.81131243 176.79121271 -109.2026494 148.06984579 -110.68017578 122.22314453 C-112.02824372 88.2025484 -103.84854599 59.20582344 -80.90625 33.46484375 C-65.98534206 17.86371795 -47.37428904 7.6215607 -26.5 2.375 C-25.80036133 2.18953613 -25.10072266 2.00407227 -24.37988281 1.81298828 C-16.33322547 -0.08123744 -8.21724079 -0.02214046 0 0 Z " fill="#FFFFFF" transform="translate(910.5,-0.375)"/>
<path d="M0 0 C0.76816544 -0.00540298 1.53633087 -0.01080597 2.32777405 -0.01637268 C3.198853 -0.02905685 4.06993195 -0.04174103 4.96740723 -0.05480957 C6.38147606 -0.05040611 6.38147606 -0.05040611 7.82411194 -0.0459137 C9.27413353 -0.05377647 9.27413353 -0.05377647 10.75344849 -0.0617981 C12.80034931 -0.06822902 14.84728703 -0.06686752 16.8941803 -0.05836487 C20.03099778 -0.04986269 23.16599057 -0.07858906 26.30262756 -0.11036682 C28.28895514 -0.11197903 30.27528595 -0.11140093 32.26161194 -0.1084137 C33.20230026 -0.11964767 34.14298859 -0.13088165 35.11218262 -0.14245605 C35.98641373 -0.1330751 36.86064484 -0.12369415 37.7613678 -0.11402893 C38.91480934 -0.11377968 38.91480934 -0.11377968 40.09155273 -0.11352539 C42.10926819 0.38768005 42.10926819 0.38768005 43.74937439 2.10429382 C45.17614493 4.49997224 46.22110074 6.81839121 47.21546936 9.42356873 C47.79929382 10.93880379 47.79929382 10.93880379 48.39491272 12.48464966 C48.80982971 13.58057938 49.2247467 14.67650909 49.65223694 15.8056488 C50.31292175 17.5273101 50.31292175 17.5273101 50.98695374 19.28375244 C51.93469983 21.7556056 52.88015973 24.22819111 53.82176208 26.70237732 C55.30938719 30.61100874 56.8057106 34.51627095 58.30384827 38.42088318 C58.80812123 39.73542181 59.31237843 41.04996649 59.81661987 42.36451721 C60.06599619 43.01462894 60.31537251 43.66474068 60.57230568 44.33455276 C61.32919109 46.30870805 62.08522843 48.28318609 62.84100342 50.25776672 C66.94778315 60.985498 71.10820514 71.69163806 75.29676819 82.38768005 C76.57602293 85.6582755 77.85451179 88.92916988 79.13270569 92.20018005 C79.61065079 93.42315544 79.61065079 93.42315544 80.09825134 94.6708374 C84.22486622 105.23582324 88.32297681 115.81187619 92.42176819 126.38768005 C92.81524445 127.40290741 93.2087207 128.41813477 93.61412048 129.46412659 C95.6207553 134.64182486 97.62705354 139.81965348 99.63319397 144.99754333 C103.46234689 154.88027784 107.29402722 164.76203249 111.12571716 174.64378357 C112.3186722 177.72048074 113.51147109 180.79723841 114.70423889 183.87400818 C115.0773671 184.83586029 115.4504953 185.7977124 115.83493042 186.78871155 C116.56088038 188.66212885 117.28535542 190.53611847 118.00823975 192.41072083 C119.70489739 196.80453094 121.42572629 201.18492019 123.20887756 205.54441833 C123.70227631 206.76597374 123.70227631 206.76597374 124.2056427 208.01220703 C124.81578278 209.51950534 125.4351685 211.02311265 126.06611633 212.52182007 C127.84754747 216.95188122 128.50136473 220.53025478 128.10926819 225.38768005 C127.10926819 226.38768005 127.10926819 226.38768005 125.12878418 226.50793457 C124.26052505 226.50571396 123.39226593 226.50349335 122.49769592 226.50120544 C121.51675461 226.50112991 120.53581329 226.50105438 119.52514648 226.50097656 C118.45849258 226.49581528 117.39183868 226.49065399 116.29286194 226.4853363 C114.66357506 226.48321388 114.66357506 226.48321388 113.00137329 226.48104858 C109.51647744 226.47543054 106.03164477 226.46287498 102.54676819 226.45018005 C100.19064932 226.44516738 97.83452945 226.44060407 95.47840881 226.43650818 C89.68867355 226.42545524 83.89897538 226.40869956 78.10926819 226.38768005 C75.28406294 220.22810382 72.76391664 214.00894951 70.43739319 207.64549255 C70.1101123 206.75530426 69.78283142 205.86511597 69.44563293 204.94795227 C68.76177797 203.084692 68.07952404 201.22084338 67.39881897 199.35643005 C66.35371173 196.49748005 65.30009879 193.64175793 64.24598694 190.78611755 C63.58010654 188.96859811 62.91472392 187.15089621 62.24989319 185.33299255 C61.93433472 184.47988495 61.61877625 183.62677734 61.2936554 182.74781799 C61.00625488 181.95624298 60.71885437 181.16466797 60.42274475 180.34910583 C60.16833618 179.65455292 59.91392761 178.96 59.65180969 178.24440002 C59.10926819 176.38768005 59.10926819 176.38768005 59.10926819 173.38768005 C33.36926819 173.38768005 7.62926819 173.38768005 -18.89073181 173.38768005 C-19.88073181 177.01768005 -20.87073181 180.64768005 -21.89073181 184.38768005 C-22.95584313 187.65446733 -24.04016883 190.90019799 -25.17588806 194.1415863 C-25.4776445 195.00912033 -25.77940094 195.87665436 -26.09030151 196.77047729 C-26.72116272 198.58015199 -27.35395357 200.38915511 -27.9886322 202.19749451 C-28.96111362 204.97267243 -29.92323728 207.7513059 -30.88487244 210.53025818 C-31.50209068 212.29675108 -32.11990724 214.06303506 -32.73838806 215.8290863 C-33.02488724 216.65920731 -33.31138641 217.48932831 -33.60656738 218.34460449 C-33.87702377 219.1097789 -34.14748016 219.87495331 -34.4261322 220.66331482 C-34.77896019 221.67277916 -34.77896019 221.67277916 -35.13891602 222.70263672 C-35.89073181 224.38768005 -35.89073181 224.38768005 -37.89073181 226.38768005 C-39.98474121 226.63491821 -39.98474121 226.63491821 -42.59996033 226.63059998 C-43.57759842 226.63367661 -44.55523651 226.63675323 -45.5625 226.6399231 C-46.62085556 226.63273758 -47.67921112 226.62555206 -48.76963806 226.6181488 C-49.85204269 226.61769058 -50.93444733 226.61723236 -52.0496521 226.61676025 C-54.34035843 226.61373564 -56.63106265 226.60584314 -58.92173767 226.5934906 C-62.44207484 226.5752379 -65.96214915 226.57298083 -69.48252869 226.57322693 C-71.7032341 226.5683118 -73.92393772 226.56248351 -76.14463806 226.5556488 C-77.20501785 226.55453598 -78.26539764 226.55342316 -79.35791016 226.55227661 C-80.33239609 226.54589676 -81.30688202 226.53951691 -82.31089783 226.53294373 C-83.17312454 226.52913193 -84.03535126 226.52532013 -84.92370605 226.52139282 C-86.89073181 226.38768005 -86.89073181 226.38768005 -87.89073181 225.38768005 C-87.82847467 219.26149347 -86.2595571 213.87611295 -83.96104431 208.26268005 C-83.65927277 207.49935364 -83.35750122 206.73602722 -83.04658508 205.9495697 C-82.04617154 203.42488947 -81.03077547 200.90650959 -80.01573181 198.38768005 C-79.29766173 196.5815451 -78.58089577 194.7748912 -77.86534119 192.96775818 C-76.73028074 190.1017913 -75.59432132 187.23621121 -74.45439148 184.37217712 C-70.43460948 174.27063194 -66.51019659 164.13277752 -62.59086609 153.9919281 C-60.57946198 148.78926254 -58.563373 143.58841443 -56.54698181 138.38768005 C-56.15235748 137.36976379 -55.75773315 136.35184753 -55.35115051 135.30308533 C-51.22616057 124.66708288 -47.07688861 114.04060255 -42.92451477 103.41526794 C-37.73712649 90.14010408 -32.5798086 76.85346721 -27.43293762 63.56254578 C-15.64957834 33.14016087 -15.64957834 33.14016087 -10.16914368 19.15965271 C-9.61471592 17.74411645 -9.06148555 16.32811053 -8.50953674 14.91160583 C-7.7637622 12.99863127 -7.01294234 11.08762585 -6.26182556 9.17674255 C-5.64198792 7.59433777 -5.64198792 7.59433777 -5.0096283 5.97996521 C-2.6643188 0.54629813 -2.6643188 0.54629813 0 0 Z M20.10926819 62.38768005 C19.84253296 63.09210236 19.57579773 63.79652466 19.30097961 64.52229309 C16.77197281 71.20065973 14.24206824 77.87868527 11.71118546 84.55634117 C10.41045129 87.98838108 9.11004975 91.4205462 7.81044006 94.85301208 C6.55336481 98.17309951 5.29537447 101.49283893 4.03678131 104.81235123 C3.32946848 106.67856515 2.62307398 108.54512705 1.91670227 110.41169739 C-0.37052324 116.44186964 -2.69522765 122.44340815 -5.19865417 128.3875885 C-6.05423187 130.50745144 -6.05423187 130.50745144 -5.89073181 133.38768005 C11.26926819 133.38768005 28.42926819 133.38768005 46.10926819 133.38768005 C45.35646059 129.62364208 44.52443135 126.50488269 43.22328186 122.94578552 C42.83585312 121.88052643 42.44842438 120.81526733 42.04925537 119.71772766 C41.62948929 118.57498383 41.20972321 117.43223999 40.77723694 116.25486755 C40.34421768 115.06724823 39.91119843 113.87962891 39.46505737 112.65602112 C38.31346473 109.49959524 37.15876569 106.34434201 36.0025177 103.18962097 C34.83957649 100.01438817 33.68061577 96.83770373 32.52137756 93.66111755 C30.81077674 88.97530773 29.09822278 84.29022204 27.38343811 79.60594177 C25.28396128 73.86945323 23.19421466 68.12946417 21.10926819 62.38768005 C20.77926819 62.38768005 20.44926819 62.38768005 20.10926819 62.38768005 Z " fill="#FFFFFF" transform="translate(308.89073181152344,0.6123199462890625)"/>
<path d="M0 0 C1.23536499 -0.00571014 2.47072998 -0.01142029 3.74353027 -0.01730347 C5.12516775 -0.01854895 6.50680533 -0.01967402 7.88844299 -0.02069092 C9.3336042 -0.0253167 10.77876419 -0.03034103 12.22392273 -0.03573608 C16.15982221 -0.04888427 20.09570462 -0.0553096 24.03162265 -0.05974674 C26.48784095 -0.06267325 28.94405453 -0.06677722 31.40027046 -0.07125092 C39.07720241 -0.0849315 46.75412364 -0.09459571 54.43106693 -0.09845281 C63.30803348 -0.10293672 72.1848463 -0.12049764 81.06176609 -0.1494534 C87.9135687 -0.17103155 94.76532794 -0.18115499 101.61716419 -0.18249393 C105.71410939 -0.18354464 109.81091018 -0.18950864 113.90781975 -0.20731354 C117.75981739 -0.2237279 121.61156105 -0.22598237 125.46358109 -0.21717453 C126.88018661 -0.2164006 128.29680543 -0.2207934 129.713377 -0.23063278 C131.64155942 -0.24324409 133.56984272 -0.23572353 135.49804688 -0.22705078 C136.57893302 -0.22851734 137.65981916 -0.2299839 138.77345943 -0.2314949 C140.03029207 -0.04738619 140.03029207 -0.04738619 141.31251526 0.14044189 C143.91307028 4.04127442 143.60025511 7.33521875 143.57814026 11.85919189 C143.58005371 12.71347778 143.58196716 13.56776367 143.5839386 14.44793701 C143.58529913 16.253482 143.5816119 18.05903681 143.57325745 19.86456299 C143.56255597 22.629923 143.5731571 25.39463337 143.58595276 28.15997314 C143.58463114 29.91388083 143.5820687 31.66778811 143.57814026 33.42169189 C143.58218872 34.24987427 143.58623718 35.07805664 143.59040833 35.93133545 C143.55840648 39.8445574 143.53184765 41.8114433 141.31251526 45.14044189 C138.17247813 45.42643535 135.23062833 45.51828351 132.08937073 45.48101807 C130.65515778 45.48167519 130.65515778 45.48167519 129.19197083 45.48234558 C126.02100947 45.48024996 122.85057213 45.45688234 119.67970276 45.43341064 C117.48537993 45.42781745 115.29105337 45.42354605 113.09672546 45.42054749 C107.31308197 45.40907701 101.52966344 45.37959082 95.74610901 45.34643555 C88.81118418 45.31039544 81.87618425 45.29658402 74.94119263 45.27907562 C64.39814356 45.24995488 53.85558841 45.19248266 43.31251526 45.14044189 C43.31251526 59.99044189 43.31251526 74.84044189 43.31251526 90.14044189 C64.43251526 90.14044189 85.55251526 90.14044189 107.31251526 90.14044189 C108.96927899 93.45396935 108.4756377 97.15384551 108.48048401 100.79669189 C108.48547661 102.08380066 108.48547661 102.08380066 108.49057007 103.39691162 C108.49563664 105.21262068 108.49797848 107.02833906 108.49781799 108.84405518 C108.50000643 111.62920359 108.51817015 114.41395725 108.53712463 117.19903564 C108.54005816 118.96075303 108.54204323 120.72247231 108.54298401 122.48419189 C108.55016953 123.32067261 108.55735504 124.15715332 108.5647583 125.01898193 C108.54134137 130.91161578 108.54134137 130.91161578 106.31251526 133.14044189 C103.68028259 133.38095093 103.68028259 133.38095093 100.30226135 133.36749268 C98.41052689 133.36726608 98.41052689 133.36726608 96.48057556 133.36703491 C95.09903304 133.35682087 93.71749211 133.34638887 92.33595276 133.33575439 C90.92633769 133.33202477 89.51672003 133.32917756 88.10710144 133.32717896 C84.39492144 133.31953844 80.68289765 133.29988651 76.97077942 133.277771 C72.51796192 133.25372681 68.06509222 133.24453356 63.61222839 133.23286438 C56.84554866 133.21346219 50.07921177 133.1751429 43.31251526 133.14044189 C43.31251526 148.65044189 43.31251526 164.16044189 43.31251526 180.14044189 C50.36368713 180.10563721 57.41485901 180.07083252 64.67970276 180.03497314 C69.13674225 180.01965136 73.59374944 180.00520998 78.05079651 179.99395752 C85.13110567 179.97599782 92.21129886 179.95471218 99.29151917 179.91412354 C104.99733377 179.88161722 110.70302408 179.86360731 116.4089241 179.85581017 C118.58992089 179.85025093 120.77091059 179.83939571 122.95185471 179.82325172 C125.99784498 179.80159352 129.04331632 179.7984701 132.08937073 179.79986572 C132.99855255 179.7890799 133.90773438 179.77829407 134.84446716 179.7671814 C137.35154724 179.77967834 137.35154724 179.77967834 141.31251526 180.14044189 C143.91307028 184.04127442 143.60025511 187.33521875 143.57814026 191.85919189 C143.58005371 192.71347778 143.58196716 193.56776367 143.5839386 194.44793701 C143.58529913 196.253482 143.5816119 198.05903681 143.57325745 199.86456299 C143.56255597 202.629923 143.5731571 205.39463337 143.58595276 208.15997314 C143.58463114 209.91388083 143.5820687 211.66778811 143.57814026 213.42169189 C143.58218872 214.24987427 143.58623718 215.07805664 143.59040833 215.93133545 C143.55840648 219.8445574 143.53184765 221.8114433 141.31251526 225.14044189 C138.77345943 225.51237869 138.77345943 225.51237869 135.49804688 225.50793457 C134.25986206 225.51350372 133.02167725 225.51907288 131.74597168 225.52481079 C130.36637689 225.51578753 128.98678401 225.50646972 127.60719299 225.49688721 C126.1602618 225.4976777 124.71333082 225.4997738 123.2664032 225.50308228 C119.33052883 225.50822707 115.39491482 225.49466014 111.45908237 225.47755527 C107.34757531 225.46255073 103.23607208 225.46369407 99.12454224 225.46289062 C92.2201135 225.45919524 85.31578401 225.44421344 78.41139221 225.42169189 C69.53767622 225.39280634 60.66404015 225.3824682 51.79028225 225.3780098 C44.17521406 225.37403518 36.56016338 225.36153282 28.9451077 225.34766293 C26.49037735 225.34355731 24.03564763 225.34063507 21.58091545 225.33786774 C17.7306021 225.33298668 13.88033762 225.32280359 10.03004837 225.30842972 C8.61303333 225.30389403 7.19601171 225.30106507 5.77898979 225.30002213 C3.85265008 225.29828562 1.92631992 225.28978769 0 225.28088379 C-1.08050912 225.27790913 -2.16101824 225.27493446 -3.27427006 225.27186966 C-5.68748474 225.14044189 -5.68748474 225.14044189 -6.68748474 224.14044189 C-6.78764474 221.2727845 -6.82187282 218.42913613 -6.81446838 215.56097412 C-6.81602837 214.65019309 -6.81758837 213.73941205 -6.81919563 212.80103159 C-6.82320976 209.72469916 -6.82001439 206.64841539 -6.81687927 203.57208252 C-6.81823313 201.37654084 -6.82001297 199.18099939 -6.82218933 196.98545837 C-6.82676551 191.00423061 -6.82497335 185.02302 -6.82181025 179.04179192 C-6.81928759 172.79753445 -6.82162392 166.55327851 -6.82319641 160.309021 C-6.82513526 149.14788908 -6.82201748 137.9867635 -6.81693707 126.82563311 C-6.81246903 116.69602772 -6.81324496 106.56643379 -6.81785583 96.43682861 C-6.82320154 84.68728732 -6.82520247 72.93775161 -6.82224357 61.18820906 C-6.82068036 54.96356907 -6.82048823 48.73893698 -6.82378006 42.51429749 C-6.82665763 36.66378298 -6.8246852 30.81329023 -6.8188858 24.96277809 C-6.81755759 22.80882109 -6.81795335 20.65486228 -6.82014847 18.50090599 C-6.82285757 15.57388206 -6.8194818 12.64692901 -6.81446838 9.71990967 C-6.81669911 8.85582316 -6.81892983 7.99173665 -6.82122815 7.1014657 C-6.79854412 0.33238014 -6.69088118 0.01842013 0 0 Z " fill="#FFFFFF" transform="translate(1121.687484741211,1.85955810546875)"/>
<path d="M0 0 C23.43 0 46.86 0 71 0 C72.21667231 2.43334463 72.1284505 3.98814815 72.13371277 6.70819092 C72.14011024 8.19969414 72.14011024 8.19969414 72.14663696 9.72132874 C72.14618378 10.81714767 72.14573059 11.91296661 72.14526367 13.04199219 C72.14862228 14.19378464 72.1519809 15.34557709 72.15544128 16.53227234 C72.16499506 20.37048404 72.16689825 24.20865212 72.16796875 28.046875 C72.17037054 30.05095691 72.17277423 32.05503883 72.17542917 34.05912042 C72.183592 40.39081654 72.18601271 46.72249844 72.18530273 53.05419922 C72.18470956 59.50771878 72.19510222 65.96115266 72.2110464 72.41465068 C72.22433351 77.99898174 72.2294776 83.58328569 72.22884732 89.16763234 C72.2285973 92.48184492 72.23214316 95.79592375 72.24202538 99.11013031 C72.27992541 113.16445779 72.01251713 127.14592877 71.09887695 141.16894531 C71.01972896 142.39228451 70.94058096 143.6156237 70.85903454 144.87603378 C69.23851756 167.50362774 64.16256231 191.81990995 47 208 C32.5054949 220.10775984 13.65547626 225.37641862 -5 226 C-6.17304687 226.0515625 -7.34609375 226.103125 -8.5546875 226.15625 C-28.68151582 226.63451127 -46.63720037 222.47069596 -64 212 C-65 211 -65 211 -65.18115234 207.91333008 C-64.99337472 203.85687798 -64.22404301 200.25940997 -63.1015625 196.38671875 C-62.80903091 195.34328056 -62.80903091 195.34328056 -62.5105896 194.27876282 C-62.09967716 192.82123124 -61.68429987 191.36495163 -61.26464844 189.90991211 C-60.62269799 187.67950182 -59.99791692 185.44477618 -59.375 183.20898438 C-58.97235905 181.78877722 -58.56874755 180.36884479 -58.1640625 178.94921875 C-57.88425034 177.94770027 -57.88425034 177.94770027 -57.5987854 176.9259491 C-56.74181934 173.98466726 -56.20237604 172.20237604 -54 170 C-49.26258894 170.1029872 -45.64445032 171.49573977 -41.3125 173.375 C-28.14830004 178.99585271 -12.07945212 182.25373395 1.859375 177.0859375 C9.13864545 173.39316891 13.15582831 168.39739153 15.88798523 160.73298645 C20.26735939 146.03161302 20.46440201 130.79553959 20.51171875 115.58203125 C20.52861513 113.50167315 20.54677177 111.42132494 20.56611633 109.34098816 C20.61308495 103.9342051 20.64323485 98.52746215 20.66955566 93.12054443 C20.69963328 87.57572505 20.74606813 82.03104338 20.79101562 76.48632812 C20.87644204 65.65762493 20.94405299 54.8288929 21 44 C20.40461426 44.01571045 19.80922852 44.0314209 19.19580078 44.04760742 C16.50562997 44.10985801 13.81561043 44.14895783 11.125 44.1875 C9.71927734 44.22520508 9.71927734 44.22520508 8.28515625 44.26367188 C7.38925781 44.27333984 6.49335937 44.28300781 5.5703125 44.29296875 C4.32918701 44.31653442 4.32918701 44.31653442 3.06298828 44.34057617 C2.04180908 44.17199097 2.04180908 44.17199097 1 44 C-1.60876023 40.08685966 -1.26967935 36.78251575 -1.23046875 32.24609375 C-1.23001053 31.38943619 -1.22955231 30.53277863 -1.2290802 29.65016174 C-1.22606053 27.84040948 -1.21818273 26.03065976 -1.20581055 24.22094727 C-1.18754757 21.44473101 -1.18530095 18.66884819 -1.18554688 15.89257812 C-1.1806318 14.13541377 -1.17480353 12.37825169 -1.16796875 10.62109375 C-1.16685593 9.78775009 -1.1657431 8.95440643 -1.16459656 8.09580994 C-1.11607452 2.23214903 -1.11607452 2.23214903 0 0 Z " fill="#FFFFFF" transform="translate(65,2)"/>
<path d="M0 0 C7.11349006 0.53565919 13.24448621 2.63261946 19.91796875 5.078125 C21.05220779 5.48657654 22.18644684 5.89502808 23.35505676 6.31585693 C26.96872696 7.61949025 30.57805742 8.93471305 34.1875 10.25 C36.59413705 11.11922086 39.00103578 11.98771755 41.40820312 12.85546875 C50.26005202 16.05428002 59.10613532 19.25725128 67.88838196 22.64349365 C69.03887181 23.08683926 70.18936167 23.53018486 71.37471485 23.98696518 C72.674231 24.48841742 72.674231 24.48841742 74 25 C74.02332758 44.54029795 74.04097848 64.08059309 74.05181217 83.62090206 C74.05697543 92.69315493 74.06401869 101.76539916 74.07543945 110.83764648 C74.08538538 118.74208712 74.09185321 126.64652151 74.09408849 134.55096823 C74.09539576 138.73894719 74.09848259 142.92690827 74.10573006 147.11488152 C74.11248884 151.05215298 74.11461725 154.98939908 74.11310768 158.9266758 C74.11338407 160.37594617 74.11539004 161.82521735 74.11920547 163.27448273 C74.12414043 165.24470414 74.12239809 167.21493898 74.12025452 169.18516541 C74.12117631 170.29039519 74.1220981 171.39562498 74.12304783 172.53434658 C74 175 74 175 73 176 C70.50724573 176.35289309 68.02995961 176.64579338 65.52675724 176.90391636 C64.73097858 176.98948889 63.93519993 177.07506142 63.11530676 177.16322705 C60.4147107 177.45251931 57.71348309 177.73543462 55.01222229 178.01844788 C53.06996345 178.22517364 51.12774583 178.43228691 49.18556637 178.6397571 C43.82196356 179.21156542 38.45778636 179.7778195 33.09350431 180.34321511 C27.31872266 180.95284079 21.5444807 181.56753795 15.77017212 182.18162537 C4.44749202 183.3849602 -6.87568133 184.583592 -18.19902044 185.7807079 C-31.37127029 187.17348958 -44.54301032 188.57106409 -57.71472443 189.96890169 C-81.20892849 192.46213819 -104.70358221 194.951114 -128.19848633 197.43774414 C-151.0229827 199.85342405 -173.84721817 202.27154872 -196.67114258 204.69262695 C-197.7256466 204.80448386 -197.7256466 204.80448386 -198.80145373 204.9186005 C-202.34218338 205.29418519 -205.88291257 205.66977417 -209.42364157 206.045365 C-210.47162131 206.15653181 -210.47162131 206.15653181 -211.54077237 206.26994441 C-212.94952998 206.41938211 -214.35828749 206.56882071 -215.76704491 206.71826022 C-239.49420964 209.23520242 -263.22158962 211.75011404 -286.94900632 214.26467967 C-292.20652653 214.82186434 -297.46403768 215.37913442 -302.72154117 215.93647695 C-316.54040992 217.40137365 -330.35934338 218.86565474 -344.17848211 220.32800276 C-349.8961186 220.93305201 -355.61372041 221.53842383 -361.33122826 222.14468765 C-366.55740784 222.69883628 -371.78368881 223.25201781 -377.01005567 223.80439728 C-378.90847233 224.00521287 -380.80685122 224.20638584 -382.70518988 224.40793753 C-385.27033127 224.68022906 -387.83560383 224.95124862 -390.4009161 225.22192478 C-391.52607634 225.34182192 -391.52607634 225.34182192 -392.67396709 225.46414122 C-397.77167002 226 -397.77167002 226 -400 226 C-399.96447021 226.9286084 -399.92894043 227.8572168 -399.89233398 228.81396484 C-399.76323726 232.25410148 -399.63890516 235.69434125 -399.51782227 239.13476562 C-399.46439997 240.62474442 -399.40907038 242.11465609 -399.35180664 243.60449219 C-399.26990164 245.74399337 -399.19482291 247.88364093 -399.12109375 250.0234375 C-399.05039673 251.95582275 -399.05039673 251.95582275 -398.97827148 253.92724609 C-399 257 -399 257 -400 259 C-407.62206783 258.48530578 -414.29453473 256.00410152 -421.44140625 253.4140625 C-422.73576357 252.95119869 -424.0303594 252.48900137 -425.32518005 252.0274353 C-428.02743427 251.06231262 -430.72771655 250.09193483 -433.42651367 249.1171875 C-436.86901377 247.87387027 -440.31466635 246.63960601 -443.76164341 245.40876198 C-447.07265703 244.22607313 -450.38210854 243.03904247 -453.69140625 241.8515625 C-455.53539757 241.19046982 -455.53539757 241.19046982 -457.41664124 240.51602173 C-458.57151535 240.09904022 -459.72638947 239.68205872 -460.91625977 239.25244141 C-461.92471451 238.8890567 -462.93316925 238.525672 -463.97218323 238.15127563 C-467.35369419 236.86551382 -470.67480311 235.42508438 -474 234 C-474 184.5 -474 135 -474 84 C-471.1147186 82.5573593 -468.10456265 82.47918758 -464.9348259 82.15131569 C-464.19524493 82.07170707 -463.45566397 81.99209845 -462.69367146 81.91007745 C-460.18994085 81.64155073 -457.68565246 81.37862867 -455.18133545 81.1156311 C-453.37779292 80.92337271 -451.57428675 80.73077294 -449.77081418 80.53785932 C-444.79412445 80.00652477 -439.8169278 79.4800772 -434.83963871 78.954391 C-429.47815205 78.38727674 -424.11714205 77.8156902 -418.756073 77.24464417 C-408.23756784 76.12495803 -397.718627 75.00941636 -387.19954035 73.8952079 C-374.93319327 72.59575038 -362.66729757 71.29205654 -350.40142384 69.98813979 C-327.82320346 67.5881098 -305.24456408 65.19204324 -282.66571528 62.79793317 C-262.10893277 60.61821443 -241.55239119 58.4362427 -220.99609375 56.25195312 C-219.69332925 56.11352327 -218.39056474 55.97509341 -217.04832253 55.8324687 C-211.81019951 55.27586875 -206.57207689 54.71926503 -201.33395509 54.1626536 C-179.84604711 51.8793761 -158.35795378 49.59784385 -136.86983585 47.3165431 C-131.98942109 46.79840454 -127.10901409 46.28019294 -122.22861385 45.76191759 C-109.37882975 44.39735611 -96.52898562 43.0333642 -83.67896721 41.67101075 C-78.36899162 41.10804469 -73.05904353 40.54482321 -67.74917984 39.98080254 C-45.17291392 37.58295787 -22.59485177 35.2168837 0 33 C-0.04022026 31.93903107 -0.08044052 30.87806213 -0.12187958 29.78494263 C-0.24675113 26.47851994 -0.36580017 23.17196253 -0.48217773 19.86523438 C-0.53560003 18.37525558 -0.59092962 16.88534391 -0.64819336 15.39550781 C-0.73009836 13.25600663 -0.80517709 11.11635907 -0.87890625 8.9765625 C-0.9260376 7.68830566 -0.97316895 6.40004883 -1.02172852 5.07275391 C-1 2 -1 2 0 0 Z M5 8 C5 16.25 5 24.5 5 33 C10.31651408 32.47014906 15.63272689 31.93813275 20.94848633 31.40087891 C22.75109783 31.21931629 24.55382984 31.03894547 26.35668945 30.85986328 C36.62314665 29.83920467 46.82483661 28.73338218 57 27 C54.78076641 24.78076641 53.33146252 24.24863357 50.3984375 23.21240234 C49.44404785 22.87220062 48.4896582 22.5319989 47.50634766 22.18148804 C45.95633057 21.63919052 45.95633057 21.63919052 44.375 21.0859375 C43.31716309 20.71143463 42.25932617 20.33693176 41.16943359 19.95108032 C38.93097522 19.15997152 36.69152455 18.37166577 34.45117188 17.5859375 C31.01189177 16.37917255 27.5760608 15.1629727 24.140625 13.9453125 C21.96894776 13.17912673 19.79707909 12.41348329 17.625 11.6484375 C16.59165527 11.28285736 15.55831055 10.91727722 14.49365234 10.5406189 C13.5392627 10.2067215 12.58487305 9.8728241 11.6015625 9.52880859 C10.75932129 9.23283783 9.91708008 8.93686707 9.04931641 8.63192749 C7.03888934 7.90177707 7.03888934 7.90177707 5 8 Z M51.89293766 33.74569798 C51.12567453 33.82633111 50.35841141 33.90696425 49.56789789 33.99004081 C47.01091822 34.25991864 44.45471294 34.53652215 41.89845276 34.81312561 C40.04035778 35.01065658 38.18221843 35.20777055 36.32403892 35.40450472 C31.22660891 35.94540979 26.1298267 36.49221589 21.03313124 37.03999317 C15.52927426 37.63048077 10.02483355 38.21547916 4.52046204 38.80114746 C-5.02815363 39.81788349 -14.57639322 40.83809146 -24.12438774 41.86064339 C-38.00098428 43.34676016 -51.87814481 44.82755438 -65.75544525 46.30708199 C-88.36624891 48.71787304 -110.97660143 51.13286339 -133.58666992 53.55053711 C-155.38495052 55.88139544 -177.1834224 58.21045072 -198.98217773 60.53686523 C-199.64957754 60.60809253 -200.31697734 60.67931983 -201.00460138 60.75270553 C-209.04850499 61.61117677 -217.09241645 62.4695744 -225.1363309 63.32794404 C-237.64217693 64.66245301 -250.14800485 65.99713174 -262.65382385 67.33189392 C-263.93466178 67.46859814 -265.2154997 67.60530235 -266.53515089 67.74614912 C-284.03223386 69.61366267 -301.52919312 71.48233104 -319.02603058 73.35214343 C-322.59420833 73.73344958 -326.16239063 74.11471314 -329.73057431 74.49596387 C-339.9450944 75.58738203 -350.15959811 76.67895149 -360.37398968 77.77157192 C-379.81039877 79.85049053 -399.24703623 81.92662858 -418.68765559 83.9658554 C-421.1339413 84.22253955 -423.58018519 84.47961835 -426.02641374 84.73684663 C-427.57993359 84.90017534 -429.13345384 85.06350019 -430.68697453 85.22682095 C-431.43298954 85.30525874 -432.17900455 85.38369653 -432.94762607 85.46451123 C-437.20740959 85.91204681 -441.46750245 86.35646959 -445.72788373 86.79827675 C-448.82638228 87.12035405 -451.92445104 87.4465205 -455.02259827 87.7719574 C-456.11128444 87.88365056 -457.19997062 87.99534373 -458.32164729 88.11042154 C-459.30282822 88.21418025 -460.28400914 88.31793896 -461.29492283 88.42484188 C-462.13875226 88.51258371 -462.98258168 88.60032555 -463.8519817 88.69072622 C-466.17853298 88.96073216 -466.17853298 88.96073216 -469 90 C-469 134.88 -469 179.76 -469 226 C-462.64955244 226 -456.68832917 225.90873843 -450.43570423 225.21748066 C-449.6312042 225.13287158 -448.82670417 225.04826251 -447.99782535 224.96108952 C-445.32032585 224.67820911 -442.64369264 224.38785301 -439.96699524 224.0974884 C-438.02025454 223.8902369 -436.0734644 223.68344941 -434.12662953 223.47708434 C-428.78949569 222.90999424 -423.45308472 222.33634179 -418.11676991 221.76160276 C-412.35430147 221.14213479 -406.59118226 220.52877762 -400.82814026 219.91467285 C-390.83692778 218.84917436 -380.84613474 217.77981367 -370.85561562 216.70783424 C-356.35989688 215.15245781 -341.86355306 213.60296636 -327.36705317 212.05489036 C-303.77883715 209.53584299 -280.19114512 207.01192001 -256.60375977 204.48510742 C-233.80941883 202.04326241 -211.0148549 199.60351667 -188.2199707 197.16674805 C-187.52043122 197.09196651 -186.82089173 197.01718498 -186.10015407 196.94013734 C-178.37085867 196.11387008 -170.64155659 195.28766526 -162.91225111 194.46149218 C-149.16748648 192.99233412 -135.42274851 191.52292663 -121.67802429 190.0533905 C-121.01059134 189.98203162 -120.34315839 189.91067273 -119.65550019 189.83715145 C-99.4192175 187.67356837 -79.18309151 185.50852359 -58.94709778 183.34223938 C-57.09149253 183.14360147 -57.09149253 183.14360147 -55.1984003 182.94095068 C-43.54555459 181.69353891 -31.89271705 180.44605103 -20.23994152 179.19798378 C-17.10237883 178.86196992 -13.96480321 178.52607697 -10.82722604 178.1901983 C-6.82008633 177.7612123 -2.81300866 177.33165325 1.1940254 176.90168154 C10.46366512 175.90779368 19.73394088 174.92078242 29.0061821 173.95142752 C33.4071 173.49125352 37.8077803 173.02882781 42.20846144 172.5663959 C44.30521942 172.34681726 46.40210632 172.12846591 48.4991261 171.91140179 C51.3832043 171.61285512 54.26683393 171.3102802 57.15040302 171.00686169 C58.43538164 170.87557885 58.43538164 170.87557885 59.74631942 170.74164384 C62.97848827 170.39840842 65.9061346 170.03128847 69 169 C69 124.12 69 79.24 69 33 C63.15251767 33 57.65459467 33.11102008 51.89293766 33.74569798 Z M-411.37036133 226.44311523 C-412.2750264 226.5399913 -413.17969147 226.63686737 -414.11177063 226.73667908 C-415.09195663 226.84291092 -416.07214264 226.94914276 -417.08203125 227.05859375 C-418.08836105 227.1672023 -419.09469086 227.27581085 -420.1315155 227.38771057 C-422.26425286 227.61833231 -424.39692636 227.84954519 -426.52954102 228.08129883 C-429.78831774 228.43487622 -433.04746278 228.78490759 -436.30664062 229.13476562 C-438.37762783 229.35915671 -440.44859214 229.58375921 -442.51953125 229.80859375 C-443.49364456 229.91280136 -444.46775787 230.01700897 -445.47138977 230.12437439 C-446.38551132 230.22440262 -447.29963287 230.32443085 -448.24145508 230.42749023 C-449.04150467 230.51409409 -449.84155426 230.60069794 -450.66584778 230.68992615 C-453.13871644 231.01842739 -455.55960001 231.48566122 -458 232 C-455.37005745 233.75329503 -453.32313298 234.72316947 -450.39257812 235.78759766 C-449.46151245 236.12779938 -448.53044678 236.4680011 -447.57116699 236.81851196 C-446.56799438 237.18004364 -445.56482178 237.54157532 -444.53125 237.9140625 C-443.49939575 238.28856537 -442.4675415 238.66306824 -441.40441895 239.04891968 C-439.22297969 239.83931923 -437.04078913 240.62764782 -434.85791016 241.4140625 C-431.51093482 242.62105666 -428.16747557 243.83743697 -424.82421875 245.0546875 C-422.70593522 245.8208824 -420.58745222 246.58652613 -418.46875 247.3515625 C-417.46557739 247.71714264 -416.46240479 248.08272278 -415.42883301 248.4593811 C-414.49776733 248.7932785 -413.56670166 249.1271759 -412.60742188 249.47119141 C-411.78818237 249.76716217 -410.96894287 250.06313293 -410.12487793 250.36807251 C-407.89022013 251.14252803 -407.89022013 251.14252803 -405 251 C-405 242.75 -405 234.5 -405 226 C-407.15834221 226 -409.22371898 226.21219104 -411.37036133 226.44311523 Z " fill="#FFFFFF" transform="translate(977,316)"/>
<path d="M0 0 C1.98 0 3.96 0 6 0 C6 13.53 6 27.06 6 41 C-1 41 -1 41 -3.3359375 39.19921875 C-4.34527344 37.95591797 -4.34527344 37.95591797 -5.375 36.6875 C-6.12523437 35.78515625 -6.87546875 34.8828125 -7.6484375 33.953125 C-8.42445313 32.97859375 -9.20046875 32.0040625 -10 31 C-10.83789062 29.98421875 -11.67578125 28.9684375 -12.5390625 27.921875 C-14.11865156 26.00630985 -15.68975073 24.08369397 -17.25 22.15234375 C-18.82177538 20.14403815 -18.82177538 20.14403815 -20 19 C-20.33 27.25 -20.66 35.5 -21 44 C-23.31 44 -25.62 44 -28 44 C-28 30.47 -28 16.94 -28 3 C-22 3 -22 3 -19.54296875 5.01953125 C-18.76566406 5.94121094 -17.98835937 6.86289062 -17.1875 7.8125 C-16.33671875 8.80636719 -15.4859375 9.80023438 -14.609375 10.82421875 C-13.73764049 11.88121318 -12.86786034 12.93982233 -12 14 C-11.13035093 15.0482954 -10.26056145 16.09647433 -9.390625 17.14453125 C-7.82263132 19.04959364 -6.26315011 20.96171533 -4.71484375 22.8828125 C-3.17273924 24.86206774 -3.17273924 24.86206774 -2 26 C-1.97494385 25.2479126 -1.9498877 24.4958252 -1.92407227 23.72094727 C-1.80849486 20.33460804 -1.68559655 16.94857387 -1.5625 13.5625 C-1.52318359 12.37849609 -1.48386719 11.19449219 -1.44335938 9.97460938 C-1.40146484 8.84990234 -1.35957031 7.72519531 -1.31640625 6.56640625 C-1.27974854 5.52427979 -1.24309082 4.48215332 -1.20532227 3.40844727 C-1 1 -1 1 0 0 Z " fill="#FFFFFF" transform="translate(759,425)"/>
<path d="M0 0 C2.31 0 4.62 0 7 0 C7 13.2 7 26.4 7 40 C4.03 40.495 4.03 40.495 1 41 C-1.32188686 39.10224448 -2.98665105 37.45544309 -4.875 35.1875 C-5.39094727 34.59815674 -5.90689453 34.00881348 -6.43847656 33.40161133 C-7.984322 31.62081085 -9.49731115 29.81729863 -11 28 C-11.43795898 27.47148437 -11.87591797 26.94296875 -12.32714844 26.3984375 C-14.60117619 23.63414601 -16.80475962 20.8284828 -19 18 C-19.33 26.25 -19.66 34.5 -20 43 C-23.465 43.495 -23.465 43.495 -27 44 C-27 30.47 -27 16.94 -27 3 C-20 3 -20 3 -18.10717773 4.26586914 C-17.63739502 4.84973389 -17.1676123 5.43359863 -16.68359375 6.03515625 C-16.14669922 6.68033203 -15.60980469 7.32550781 -15.05664062 7.99023438 C-14.52232422 8.67408203 -13.98800781 9.35792969 -13.4375 10.0625 C-12.89931641 10.71927734 -12.36113281 11.37605469 -11.80664062 12.05273438 C-10.78263284 13.30347794 -9.76700503 14.56117381 -8.76342773 15.82836914 C-6.23852896 18.93773846 -3.60668483 21.9588677 -1 25 C-0.67 16.75 -0.34 8.5 0 0 Z " fill="#FFFFFF" transform="translate(1000,399)"/>
<path d="M0 0 C2.5 2.125 2.5 2.125 4.5 4.125 C4.18134222 7.41779709 2.95484649 8.99035088 0.5 11.125 C-0.49 10.795 -1.48 10.465 -2.5 10.125 C-2.5 9.465 -2.5 8.805 -2.5 8.125 C-7.18082262 6.56472579 -11.63208984 6.67832583 -16.375 7.8125 C-19.15659901 9.53054645 -19.59559541 11.03495099 -20.5 14.125 C-20.83 15.115 -21.16 16.105 -21.5 17.125 C-22.03756448 22.82318352 -21.10129241 25.67634467 -17.5 30.125 C-14.39046621 31.6797669 -11.93733239 31.41144437 -8.5 31.125 C-4.59387835 29.06138856 -2.01396635 27.36410579 -0.5 23.125 C-4.46 23.62 -4.46 23.62 -8.5 24.125 C-8.5 21.815 -8.5 19.505 -8.5 17.125 C-3.88 16.795 0.74 16.465 5.5 16.125 C5.5 23.385 5.5 30.645 5.5 38.125 C3.52 38.125 1.54 38.125 -0.5 38.125 C-0.83 37.465 -1.16 36.805 -1.5 36.125 C-1.99628906 36.41375 -2.49257813 36.7025 -3.00390625 37 C-7.67770119 39.55418016 -11.05887668 40.90230333 -16.5 40.125 C-22.31731237 38.17494049 -25.56068291 35.65091613 -28.5 30.125 C-30.5996038 23.8261886 -30.71060109 15.80254343 -27.9375 9.6875 C-25.0614211 4.86343859 -20.96293095 1.58944543 -16.1875 -1.25 C-10.37381127 -2.60202063 -5.32632912 -2.8533906 0 0 Z " fill="#FFFFFF" transform="translate(907.5,411.875)"/>
<path d="M0 0 C5.11426169 4.85854861 7.62243421 9.47756929 7.8125 16.5 C7.72620068 23.03285857 6.32296578 28.32279106 1.81640625 33.1953125 C-3.85110445 38.24122525 -8.12455696 39.85626004 -15.7421875 39.68359375 C-20.06165336 39.20025409 -22.07527738 38.10079964 -25.5 35.375 C-29.92496823 29.42091431 -31.2707038 23.62408355 -30.5 16.375 C-28.67088608 8.72068251 -25.02338523 3.75517858 -18.5 -0.625 C-12.47662369 -2.6327921 -5.76053591 -2.67453453 0 0 Z M-21.5 12.375 C-23.24327473 16.77591414 -24.12690352 20.74100242 -22.375 25.25 C-20.03060231 29.15732948 -18.35207942 30.69265495 -14.125 32.25 C-10.42048721 32.42640537 -8.60342028 31.37929227 -5.5 29.375 C-2.27214062 26.29060103 -0.28027736 23.7630114 0.5 19.375 C0.5 14.96832207 -0.03495399 12.99040082 -2.5 9.375 C-4.98824978 6.88675022 -6.5180801 5.54683598 -10 4.9375 C-14.78851634 5.77549036 -18.58523773 8.55565633 -21.5 12.375 Z " fill="#FFFFFF" transform="translate(619.5,443.625)"/>
<path d="M0 0 C0 13.53 0 27.06 0 41 C-3.465 41.495 -3.465 41.495 -7 42 C-7 36.39 -7 30.78 -7 25 C-16.405 25.99 -16.405 25.99 -26 27 C-26 32.61 -26 38.22 -26 44 C-29.465 44.495 -29.465 44.495 -33 45 C-33 31.47 -33 17.94 -33 4 C-29.535 3.505 -29.535 3.505 -26 3 C-26 8.28 -26 13.56 -26 19 C-19.73 18.34 -13.46 17.68 -7 17 C-7 11.72 -7 6.44 -7 1 C-3 0 -3 0 0 0 Z " fill="#FFFFFF" transform="translate(816,419)"/>
<path d="M0 0 C0.04241723 2.33294775 0.04092937 4.66702567 0 7 C-2.73929377 9.73929377 -9.96530365 8.9757256 -13.6640625 9.0625 C-15.77614442 9.0625 -17.88819275 9.03406141 -20 9 C-20 11.97 -20 14.94 -20 18 C-11.585 17.505 -11.585 17.505 -3 17 C-3 19.31 -3 21.62 -3 24 C-8.61 24.66 -14.22 25.32 -20 26 C-20 28.97 -20 31.94 -20 35 C-13.4 34.34 -6.8 33.68 0 33 C0 35.64 0 38.28 0 41 C-8.91 41.99 -17.82 42.98 -27 44 C-27 30.47 -27 16.94 -27 3 C-24.81785052 1.90892526 -23.27673119 1.71893197 -20.859375 1.46484375 C-20.03566406 1.37783203 -19.21195313 1.29082031 -18.36328125 1.20117188 C-17.06970703 1.0706543 -17.06970703 1.0706543 -15.75 0.9375 C-14.47962891 0.80118164 -14.47962891 0.80118164 -13.18359375 0.66210938 C-8.76791588 0.20543351 -4.44635456 -0.10897928 0 0 Z " fill="#FFFFFF" transform="translate(957,404)"/>
<path d="M0 0 C0 2.64 0 5.28 0 8 C-9.405 8.99 -9.405 8.99 -19 10 C-19 12.97 -19 15.94 -19 19 C-18.10796875 18.855625 -17.2159375 18.71125 -16.296875 18.5625 C-15.12640625 18.376875 -13.9559375 18.19125 -12.75 18 C-11.58984375 17.814375 -10.4296875 17.62875 -9.234375 17.4375 C-6 17 -6 17 -2 17 C-2 19.31 -2 21.62 -2 24 C-3.89492006 24.33848652 -5.79098466 24.67056911 -7.6875 25 C-8.74324219 25.185625 -9.79898438 25.37125 -10.88671875 25.5625 C-14 26 -14 26 -19 26 C-19 29.3 -19 32.6 -19 36 C-18.2265625 35.855625 -17.453125 35.71125 -16.65625 35.5625 C-10.67176085 34.49595738 -5.07662565 33.76628363 1 34 C1 36.31 1 38.62 1 41 C-8.0509528 42.73603005 -16.71534826 43.38102322 -26 44 C-26 30.47 -26 16.94 -26 3 C-22.08125 2.505 -18.1625 2.01 -14.125 1.5 C-12.89023926 1.34337891 -11.65547852 1.18675781 -10.38330078 1.02539062 C-8.92899658 0.84266602 -8.92899658 0.84266602 -7.4453125 0.65625 C-6.45031738 0.53056641 -5.45532227 0.40488281 -4.43017578 0.27539062 C-2 0 -2 0 0 0 Z " fill="#FFFFFF" transform="translate(714,430)"/>
<path d="M0 0 C3.18262884 2.66452647 4.43996257 4.50572464 5.0234375 8.6171875 C5.11298332 14.36602943 4.6359305 17.75317637 0.6875 22.25 C-2.52857236 25.15161195 -5.18182004 25.82581136 -9.4375 26.4375 C-10.49195313 26.59605469 -11.54640625 26.75460937 -12.6328125 26.91796875 C-15.3125 27.25 -15.3125 27.25 -17.3125 27.25 C-17.3125 31.54 -17.3125 35.83 -17.3125 40.25 C-20.7775 40.745 -20.7775 40.745 -24.3125 41.25 C-24.3125 27.72 -24.3125 14.19 -24.3125 0.25 C-4.80245984 -2.53714859 -4.80245984 -2.53714859 0 0 Z M-17.3125 7.25 C-17.3125 11.21 -17.3125 15.17 -17.3125 19.25 C-12.8115948 19.42650609 -9.30220779 19.46650433 -5.3125 17.25 C-3.34151574 15.5390789 -3.34151574 15.5390789 -2.3125 13.25 C-2.55324022 9.87963689 -2.90048021 8.66201979 -5.3125 6.25 C-7.41999466 5.96917656 -7.41999466 5.96917656 -9.75 6.0625 C-10.53246094 6.06894531 -11.31492187 6.07539063 -12.12109375 6.08203125 C-14.49049677 6.17444331 -14.49049677 6.17444331 -17.3125 7.25 Z " fill="#FFFFFF" transform="translate(667.3125,437.75)"/>
<path d="M0 0 C0.34780518 0.84183838 0.69561035 1.68367676 1.05395508 2.55102539 C2.35632571 5.70270592 3.65910692 8.85421609 4.9621582 12.00561523 C5.52384389 13.36427213 6.08537038 14.72299485 6.64672852 16.08178711 C7.45806735 18.04558769 8.26999661 20.0091433 9.08203125 21.97265625 C9.56905518 23.15093994 10.0560791 24.32922363 10.55786133 25.54321289 C11.30015062 27.3224704 12.04621878 29.10091906 12.84896851 30.85372925 C14.38273007 34.23166653 15 36.20803499 15 40 C12.36 40 9.72 40 7 40 C4 33.375 4 33.375 4 30 C3.34 30.33 2.68 30.66 2 31 C-0.204364 31.22950319 -2.41392173 31.41075933 -4.625 31.5625 C-5.81351563 31.64628906 -7.00203125 31.73007812 -8.2265625 31.81640625 C-9.14179687 31.87699219 -10.05703125 31.93757813 -11 32 C-11.13277344 32.62648438 -11.26554688 33.25296875 -11.40234375 33.8984375 C-11.57894531 34.71570313 -11.75554688 35.53296875 -11.9375 36.375 C-12.11152344 37.18710937 -12.28554688 37.99921875 -12.46484375 38.8359375 C-13 41 -13 41 -14 43 C-16.64860427 43.59355614 -19.29197322 43.74209269 -22 44 C-21.33948021 38.81718312 -19.80949843 34.22835646 -18.015625 29.35546875 C-17.71815369 28.54507645 -17.42068237 27.73468414 -17.11419678 26.8997345 C-16.48528831 25.19668889 -15.85308486 23.49485685 -15.21777344 21.79418945 C-14.24904873 19.18493776 -13.30825329 16.56659811 -12.3671875 13.94726562 C-11.75170485 12.29103212 -11.13457417 10.63540991 -10.515625 8.98046875 C-10.23833557 8.19512253 -9.96104614 7.40977631 -9.675354 6.60063171 C-8.83691406 4.41479492 -8.83691406 4.41479492 -7 1 C-4.40023356 -0.00071928 -2.73054571 0 0 0 Z M-4 12 C-4.67057887 13.7902061 -5.3363469 15.58221489 -6 17.375 C-6.37125 18.37273437 -6.7425 19.37046875 -7.125 20.3984375 C-8.10626277 22.85848061 -8.10626277 22.85848061 -8 25 C-3.545 24.505 -3.545 24.505 1 24 C0.45660208 19.43545749 -0.79463821 16.0271824 -3 12 C-3.33 12 -3.66 12 -4 12 Z " fill="#FFFFFF" transform="translate(852,415)"/>
<path d="M0 0 C1.54300781 -0.03867187 1.54300781 -0.03867187 3.1171875 -0.078125 C6.5642797 0.29792142 8.36092829 1.18898486 11.125 3.25 C13.125 6.25 13.125 6.25 13.0625 8.25 C11.7445169 11.06169728 9.82896986 11.86334879 7.125 13.25 C6.568125 12.610625 6.01125 11.97125 5.4375 11.3125 C2.78038046 8.94263663 1.66664459 8.33236383 -1.875 8.25 C-6.16095664 9.45307555 -8.92628431 10.74297955 -11.3125 14.5 C-13.10549629 18.1632769 -13.40379326 21.1707377 -12.875 25.25 C-11.24034368 28.84624391 -9.44592133 31.46453934 -5.875 33.25 C-0.580978 33.15374505 2.33939221 31.92426639 6.125 28.25 C6.455 27.59 6.785 26.93 7.125 26.25 C10.0625 27.0625 10.0625 27.0625 13.125 28.25 C13.62 29.735 13.62 29.735 14.125 31.25 C11.36583995 35.97385379 7.32706945 39.61231147 2.125 41.25 C-3.40490154 41.85935554 -8.16483369 41.99625439 -13.3125 39.75 C-18.71486864 34.47939645 -21.17795648 30.47365726 -21.4375 22.75 C-21.12497477 15.81033727 -19.78530007 11.25399183 -14.93359375 6.24609375 C-10.00014528 1.74875122 -6.77220009 0.10132968 0 0 Z " fill="#FFFFFF" transform="translate(562.875,446.75)"/>
</svg>
