<?xml version="1.0" encoding="utf-8"?>
<!-- Generator: Adobe Illustrator 27.6.1, SVG Export Plug-In . SVG Version: 6.00 Build 0)  -->
<svg version="1.1" id="Layer_1" xmlns="http://www.w3.org/2000/svg" xmlns:xlink="http://www.w3.org/1999/xlink" x="0px" y="0px"
	 viewBox="0 0 100 60" style="enable-background:new 0 0 100 60;" xml:space="preserve">
<style type="text/css">
	.st0{fill:#FFFFFF;}
</style>
<g>
	<g>
		<path class="st0" d="M0.7,35.7V24h3.7l1.7,4.8c0.5,1.4,0.9,2.5,1.1,3.3h0.1c0.2-0.8,0.6-1.9,1.1-3.3l1.7-4.8h3.7v11.7h-2.5v-5.2
			c0-1.6,0-2.9,0-3.9l-0.1,0L10,30.5l-1.7,5.2H6.2l-1.7-5.2l-1.2-3.8l-0.1,0c0,0.9,0,2.2,0,3.9v5.2L0.7,35.7L0.7,35.7z"/>
		<path class="st0" d="M15.8,31.7c0.6-0.4,1.4-0.7,2.6-0.6c1.1,0,1.8-0.1,2.2-0.3c0.4-0.2,0.6-0.5,0.6-0.9c0-0.3-0.1-0.6-0.4-0.9
			s-0.8-0.4-1.4-0.4c-0.6,0-1.1,0.2-1.5,0.5c-0.4,0.3-0.6,0.8-0.6,1.4H15c0-0.7,0.2-1.3,0.6-1.9c0.3-0.6,0.8-1,1.5-1.3
			c0.7-0.3,1.5-0.5,2.4-0.5c1.4,0,2.4,0.3,3.1,0.9c0.7,0.6,1,1.4,1,2.4v5.5h-2.3L21.3,33h-0.1c-0.1,1-0.5,1.7-1.1,2.2
			c-0.6,0.5-1.4,0.8-2.3,0.8c-0.9,0-1.6-0.2-2.1-0.6s-0.8-1-0.8-1.8C14.9,32.8,15.2,32.2,15.8,31.7z M17.7,34.1
			c0.2,0.2,0.6,0.3,1,0.3c0.5,0,0.9-0.1,1.3-0.3s0.7-0.5,1-0.9c0.2-0.4,0.4-0.8,0.4-1.2v-1.3h-0.1c-0.1,0.4-0.2,0.7-0.3,0.9
			s-0.5,0.4-0.8,0.5c-0.4,0.1-0.9,0.2-1.6,0.2c-0.4,0-0.6,0.1-0.8,0.3c-0.2,0.2-0.3,0.4-0.3,0.7C17.4,33.7,17.5,34,17.7,34.1z"/>
		<path class="st0" d="M31.7,24h2.4v11.7h-2.3l-0.1-2.4h-0.1c-0.2,0.9-0.6,1.5-1.2,2c-0.6,0.5-1.2,0.7-2,0.7c-0.7,0-1.3-0.2-1.9-0.6
			c-0.6-0.4-1-0.9-1.3-1.6s-0.5-1.5-0.5-2.4c0-0.9,0.2-1.7,0.5-2.4s0.8-1.2,1.3-1.6c0.6-0.4,1.2-0.6,1.9-0.6c0.7,0,1.4,0.2,2,0.7
			c0.6,0.5,1,1.1,1.2,2h0.1L31.7,24L31.7,24z M31.1,33.7c0.4-0.5,0.6-1,0.6-1.7v-1c0-0.7-0.2-1.3-0.6-1.7c-0.4-0.5-1-0.7-1.6-0.7
			c-0.7,0-1.2,0.3-1.7,0.8s-0.6,1.2-0.6,2.2c0,0.9,0.2,1.6,0.6,2.1s1,0.8,1.7,0.8C30.1,34.3,30.7,34.1,31.1,33.7z"/>
		<path class="st0" d="M35.7,35.7V24H38v3.9c0,1,0,2,0,3l0.1,0c0.3-0.4,0.5-0.8,0.8-1c0.3-0.3,0.6-0.6,1-1.1l0.2-0.2l1.6-1.5h2.8
			l-1.7,1.7c-0.7,0.7-1.4,1.3-2,1.8v0.1l0.3,0c0.6,0,1,0.2,1.4,0.5c0.4,0.3,0.6,0.7,0.9,1.3l1.2,3.2H42l-0.7-2
			c-0.2-0.5-0.4-0.8-0.6-1s-0.6-0.3-1-0.3h-0.6l-1.1,1v2.3H35.7z"/>
		<path class="st0" d="M45.3,35.7V24h2.4v11.7H45.3z"/>
		<path class="st0" d="M55.7,27.1h2.4v8.6h-2.3l-0.1-2.6h-0.1c-0.1,0.6-0.3,1.1-0.6,1.5c-0.3,0.4-0.7,0.8-1.1,1
			C53.4,35.9,53,36,52.4,36c-0.6,0-1.1-0.1-1.6-0.4s-0.9-0.6-1.2-1.1c-0.3-0.5-0.4-1.1-0.4-1.8v-5.6h2.4v4.8c0,0.7,0.2,1.2,0.5,1.6
			c0.3,0.4,0.8,0.5,1.5,0.5s1.1-0.2,1.5-0.7c0.4-0.4,0.6-1.1,0.6-1.8L55.7,27.1L55.7,27.1z"/>
		<path class="st0" d="M67.2,27.4c0.6,0.4,1,0.9,1.3,1.6s0.5,1.5,0.5,2.4c0,0.9-0.2,1.7-0.5,2.4s-0.7,1.2-1.3,1.6S66.1,36,65.3,36
			c-0.7,0-1.4-0.2-2-0.7s-1-1.1-1.2-2h-0.1L62,35.7h-2.3V24h2.4v5.5h0.1c0.2-0.9,0.7-1.6,1.2-2s1.2-0.7,1.9-0.7
			C66.1,26.8,66.7,27,67.2,27.4z M66,33.5c0.4-0.5,0.6-1.2,0.6-2.1s-0.2-1.6-0.6-2.1c-0.4-0.5-1-0.8-1.7-0.8c-0.7,0-1.2,0.2-1.6,0.7
			c-0.4,0.5-0.6,1-0.6,1.7v1c0,0.7,0.2,1.3,0.6,1.7c0.4,0.5,1,0.7,1.6,0.7C65,34.3,65.6,34,66,33.5z"/>
		<path class="st0" d="M77.8,27.4c0.6,0.4,1,0.9,1.3,1.6s0.5,1.5,0.5,2.4c0,0.9-0.2,1.7-0.5,2.4s-0.7,1.2-1.3,1.6S76.6,36,75.9,36
			c-0.7,0-1.4-0.2-1.9-0.7s-1-1.1-1.2-2h-0.1l-0.1,2.4h-2.3V24h2.4v5.5h0.1c0.2-0.9,0.7-1.6,1.2-2s1.2-0.7,1.9-0.7
			C76.6,26.8,77.2,27,77.8,27.4z M76.5,33.5c0.4-0.5,0.6-1.2,0.6-2.1s-0.2-1.6-0.6-2.1c-0.4-0.5-1-0.8-1.7-0.8
			c-0.7,0-1.2,0.2-1.6,0.7c-0.4,0.5-0.6,1-0.6,1.7v1c0,0.7,0.2,1.3,0.6,1.7c0.4,0.5,1,0.7,1.6,0.7C75.6,34.3,76.1,34,76.5,33.5z"/>
		<path class="st0" d="M89.2,31.9h-6.6c0,0.7,0.2,1.3,0.7,1.7c0.4,0.4,1,0.6,1.7,0.6c0.5,0,1-0.1,1.4-0.4s0.6-0.6,0.7-1.1h2.1
			c-0.1,0.7-0.3,1.3-0.8,1.8s-0.9,0.9-1.5,1.1C86.3,35.8,85.6,36,85,36c-1.4,0-2.6-0.4-3.4-1.2s-1.2-1.9-1.2-3.4
			c0-0.9,0.2-1.7,0.6-2.4c0.4-0.7,0.9-1.2,1.6-1.6c0.7-0.4,1.4-0.6,2.3-0.6c0.9,0,1.7,0.2,2.3,0.6s1.2,0.9,1.5,1.6s0.5,1.4,0.5,2.2
			L89.2,31.9L89.2,31.9z M83.3,29.1c-0.4,0.3-0.6,0.8-0.7,1.5h4.2c0-0.6-0.3-1.1-0.6-1.5s-0.9-0.5-1.5-0.5
			C84.2,28.6,83.7,28.8,83.3,29.1z"/>
		<path class="st0" d="M97.7,27.2c0.5,0.3,0.9,0.6,1.2,1.1s0.4,1.1,0.4,1.8v5.6h-2.4v-4.8c0-0.7-0.2-1.2-0.5-1.6
			c-0.3-0.4-0.8-0.6-1.4-0.6c-0.7,0-1.2,0.2-1.5,0.7s-0.6,1-0.6,1.8v4.5h-2.4v-8.6h2.3l0.1,2.6H93c0.1-0.9,0.5-1.6,1.1-2.1
			c0.6-0.5,1.3-0.8,2.1-0.8C96.7,26.8,97.3,27,97.7,27.2z"/>
	</g>
</g>
</svg>
