<?xml version="1.0" encoding="UTF-8"?>
<svg version="1.1" xmlns="http://www.w3.org/2000/svg" width="1217" height="1227">
<path d="M0 0 C1.92115299 1.01667218 3.85316582 2.00981599 5.78808594 3 C23.73511741 12.26210781 40.12355236 24.24857237 54.88964844 38 C56.23971008 39.17141454 57.59372358 40.3382942 58.95214844 41.5 C67.12877454 48.65865257 74.14283476 56.49701406 80.88964844 65 C81.75168969 66.04919712 82.61501008 67.09734435 83.47949219 68.14453125 C111.02856961 101.86384383 126.631183 142.39911645 133.88964844 185 C134.02387207 185.78036621 134.1580957 186.56073242 134.29638672 187.36474609 C138.39350948 212.70236742 137.26529241 240.83244298 132.88964844 266 C132.72867676 266.9384375 132.56770508 267.876875 132.40185547 268.84375 C124.52229073 312.92692486 104.26910805 355.97521194 73.25683594 388.515625 C71.27042781 390.60037017 69.41545304 392.72421785 67.57714844 394.9375 C24.86578993 443.80817971 -42.67983005 469.00825943 -105.92285156 473.625 C-175.90324286 477.39106802 -246.4340724 456.8402785 -299.11035156 409.5625 C-299.93664062 408.80710937 -300.76292969 408.05171875 -301.61425781 407.2734375 C-303.25197848 405.78180459 -304.90530579 404.30709219 -306.57519531 402.8515625 C-345.57777437 368.71660389 -370.58187434 318.37536022 -380.11035156 268 C-380.2740625 267.1853125 -380.43777344 266.370625 -380.60644531 265.53125 C-385.98579242 237.78982361 -385.88514003 204.65928093 -380.11035156 177 C-379.90635742 176.00774414 -379.70236328 175.01548828 -379.4921875 173.99316406 C-374.83869726 151.98560977 -367.92516978 131.23315084 -358.11035156 111 C-357.79517578 110.34370605 -357.48 109.68741211 -357.15527344 109.01123047 C-345.68796124 85.43884518 -329.1183045 64.8616633 -311.11035156 46 C-310.47742188 45.32582031 -309.84449219 44.65164062 -309.19238281 43.95703125 C-305.09411086 39.7030055 -300.58791802 36.01221709 -295.98535156 32.31640625 C-294.13435496 30.82504622 -292.29944307 29.31338254 -290.48535156 27.77734375 C-251.81050385 -4.85455901 -201.89067744 -22.45387873 -152.11035156 -28 C-150.95277344 -28.13277344 -149.79519531 -28.26554687 -148.60253906 -28.40234375 C-98.16092155 -33.01667718 -44.85644626 -23.8118201 0 0 Z M-216.79785156 129.8125 C-217.92516328 131.18970841 -219.02687387 132.58804717 -220.11035156 134 C-221.2434375 135.4540625 -221.2434375 135.4540625 -222.39941406 136.9375 C-245.78905493 167.80705348 -254.44046447 206.15207551 -249.39160156 244.3984375 C-244.88530964 272.58912861 -232.83648562 297.39636888 -213.11035156 318 C-212.08554688 319.11955078 -212.08554688 319.11955078 -211.04003906 320.26171875 C-190.3803053 342.1030978 -159.5460263 354.14107637 -129.77832031 355.203125 C-94.53655118 355.82586798 -62.00229989 344.08741507 -36.37939453 319.6652832 C-11.11088401 294.92963746 2.6609709 260.97344575 3.13134766 225.64160156 C3.23674237 187.33992245 -9.42050406 152.84413773 -36.11035156 125 C-60.24887289 100.96263947 -93.47432764 89.73782384 -127.04418945 89.7512207 C-160.86369173 90.12221832 -193.9086446 104.72550034 -216.79785156 129.8125 Z " fill="#FFFFFF" transform="translate(401.1103515625,34)"/>
<path d="M0 0 C0.98917419 0.00215515 1.97834839 0.0043103 2.99749756 0.00653076 C18.16838015 0.05947842 32.98463163 0.52210671 47.9375 3.3125 C49.52208008 3.60253906 49.52208008 3.60253906 51.13867188 3.8984375 C111.86148717 15.38366351 170.11080144 47.58372992 207.9375 97.3125 C208.55455811 98.10696533 208.55455811 98.10696533 209.18408203 98.91748047 C233.80511838 130.69801907 249.87936225 167.78975466 256.9375 207.3125 C257.09976074 208.15973633 257.26202148 209.00697266 257.42919922 209.87988281 C262.53381333 237.22038566 261.99218798 268.01917492 256.9375 295.3125 C256.77121094 296.24545898 256.60492187 297.17841797 256.43359375 298.13964844 C246.00473859 355.17003601 214.0138902 409.72612371 167.9375 445.3125 C166.50277344 446.47265625 166.50277344 446.47265625 165.0390625 447.65625 C118.6253183 484.60018745 60.16862749 502.52075154 1.3125 502.5625 C0.02326126 502.56351212 0.02326126 502.56351212 -1.29202271 502.56454468 C-16.05045948 502.54623502 -30.48436509 501.76756134 -45.0625 499.3125 C-46.05137207 499.14621094 -47.04024414 498.97992187 -48.05908203 498.80859375 C-85.79682531 492.1911619 -122.89974607 477.81280586 -154.0625 455.3125 C-154.70203613 454.85939453 -155.34157227 454.40628906 -156.00048828 453.93945312 C-165.75756499 447.0051037 -174.66288081 439.44630601 -183.23339844 431.09472656 C-185.05427762 429.32051167 -186.89003929 427.56268486 -188.7265625 425.8046875 C-196.61603207 418.17130026 -203.53527179 410.1292407 -210.0625 401.3125 C-210.47951172 400.76158691 -210.89652344 400.21067383 -211.32617188 399.64306641 C-234.43595612 369.09741164 -249.46601206 332.95011888 -256.0625 295.3125 C-256.22476074 294.42755859 -256.38702148 293.54261719 -256.55419922 292.63085938 C-261.41057078 265.14650269 -261.09078612 234.73588368 -256.0625 207.3125 C-255.90152832 206.39404297 -255.74055664 205.47558594 -255.57470703 204.52929688 C-247.38478218 158.99300003 -226.39812783 118.85240209 -196.0625 84.3125 C-195.19496094 83.32121094 -194.32742188 82.32992187 -193.43359375 81.30859375 C-189.21321933 76.57275375 -184.94945758 72.1066107 -180.0859375 68.03125 C-178.68324128 66.83977058 -177.31499577 65.60699039 -175.9765625 64.34375 C-162.89734231 52.02339241 -147.57814943 42.25981133 -132.0625 33.3125 C-131.38960937 32.9211084 -130.71671875 32.5297168 -130.0234375 32.12646484 C-90.72490125 9.52017451 -44.9965519 -0.1769841 0 0 Z M-83.0625 150.3125 C-83.57522461 150.7760791 -84.08794922 151.2396582 -84.61621094 151.71728516 C-93.60257532 159.95073793 -100.68060247 168.94543359 -107.0625 179.3125 C-107.43745605 179.91787598 -107.81241211 180.52325195 -108.19873047 181.14697266 C-126.81637882 211.85050047 -130.81922921 251.27903274 -122.46044922 285.79882812 C-119.41568467 297.75893695 -115.05637129 308.54282785 -109.0625 319.3125 C-108.53527344 320.26769531 -108.00804687 321.22289062 -107.46484375 322.20703125 C-89.96590108 352.58519572 -61.30387897 371.72112078 -28.0703125 380.86035156 C1.57607025 388.46858142 35.80871667 383.46178013 62.375 368.4375 C92.58521876 350.15698435 113.9751806 322.63220842 122.9375 288.3125 C131.88616464 251.70200878 127.77876586 211.81271022 108.43774414 179.16040039 C103.34740602 170.87331799 97.47988271 163.49122389 90.9375 156.3125 C90.29554688 155.58804688 89.65359375 154.86359375 88.9921875 154.1171875 C67.56054398 131.20110114 35.67361662 119.69302037 4.91577148 118.38476562 C-27.24722632 117.52421719 -59.15047844 128.61455451 -83.0625 150.3125 Z " fill="#FFFFFF" transform="translate(943.0625,707.6875)"/>
<path d="M0 0 C0.69951694 -0.00235223 1.39903387 -0.00470446 2.11974829 -0.00712797 C4.47532883 -0.01381112 6.83085411 -0.01335996 9.18644333 -0.01294994 C10.88773741 -0.01624898 12.58903072 -0.01997463 14.29032302 -0.02409142 C18.97469188 -0.03411477 23.65904792 -0.03782875 28.34342599 -0.04048073 C33.39195949 -0.04438272 38.44048284 -0.05396104 43.48900986 -0.0626936 C55.68474043 -0.08245957 67.88047184 -0.09252376 80.07621443 -0.10142139 C85.81726042 -0.10580351 91.55830548 -0.11117046 97.29935074 -0.11641026 C116.37948159 -0.13342162 135.45961187 -0.14791677 154.53974915 -0.155159 C159.49154028 -0.15706893 164.44333141 -0.15898926 169.39512253 -0.16094494 C170.62588594 -0.16142868 171.85664935 -0.16191242 173.12470862 -0.16241082 C193.07154587 -0.17071484 213.01832322 -0.19605845 232.96513429 -0.22852562 C253.43660542 -0.26157561 273.90804607 -0.27960584 294.37954402 -0.28280324 C305.87662899 -0.28497009 317.37362658 -0.29374457 328.87068558 -0.31926441 C338.65993505 -0.34094315 348.44907591 -0.3490357 358.23834667 -0.33929763 C363.23375777 -0.33474493 368.22894465 -0.33669557 373.22432518 -0.35605907 C377.79772432 -0.37363396 382.37073472 -0.37273926 386.94413766 -0.35716178 C388.59825918 -0.35477709 390.25240721 -0.35915378 391.90648809 -0.37099043 C409.29086623 -0.48768412 409.29086623 -0.48768412 415.61660028 5.61693496 C420.25312487 10.84483971 420.23648749 15.41497339 420.25718307 22.08441639 C420.26375427 23.00019962 420.27032547 23.91598286 420.27709579 24.8595171 C420.29682536 27.89379425 420.30849084 30.92802191 420.31846237 33.96234608 C420.3225379 34.99895123 420.32661343 36.03555637 420.33081245 37.1035738 C420.35167203 42.59051279 420.36597408 48.07742679 420.37534714 53.56439686 C420.3864095 59.22822598 420.42080798 64.89166201 420.46051884 70.55535221 C420.48667963 74.91344394 420.49503853 79.27144195 420.49862862 83.62960529 C420.50349617 85.71716179 420.51511493 87.80471406 420.53366661 89.89219379 C420.55804553 92.8172608 420.55709512 95.74130988 420.55015182 98.66644764 C420.56936691 99.95410778 420.56936691 99.95410778 420.58897018 101.26778126 C420.53909845 107.0467906 419.39191352 110.37200649 416.08018112 115.13422108 C411.20783714 119.75670127 406.79266867 121.38660307 400.12600327 121.37473011 C398.93273422 121.37747944 397.73946518 121.38022877 396.51003647 121.38306141 C395.20955872 121.37587086 393.90908096 121.36868031 392.56919479 121.36127186 C391.17931247 121.36070742 389.78942955 121.36102494 388.39954758 121.36215687 C384.63338241 121.36273012 380.86734493 121.35098032 377.1012094 121.33700895 C373.16275415 121.32449697 369.22429589 121.32333072 365.28582382 121.32095814 C357.83090102 121.31474475 350.37603696 121.29833583 342.92114002 121.27825916 C334.43268114 121.25589578 325.94421944 121.24490562 317.45573843 121.23486829 C299.99718536 121.21396948 282.53868946 121.17879623 265.08018112 121.13422108 C265.0817 121.86542479 265.08321888 122.59662849 265.08478379 123.34998989 C265.17428377 166.68095406 265.24292112 210.01190817 265.28444244 253.34294623 C265.2894453 258.54501847 265.29462259 263.74709052 265.29990768 268.94916248 C265.30095693 269.98480733 265.30200617 271.02045217 265.3030872 272.08748019 C265.32049544 288.85950766 265.35203545 305.63148033 265.38879231 322.40347528 C265.42619005 339.61133933 265.44841451 356.81917466 265.4565351 374.02707767 C265.46202529 384.64645509 265.47936956 395.26567759 265.51184699 405.88500732 C265.53298045 413.16573132 265.5393838 420.44637516 265.53418663 427.72712761 C265.53162304 431.92862781 265.5355704 436.12985719 265.55700302 440.33130932 C265.57649025 444.17951784 265.57743729 448.02727381 265.5637767 451.8755033 C265.56208874 453.26595511 265.56714483 454.65643534 265.57971385 456.04683137 C265.64612235 463.84804576 265.38726793 469.5080909 261.08018112 476.13422108 C254.98536206 482.07276273 249.20011946 482.43254983 241.09263229 482.42474842 C239.5892556 482.43482426 239.5892556 482.43482426 238.05550766 482.44510365 C234.74467119 482.46408961 231.43403739 482.46800825 228.12314987 482.47015858 C225.81775454 482.47658635 223.51236002 482.4833147 221.2069664 482.4903307 C216.37423944 482.50230516 211.54158398 482.50601137 206.70884323 482.50482655 C200.52501252 482.50462341 194.34164167 482.53191933 188.15791988 482.56637096 C183.39573702 482.58864081 178.63366477 482.59266404 173.87143517 482.59160709 C171.59213108 482.59396315 169.31282395 482.6027869 167.03357124 482.61827183 C163.84069398 482.63793166 160.64880776 482.63209302 157.45591354 482.62006092 C156.52005417 482.63129993 155.58419479 482.64253895 154.61997604 482.65411854 C147.38581827 482.58506508 141.8957424 480.94978236 136.70518112 475.75922108 C133.74249294 470.97334016 132.83004298 466.57500041 132.83408546 460.99232388 C132.83010337 459.77512272 132.82612127 458.55792156 132.8220185 457.30383551 C132.8277238 455.96162154 132.83361497 454.61940836 132.83967209 453.27719593 C132.83879963 451.8448359 132.83704792 450.41247618 132.83449376 448.98011816 C132.83002406 445.04868875 132.83801871 441.11736842 132.84804988 437.1859529 C132.85668751 432.94471 132.853764 428.70347323 132.85224533 424.46222401 C132.85119668 417.11548499 132.85747123 409.76878151 132.86872101 402.42205143 C132.88497571 391.79992029 132.89018399 381.17780633 132.89269699 370.55566411 C132.89707414 353.32191164 132.91038379 336.08817811 132.92930222 318.85443592 C132.9476605 302.11355147 132.96181726 285.37267216 132.97031784 268.63177967 C132.97084329 267.59985554 132.97136873 266.56793141 132.9719101 265.50473686 C132.97452018 260.32787204 132.9770476 255.15100719 132.97953391 249.97414231 C133.00026703 207.02748879 133.03549311 164.08085591 133.08018112 121.13422108 C132.36511115 121.13698646 131.65004118 121.13975183 130.91330242 121.14260101 C113.50277917 121.20889462 96.09228804 121.25851808 78.68166637 121.28965759 C70.26196824 121.30511723 61.84235443 121.32618945 53.42271042 121.36053944 C46.08294447 121.39046949 38.74323959 121.40980265 31.40341431 121.41648656 C27.51810618 121.42039272 23.63297277 121.42955381 19.74772072 121.45141125 C16.08779465 121.47183347 12.42811462 121.47804337 8.76813698 121.47354412 C6.7906276 121.47475784 4.81314478 121.49086991 2.8357048 121.50748158 C-5.92248433 121.47706849 -12.4612094 120.59283056 -18.91981888 114.13422108 C-21.83986561 108.5931521 -22.35743554 104.13184336 -22.32387161 97.92938709 C-22.33073486 97.03413319 -22.33759811 96.13887928 -22.34466934 95.21649647 C-22.36288718 92.27354287 -22.35910701 89.33112491 -22.35341263 86.38812733 C-22.3579768 84.33221229 -22.36328307 82.27629877 -22.36929703 80.22038746 C-22.37821827 75.91743225 -22.37581614 71.61466273 -22.3658638 67.31171131 C-22.35437493 61.80945542 -22.37458969 56.30784138 -22.40378094 50.80566978 C-22.42216519 46.56160407 -22.42184602 42.31769155 -22.41614342 38.073596 C-22.41599048 36.04549668 -22.42201203 34.0173868 -22.43443489 31.98932552 C-22.4493852 29.14862899 -22.43863816 26.30911037 -22.42152786 23.46844959 C-22.43119583 22.63859043 -22.4408638 21.80873127 -22.45082474 20.95372486 C-22.36983007 14.50160595 -20.7084507 9.01458421 -16.13856888 4.29437733 C-15.28778763 3.75103748 -15.28778763 3.75103748 -14.41981888 3.19672108 C-13.85263138 2.81644764 -13.28544388 2.4361742 -12.70106888 2.04437733 C-8.56889165 -0.06702025 -4.58618042 0.00656878 0 0 Z " fill="#FFFFFF" transform="translate(58.91981887817383,727.8657789230347)"/>
<path d="M0 0 C0.71033116 -0.00551417 1.42066232 -0.01102833 2.15251866 -0.0167096 C4.52714322 -0.0302796 6.90071643 -0.01542201 9.27532101 -0.00063419 C10.99713266 -0.00452797 12.7189411 -0.01016902 14.44074196 -0.01740509 C19.1679136 -0.03216662 23.89475237 -0.02197434 28.62191331 -0.00766838 C33.72149223 0.00343344 38.82102414 -0.00849854 43.92059994 -0.01751041 C53.90870563 -0.03144995 63.89668497 -0.02388154 73.88478465 -0.00883483 C85.51284528 0.00801641 97.14087436 0.00481615 108.76894342 0.00107109 C129.51368415 -0.00480873 150.25836421 0.00936925 171.00308895 0.03401852 C191.13983084 0.05794273 211.27649165 0.06502172 231.4132452 0.05452633 C253.33430966 0.04312144 275.25533661 0.04118152 297.1764006 0.05562443 C299.51306402 0.05715029 301.84972745 0.05867064 304.18639088 0.06018543 C305.33611567 0.06094325 306.48584047 0.06170106 307.67040541 0.06248184 C315.77889533 0.06722774 323.88736852 0.06537108 331.99585819 0.06112003 C341.87439309 0.05619744 351.75285127 0.06215968 361.63136858 0.08201433 C366.67308581 0.09189737 371.71468615 0.09698049 376.75640965 0.08912182 C381.3696377 0.08207807 385.98262963 0.08883901 390.5958265 0.10672545 C392.26663713 0.1107784 393.93746919 0.10975591 395.6082719 0.10320658 C397.87639954 0.09507523 400.14372789 0.10534496 402.4118042 0.12025452 C403.67247839 0.12128365 404.93315258 0.12231278 406.23202902 0.12337309 C411.57789411 0.71454241 414.70451889 2.51945121 418.39298153 6.37557125 C422.50973041 12.09327803 422.94098109 16.54624086 422.93350887 23.38655758 C422.9402261 24.27176586 422.94694332 25.15697414 422.9538641 26.06900692 C422.97283411 28.99026284 422.97676791 31.91128885 422.97891903 34.8326025 C422.98534802 36.86895498 422.99207646 38.90530652 422.99909115 40.94165707 C423.01106169 45.20944516 423.01477223 49.47715232 423.013587 53.74495602 C423.01338391 59.20240215 423.04067667 64.65932695 423.07513142 70.11664963 C423.09741605 74.32295756 423.10142404 78.52914038 423.10036755 82.73550129 C423.1027215 84.74686319 423.11153341 86.75822864 423.12703228 88.7695322 C423.14672216 91.5888552 423.14084225 94.40705866 423.12882137 97.22640133 C423.14006039 98.05005184 423.1512994 98.87370235 423.16287899 99.72231197 C423.09511509 106.00576657 421.57191364 111.40892781 417.1602602 116.06566238 C412.78092151 119.87014675 409.54242867 120.62581348 403.89134884 120.62082577 C402.69241497 120.62220043 401.4934811 120.6235751 400.2582159 120.62499142 C398.94119686 120.62139614 397.62417782 120.61780087 396.26724911 120.61409664 C394.86780963 120.6138146 393.46837001 120.61397284 392.06893063 120.61453915 C388.26756369 120.61482646 384.46622821 120.60894041 380.66486859 120.60196519 C376.69303086 120.59572065 372.72119243 120.59512698 368.74935055 120.59393978 C361.22709204 120.59082972 353.70484803 120.58262069 346.18259591 120.57259029 C337.6192088 120.56141908 329.055821 120.55591616 320.49242842 120.55089486 C302.8759379 120.54043782 285.25946088 120.52284465 267.64298153 120.50057125 C267.64469027 121.59045932 267.64469027 121.59045932 267.64643353 122.70236534 C267.71356788 165.76618702 267.76504128 208.83000301 267.79617752 251.89386654 C267.79992964 257.06460739 267.8038126 262.23534813 267.80777645 267.40608883 C267.80856338 268.43549013 267.80935031 269.46489143 267.81016109 270.52548672 C267.82321497 287.19336158 267.84686873 303.8612054 267.87443992 320.52906185 C267.90249458 337.63184105 267.91915792 354.734604 267.92524701 371.83740526 C267.92936332 382.39072514 267.9423644 392.94395728 267.96673093 403.49725015 C267.98258885 410.73405546 267.98738175 417.9708154 267.98348566 425.20763683 C267.98156421 429.38288636 267.98450965 433.55798257 268.00059795 437.73320484 C268.01523037 441.5585813 268.01591233 445.38370177 268.00567821 449.20909018 C268.00381676 451.24244736 268.01672547 453.27580166 268.03022546 455.30911487 C267.95489931 470.6903948 267.95489931 470.6903948 263.01548451 476.37291569 C256.6585934 482.50512229 249.28946823 482.79867067 240.88736629 482.77522945 C239.93359097 482.78034039 238.97981564 482.78545132 237.99713802 482.79071712 C234.85948992 482.80456222 231.72206271 482.80366027 228.58438778 482.8013525 C226.39395218 482.805242 224.20351734 482.8095772 222.01308346 482.81433773 C217.4276958 482.82178886 212.84238516 482.82151651 208.2569952 482.81624508 C202.39165378 482.81044969 196.52662805 482.82738873 190.66133881 482.85058975 C186.13935674 482.86534667 181.61745038 482.86619615 177.09544849 482.86308002 C174.9333798 482.86359217 172.77130676 482.86880987 170.60926151 482.87889194 C167.58196472 482.89127786 164.55527887 482.88445168 161.52799129 482.8728857 C160.6420277 482.88052944 159.75606411 482.88817318 158.84325314 482.89604855 C152.3184342 482.84116417 146.50601181 481.93635687 141.36563778 477.56307125 C140.81778622 476.88244625 140.26993465 476.20182125 139.70548153 475.50057125 C139.13958309 474.81994625 138.57368465 474.13932125 137.99063778 473.43807125 C135.52914256 469.89922595 135.51842928 466.88036436 135.5199337 462.69658279 C135.51794265 461.47838799 135.5159516 460.26019318 135.51390022 459.00508338 C135.51675344 457.6461827 135.51969904 456.28728222 135.52272701 454.92838192 C135.52229118 453.49036203 135.52141604 452.05234222 135.52013785 450.61432284 C135.5178953 446.65334311 135.52191092 442.69239027 135.52691591 438.73141396 C135.53122364 434.46353315 135.52977375 430.19565394 135.52901363 425.92777157 C135.5284886 418.53024402 135.53163322 411.13272527 135.53725147 403.73519993 C135.5453693 393.03954414 135.54798198 382.34389262 135.54923946 371.64823409 C135.55142954 354.29635774 135.55808841 336.94448607 135.56754208 319.59261227 C135.57671735 302.73421407 135.58379762 285.87581714 135.58804989 269.01741695 C135.58831261 267.97873066 135.58857534 266.94004437 135.58884602 265.86988274 C135.59015103 260.65923785 135.59141475 255.44859296 135.59265792 250.23794806 C135.60302914 206.99215254 135.62064625 163.74636214 135.64298153 120.50057125 C134.91337215 120.50518022 134.18376278 120.50978918 133.43204403 120.51453781 C115.66237152 120.62505732 97.89276779 120.70774735 80.12282467 120.75963211 C71.52932024 120.78539147 62.93604553 120.82049838 54.34268856 120.87776852 C46.8509248 120.92767324 39.35932744 120.95987876 31.86740208 120.97101372 C27.90200477 120.97752061 23.93708341 120.99276554 19.97183895 121.02922153 C16.23546611 121.06329328 12.49976285 121.07360205 8.7632494 121.06610966 C6.74651557 121.06812971 4.7298538 121.09496622 2.71330929 121.12267208 C-4.51454908 121.08175747 -9.90231331 120.55744549 -15.35701847 115.50057125 C-19.60550863 110.3897953 -19.93958789 105.49332807 -19.89046574 99.02034664 C-19.89908131 98.09583202 -19.90769688 97.17131741 -19.91657352 96.21878719 C-19.93918081 93.17831163 -19.93250399 90.13876173 -19.92342472 87.0982275 C-19.92866273 84.9750507 -19.93493987 82.85187623 -19.94220829 80.72870541 C-19.95260295 76.28446641 -19.94806446 71.84054779 -19.93343449 67.3963232 C-19.91625125 61.71233217 -19.93974181 56.02935246 -19.97492409 50.34547424 C-19.99692701 45.9624126 -19.99544949 41.57959184 -19.98715878 37.1964922 C-19.98634079 35.10140467 -19.99317481 33.00629919 -20.0079298 30.91126347 C-20.02542823 27.97694759 -20.01078868 25.04443508 -19.98812199 22.11019039 C-19.99981419 21.25227901 -20.01150639 20.39436764 -20.02355289 19.51045895 C-19.93042259 13.55905105 -18.59141073 8.84987372 -14.35701847 4.50057125 C-9.33182524 1.18001071 -6.15095281 0.00052364 0 0 Z " fill="#FFFFFF" transform="translate(761.3570184707642,25.499428749084473)"/>
</svg>
