<?xml version="1.0" encoding="UTF-8"?>
<svg version="1.1" xmlns="http://www.w3.org/2000/svg" width="2165" height="651">
<path d="M0 0 C27.23461738 -0.09361402 54.4692105 -0.16406274 81.7039566 -0.20724869 C94.35070691 -0.22783736 106.997357 -0.25588716 119.64404297 -0.30175781 C130.67223954 -0.34173885 141.7003635 -0.36745964 152.72863054 -0.37635398 C158.56317165 -0.38154966 164.39750509 -0.39368402 170.23197937 -0.42292023 C175.73458701 -0.45026752 181.23690337 -0.45840625 186.73957253 -0.45243073 C188.74856466 -0.45352238 190.75756754 -0.46136021 192.76650047 -0.4768219 C222.68097694 -0.69557449 247.60538738 9.96480005 268.90625 30.80859375 C288.30540863 50.50116803 299.85014282 78.79668798 303 106 C303.16435547 107.27037109 303.16435547 107.27037109 303.33203125 108.56640625 C308.34499608 153.41573159 292.24814904 197.94581561 264.51611328 232.86865234 C253.42674467 246.57588706 241.10485143 258.44790878 227 269 C225.59600443 270.05267493 224.19211694 271.10549403 222.78833008 272.15844727 C222.07638992 272.69244644 221.36444977 273.22644562 220.63093567 273.77662659 C219.82362251 274.38219643 219.82362251 274.38219643 219 275 C221.85002868 283.87633184 224.70469307 292.75116967 227.5625 301.625 C227.78153488 302.30515041 228.00056976 302.98530083 228.22624207 303.68606186 C236.52702972 329.45693192 244.94383744 355.1887961 253.42232609 380.90171432 C257.87195166 394.39638197 262.31501931 407.89299401 266.671875 421.41796875 C267.18237396 422.99328117 267.18237396 422.99328117 267.70318604 424.60041809 C268.00835144 425.55236557 268.31351685 426.50431305 268.62792969 427.48510742 C268.89466492 428.31394943 269.16140015 429.14279144 269.43621826 429.99674988 C270 432 270 432 270 434 C224.79 434 179.58 434 133 434 C111.10900652 366.02270447 111.10900652 366.02270447 104.125 343.8125 C103.38688165 341.47065178 102.64859861 339.12885545 101.91015625 336.78710938 C98.25694458 325.19650379 94.62485981 313.5995514 91 302 C79.78 301.67 68.56 301.34 57 301 C56.67 303.97 56.34 306.94 56 310 C55.66583474 311.92101429 55.30227775 313.83732706 54.89941406 315.74511719 C54.68071655 316.79098495 54.46201904 317.83685272 54.23669434 318.91441345 C53.87976501 320.58873192 53.87976501 320.58873192 53.515625 322.296875 C53.26349243 323.49627213 53.01135986 324.69566925 52.75158691 325.93141174 C52.06474205 329.1939379 51.37406914 332.45560488 50.68138123 335.71689224 C49.95582253 339.13646389 49.23459439 342.55694922 48.51269531 345.97729492 C47.30189207 351.71061266 46.08754229 357.44317054 44.87109375 363.17529297 C43.46370357 369.80740127 42.06215691 376.44072451 40.66363907 383.07470894 C39.31677652 389.4629341 37.96567528 395.85025569 36.6126709 402.23718262 C36.03710752 404.95457562 35.46307272 407.67228493 34.89025879 410.39025879 C34.09264055 414.17385901 33.2888463 417.95613188 32.484375 421.73828125 C32.24642212 422.87068741 32.00846924 424.00309357 31.76330566 425.16981506 C31.54460815 426.19312424 31.32591064 427.21643341 31.10058594 428.27075195 C30.91107361 429.16518509 30.72156128 430.05961823 30.52630615 430.9811554 C30 433 30 433 29 434 C27.44379604 434.09588124 25.88323546 434.12188033 24.32408142 434.12025452 C23.31300827 434.12162918 22.30193512 434.12300385 21.26022339 434.12442017 C19.58248337 434.11902725 19.58248337 434.11902725 17.87084961 434.11352539 C16.70027512 434.11367142 15.52970062 434.11381744 14.32365417 434.1139679 C11.10479057 434.11338895 7.88596996 434.10835991 4.66711497 434.10139394 C1.306526 434.09515957 -2.05406373 434.09455654 -5.41465759 434.09336853 C-11.78242342 434.09025546 -18.15017216 434.0820424 -24.51793045 434.07201904 C-31.76569729 434.06085715 -39.01346493 434.05534726 -46.26123822 434.05032361 C-61.17416835 434.03985977 -76.08708247 434.0222608 -91 434 C-91.23298518 428.20061991 -90.36459494 423.03143459 -89.13696289 417.37402344 C-88.83495924 415.94113417 -88.83495924 415.94113417 -88.52685452 414.47929764 C-87.84887495 411.2711842 -87.16074067 408.0653351 -86.47265625 404.859375 C-85.98030841 402.54008665 -85.48858597 400.22066547 -84.99743652 397.90112305 C-83.92824553 392.85874886 -82.85463863 387.81733589 -81.77713013 382.7767334 C-80.18115124 375.31060544 -78.59332707 367.84276009 -77.00720298 360.37453318 C-74.34254274 347.82919951 -71.6712294 335.28529123 -68.99609375 322.7421875 C-66.31586948 310.17514642 -63.63851284 297.60749991 -60.96484375 285.0390625 C-60.79713301 284.25069476 -60.62942228 283.46232702 -60.4566294 282.65006936 C-59.60521849 278.64772415 -58.75385821 274.64536818 -57.90252113 270.64300728 C-56.17971941 262.54375631 -54.45653699 254.44458635 -52.7331543 246.34545898 C-52.56152059 245.53885735 -52.38988688 244.73225572 -52.21305215 243.90121162 C-49.60329276 231.63694956 -46.99141118 219.37314057 -44.37817383 207.10961914 C-44.20569063 206.3001718 -44.03320744 205.49072446 -43.85549748 204.65674841 C-43.15963386 201.39113955 -42.46376011 198.12553285 -41.76788121 194.85992724 C-41.24759474 192.41833758 -40.72731171 189.97674719 -40.20703125 187.53515625 C-40.03580883 186.73163892 -39.86458642 185.92812159 -39.68817544 185.10025525 C-34.79634891 162.14329054 -29.91238218 139.18467168 -25.03811455 116.22397232 C-24.08499575 111.73422882 -23.13163648 107.2445364 -22.17823792 102.75485229 C-21.56014089 99.84405714 -20.94205533 96.93325955 -20.32397461 94.02246094 C-20.17329045 93.31283494 -20.02260629 92.60320895 -19.86735594 91.87207913 C-18.11232343 83.60679152 -16.35827464 75.34129649 -14.60584074 67.07545751 C-13.39906171 61.38375635 -12.19068713 55.69239481 -10.98177528 50.00114632 C-10.49554643 47.71073372 -10.0098594 45.42020602 -9.52480125 43.12954521 C-8.85882219 39.98473164 -8.19084613 36.84034786 -7.52246094 33.69604492 C-7.33972909 32.83072018 -7.15699724 31.96539543 -6.96872807 31.07384872 C-4.75697123 20.69136748 -2.36411113 10.34860967 0 0 Z M99 105 C96.96451317 114.51947764 94.93010394 124.03918478 92.89701366 133.55917454 C91.95260899 137.98121026 91.00785407 142.40317051 90.06225586 146.82495117 C89.14715647 151.10418057 88.23303304 155.38361744 87.31954384 159.66319084 C86.97348017 161.28365208 86.62708387 162.90404233 86.28032494 164.52435493 C84.10971787 174.6683413 82.00608081 184.82207711 80 195 C88.84088626 195.13949056 97.68138933 195.24586727 106.523139 195.31087303 C110.62951171 195.34208503 114.73512737 195.38436844 118.84106445 195.45263672 C122.8092999 195.51819681 126.7768108 195.55378211 130.74554634 195.56926346 C132.25378375 195.58028478 133.76198491 195.60180686 135.26991081 195.63438034 C144.36254488 195.82284668 151.02045059 195.34794156 158 189 C158.84691406 188.27039063 159.69382812 187.54078125 160.56640625 186.7890625 C169.48839483 177.11629993 175.48567871 164.92485822 178 152 C178.18175781 151.07832031 178.36351562 150.15664062 178.55078125 149.20703125 C180.36309022 136.26872116 179.85507523 122.74762601 172.33203125 111.65625 C169.98171622 108.73386415 167.33700101 106.66850051 164 105 C161.93707015 104.90839663 159.87111115 104.8824882 157.80615234 104.88647461 C156.50495453 104.88655014 155.20375671 104.88662567 153.86312866 104.88670349 C152.43739789 104.89181053 151.0116675 104.89702653 149.5859375 104.90234375 C148.13148039 104.90420853 146.67702266 104.90563215 145.2225647 104.90663147 C141.39207224 104.91045195 137.56161763 104.92027824 133.73114014 104.93133545 C129.82336947 104.94155965 125.91559269 104.94613126 122.0078125 104.95117188 C114.3385244 104.96190092 106.6692675 104.97897172 99 105 Z " fill="#FFFFFF" transform="translate(91,0)"/>
<path d="M0 0 C1.23750708 0.00138269 1.23750708 0.00138269 2.50001431 0.00279331 C3.44377422 0.00141865 4.38753414 0.00004398 5.35989285 -0.00137234 C6.40358028 0.00222294 7.44726772 0.00581821 8.52258205 0.00952244 C9.61512798 0.00937641 10.70767391 0.00923038 11.83332729 0.00907993 C15.46405899 0.00977961 19.09474012 0.01757454 22.72546291 0.02539158 C25.2351011 0.02725557 27.74473964 0.02867956 30.25437832 0.0296793 C36.1971526 0.03311435 42.1399105 0.0410051 48.08267635 0.05102879 C55.50982591 0.0632853 62.93697771 0.06866991 70.36413479 0.0742197 C83.61870196 0.08495972 96.87325172 0.10239333 110.12780666 0.12304783 C113.31745242 26.61694533 116.40037004 53.12025955 119.34348333 79.64264572 C119.86641671 84.3517904 120.39126871 89.06072139 120.91583157 93.76968479 C121.93456873 102.91758879 122.9515666 112.06568526 123.96783064 121.2138643 C124.79338546 128.6451781 125.61951113 136.07642823 126.44601917 143.50763607 C129.05166422 166.9356675 131.65543266 190.36390671 134.25770392 213.79231312 C136.3081236 232.2516971 138.36146503 250.71075476 140.41611675 269.16966812 C142.53373659 288.19454989 144.649328 307.21965624 146.76274127 326.24500579 C147.946297 336.89925068 149.13067249 347.55340293 150.31720829 358.2073164 C151.32378843 367.24558078 152.32847429 376.2840532 153.33067367 385.32280443 C153.84171472 389.93135279 154.35364717 394.53979758 154.86795521 399.1479826 C155.33826944 403.36218957 155.80606531 407.57666808 156.27182766 411.79138049 C156.44097366 413.31790139 156.61105236 414.84431928 156.78214309 416.37062345 C157.01403267 418.44054657 157.24255523 420.51081464 157.47022629 422.58120537 C157.59813972 423.73215386 157.72605315 424.88310235 157.85784274 426.06892806 C158.12780666 429.12304783 158.12780666 429.12304783 158.12780666 434.12304783 C117.53780666 434.12304783 76.94780666 434.12304783 35.12780666 434.12304783 C32.77072107 396.40967832 32.77072107 396.40967832 32.12243557 383.33325291 C31.99916624 380.86258326 31.8701605 378.39224857 31.74108791 375.92187595 C31.65871829 374.28712734 31.57667368 372.65236232 31.49499416 371.01757908 C31.45752071 370.31011036 31.42004726 369.60264164 31.38143826 368.87373447 C31.06299563 362.26936806 31.12780666 355.76387585 31.12780666 349.12304783 C-2.53219334 349.12304783 -36.19219334 349.12304783 -70.87219334 349.12304783 C-71.53219334 351.10304783 -72.19219334 353.08304783 -72.87219334 355.12304783 C-73.99410104 357.6356915 -75.13960228 360.11979817 -76.32922459 362.59961033 C-76.66863575 363.31457172 -77.00804691 364.02953312 -77.35774326 364.76616001 C-78.08580313 366.29903887 -78.81537553 367.83120009 -79.54632664 369.36270237 C-81.47831957 373.41102052 -83.39911496 377.4646505 -85.32141209 381.51757908 C-85.70805027 382.33197956 -86.09468845 383.14638004 -86.49304295 383.98545933 C-91.03636883 393.56213748 -95.49056926 403.17939902 -99.94250584 412.79882908 C-103.23833867 419.91343356 -106.55637995 427.01773344 -109.87219334 434.12304783 C-150.79219334 434.12304783 -191.71219334 434.12304783 -233.87219334 434.12304783 C-232.99598716 430.6182231 -232.00350726 428.19747201 -230.35266209 425.03711033 C-229.83155857 424.03607273 -229.31045506 423.03503513 -228.77356052 422.00366306 C-228.20798435 420.92931004 -227.64240818 419.85495701 -227.05969334 418.74804783 C-226.4722031 417.62535496 -225.88471287 416.50266209 -225.2794199 415.34594822 C-221.15754259 407.49588715 -216.94563253 399.69849236 -212.67566013 391.92822361 C-208.16275769 383.7010072 -203.76371556 375.41542143 -199.37219334 367.12304783 C-194.58987717 358.09449137 -189.78854973 349.07961217 -184.87219334 340.12304783 C-180.00170911 331.2476427 -175.23840687 322.31791164 -170.49719334 313.37304783 C-164.71532259 302.46515078 -158.90260509 291.57512433 -153.04065037 280.70996189 C-148.80319653 272.85546495 -144.5835741 264.991545 -140.37219334 257.12304783 C-135.5511317 248.11640981 -130.71871371 239.11601284 -125.87219334 230.12304783 C-118.5145608 216.46938847 -111.1918495 202.79708935 -103.87219334 189.12304783 C-95.97786653 174.37544903 -88.07449918 159.63287772 -80.13928318 144.90722752 C-73.36096393 132.32462759 -66.61718029 119.72353473 -59.87219334 107.12304783 C-51.97941257 92.37833723 -44.07855579 77.63812936 -36.14367771 62.91601658 C-32.17012432 55.54102998 -28.2112798 48.15826586 -24.25897312 40.77188206 C-19.02114133 30.98441428 -13.7723554 21.20294931 -8.49719334 11.43554783 C-7.94346043 10.40735935 -7.38972752 9.37917088 -6.81921482 8.31982517 C-6.31333836 7.38477146 -5.80746189 6.44971775 -5.28625584 5.48632908 C-4.84233494 4.66431004 -4.39841404 3.84229099 -3.94104099 2.99536228 C-2.31805212 0.1523514 -2.31805212 0.1523514 0 0 Z M23.12780666 142.12304783 C15.67748792 157.43843489 8.3090119 172.78335976 1.16613674 188.24511814 C-3.13771147 197.55793925 -7.49618376 206.84396345 -11.87219334 216.12304783 C-17.58744643 228.24375803 -23.26199789 240.38243481 -28.88781834 252.54492283 C-29.38539646 253.62000095 -29.88297459 254.69507908 -30.39563084 255.80273533 C-31.04410984 257.20628269 -31.04410984 257.20628269 -31.70568943 258.63818455 C-32.43932217 260.20095434 -33.20861507 261.74795298 -34.02697849 263.26806736 C-35.07950981 265.23829799 -35.07950981 265.23829799 -34.87219334 268.12304783 C-13.75219334 268.12304783 7.36780666 268.12304783 29.12780666 268.12304783 C28.5124628 242.17311812 27.80310099 216.23172619 26.88049221 190.29101658 C26.75020238 186.61474409 26.62563999 182.93833744 26.50549221 179.2617197 C26.35690795 174.7154819 26.1993694 170.16964024 26.03516865 165.62394047 C25.97504691 163.91920998 25.91803225 162.21436676 25.86428928 160.50942326 C25.78964638 158.16245599 25.70346052 155.81618482 25.61437893 153.46972752 C25.585443 152.43542103 25.585443 152.43542103 25.55592251 151.38021946 C25.40799102 147.82688943 25.03891765 145.16010915 23.12780666 142.12304783 Z " fill="#FFFFFF" transform="translate(2006.8721933364868,-0.1230478286743164)"/>
<path d="M0 0 C1.60792574 0.00056958 1.60792574 0.00056958 3.24833483 0.00115067 C4.47996451 -0.00084038 5.7115942 -0.00283143 6.980546 -0.00488281 C8.36498245 -0.00202922 9.74941872 0.00091639 11.13385481 0.00394398 C12.59077258 0.00350841 14.04769028 0.00263376 15.50460756 0.00135481 C19.52711367 -0.00089288 23.54959342 0.00313486 27.57209617 0.00813287 C31.90272574 0.01243329 36.23335371 0.01099124 40.56398481 0.0102306 C48.07340882 0.0097051 55.58282417 0.01285457 63.092246 0.01846844 C73.94973922 0.02657998 84.80722824 0.0291983 95.66472416 0.03045643 C113.27837373 0.0326475 130.89201867 0.03930906 148.50566572 0.04875904 C165.62024882 0.05793175 182.73483066 0.06501327 199.84941572 0.06926686 C201.43063579 0.06966094 201.43063579 0.06966094 203.04379971 0.07006299 C208.33190622 0.07136798 213.62001274 0.0726317 218.90811926 0.07387489 C262.80953443 0.0842492 306.71094456 0.101869 350.61235517 0.1241985 C349.62530465 9.60138495 349.62530465 9.60138495 348.73955244 13.76163441 C348.48723356 14.96225262 348.48723356 14.96225262 348.22981733 16.18712574 C348.04796888 17.03059559 347.86612043 17.87406544 347.67876142 18.74309498 C347.48515028 19.65803227 347.29153913 20.57296955 347.09206098 21.51563221 C346.45728096 24.50978216 345.8162353 27.50254978 345.17485517 30.49529225 C344.7299718 32.58507654 344.28539644 34.67492642 343.84111494 36.76483876 C342.91246316 41.12862424 341.98083122 45.49175909 341.04692549 49.85442311 C339.84825698 55.454577 338.65595162 61.05606226 337.46570295 66.65801102 C336.54991944 70.96572532 335.63138046 75.27284824 334.71193403 79.57978207 C334.27103617 81.64616819 333.83086928 83.71271041 333.39143842 85.77940899 C332.77899556 88.65721698 332.16299029 91.53423874 331.54594892 94.41106373 C331.36410047 95.2687032 331.18225202 96.12634266 330.99489301 97.0099712 C329.7267518 102.89540524 329.7267518 102.89540524 328.61235517 105.1241985 C290.33235517 105.1241985 252.05235517 105.1241985 212.61235517 105.1241985 C212.28235517 107.7641985 211.95235517 110.4041985 211.61235517 113.1241985 C211.3018466 114.8464461 210.96818884 116.56479634 210.60406965 118.27651173 C210.40473388 119.22158148 210.20539812 120.16665123 210.00002187 121.14035946 C209.78258259 122.15451365 209.5651433 123.16866783 209.34111494 124.21355397 C208.99306712 125.85642793 208.99306712 125.85642793 208.63798803 127.53249127 C207.86309766 131.18614066 207.08343444 134.83875446 206.30376142 138.491386 C205.74830785 141.10544178 205.19311676 143.71955205 204.63824934 146.33373219 C203.29102851 152.67800178 201.94025452 159.0215098 200.58831239 165.36477476 C199.00809285 172.77990961 197.43172453 180.19586162 195.85548538 187.61184341 C192.26018913 204.52630202 188.65855263 221.43940787 185.05515212 238.35214156 C183.95776875 243.50276628 182.86057818 248.65343204 181.76353925 253.80413014 C176.67127771 277.71270571 171.57851391 301.62117382 166.47807783 325.52800709 C161.94140057 346.793888 157.40712174 368.06018633 152.91313642 389.335136 C152.5672699 390.97154356 152.22138416 392.60794707 151.87547773 394.2443462 C150.50077371 400.74897411 149.12699561 407.25378271 147.76061052 413.76016384 C147.12848929 416.76733309 146.49315621 419.77382418 145.85844892 422.7804485 C145.64005857 423.82582783 145.42166822 424.87120716 145.19665998 425.94826466 C144.99924711 426.88095173 144.80183424 427.8136388 144.59843916 428.77458912 C144.34633932 429.97468617 144.34633932 429.97468617 144.08914655 431.1990276 C143.61235517 433.1241985 143.61235517 433.1241985 142.61235517 435.1241985 C102.68235517 435.1241985 62.75235517 435.1241985 21.61235517 435.1241985 C22.7373445 424.99929453 22.7373445 424.99929453 23.49760908 421.45333058 C23.66998374 420.63879666 23.8423584 419.82426274 24.01995653 418.98504597 C24.20771371 418.11976025 24.39547088 417.25447453 24.58891767 416.36296803 C24.79034848 415.41740795 24.99177929 414.47184788 25.19931406 413.49763447 C25.8745126 410.33319071 26.55597248 407.17012845 27.23735517 404.007011 C27.72889124 401.70911302 28.22001387 399.41112658 28.7107591 397.11305958 C29.91620475 391.47267336 31.12559478 385.83314313 32.33656228 380.1939401 C33.91568297 372.83890835 35.48855834 365.4825432 37.06132978 358.12615162 C37.65973568 355.3275005 38.25817802 352.52885717 38.85663313 349.73021656 C39.00729827 349.0256159 39.15796341 348.32101523 39.31319416 347.59506303 C40.40864578 342.47244677 41.50497119 337.35001794 42.60159773 332.22765309 C47.5390876 309.16270098 52.45674782 286.09355808 57.36626142 263.022636 C57.73671804 261.28185356 58.10717473 259.54107114 58.47763151 257.80028874 C60.31908701 249.14705939 62.16025751 240.49376941 64.00127119 231.84044605 C66.13496974 221.81142382 68.26899199 211.78247051 70.4033708 201.75359303 C70.65848468 200.55487242 70.65848468 200.55487242 70.91875237 199.33193523 C73.64082859 186.54186621 76.36496332 173.75223652 79.09062093 160.96293026 C80.67984065 153.50539212 82.26646553 146.04730868 83.84993166 138.58854634 C84.70976271 134.54044155 85.5716715 130.49278151 86.43423742 126.44525868 C86.81578983 124.65252694 87.19639885 122.85959411 87.57598013 121.06644398 C88.07774567 118.69649048 88.58275279 116.3272522 89.08867353 113.95818287 C89.36223173 112.67053028 89.63578993 111.3828777 89.91763777 110.05620533 C90.61235517 107.1241985 90.61235517 107.1241985 91.61235517 105.1241985 C53.33235517 105.1241985 15.05235517 105.1241985 -24.38764483 105.1241985 C-23.70932 98.34095027 -22.88256848 91.98591548 -21.45405108 85.37590748 C-21.26043993 84.45921788 -21.06682879 83.54252827 -20.86735064 82.59806019 C-20.23358115 79.60431719 -19.59209334 76.61229114 -18.95014483 73.62029225 C-18.50520195 71.5295542 -18.06062761 69.43873769 -17.61640459 67.34784657 C-16.68841355 62.98569736 -15.75671669 58.62436178 -14.82221514 54.26360279 C-13.62212933 48.66255462 -12.43027161 43.05979395 -11.24099261 37.45644242 C-10.3259502 33.14861168 -9.40719191 28.84158039 -8.48722368 24.53479916 C-8.0460207 22.46765156 -7.60585452 20.4002824 -7.16672808 18.33269268 C-6.55526579 15.45696767 -5.93895615 12.5823256 -5.32123858 9.70793873 C-5.13939013 8.84827503 -4.95754168 7.98861134 -4.77018267 7.10289723 C-3.27095957 0.17014602 -3.27095957 0.17014602 0 0 Z " fill="#FFFFFF" transform="translate(1319.3876448273659,215.8758015036583)"/>
<path d="M0 0 C116.82 0 233.64 0 354 0 C348.24232489 29.93991059 348.24232489 29.93991059 345.046875 44.8046875 C344.69748099 46.43941803 344.34830433 48.07419502 343.99932861 49.70901489 C343.28174963 53.06807314 342.56251701 56.42677059 341.84179688 59.78515625 C340.91933165 64.08367854 339.99989435 68.38284153 339.08149338 72.68223381 C338.19591994 76.82742515 337.30898194 80.97232412 336.421875 85.1171875 C336.25494896 85.89760281 336.08802292 86.67801811 335.91603851 87.48208237 C335.44575543 89.67946069 334.97450739 91.87662967 334.50292969 94.07373047 C334.10252472 95.94132523 334.10252472 95.94132523 333.69403076 97.84664917 C333.1673208 100.2397726 332.59430944 102.62276223 332 105 C293.72 105 255.44 105 216 105 C213.525 117.375 213.525 117.375 211 130 C210.10135888 134.34243004 209.19869209 138.68242128 208.2746582 143.01928711 C208.04205355 144.11696506 207.80944889 145.214643 207.56979561 146.34558392 C206.81484919 149.90646746 206.05785061 153.46691101 205.30078125 157.02734375 C204.75102935 159.61800749 204.20138783 162.20869443 203.65187073 164.79940796 C202.33147571 171.0230951 201.00948002 177.24644114 199.68687898 183.46965981 C198.61008475 188.53647863 197.53398365 193.60344425 196.45831299 198.67050171 C186.23115945 246.84594494 175.97629512 295.01548572 165.7043457 343.18139648 C165.45026916 344.37282226 165.19619261 345.56424803 164.93441677 346.79177761 C163.70002968 352.57987074 162.46534319 358.36789972 161.23008728 364.1558075 C158.8375315 375.36838538 156.4511351 386.58222851 154.07519531 397.79833984 C153.37902039 401.08180941 152.68274455 404.36525757 151.98645401 407.64870262 C151.33587789 410.7194983 150.68717926 413.79068664 150.0385437 416.8618927 C149.64834607 418.70246288 149.25806199 420.54301473 148.86767578 422.38354492 C148.6039385 423.63686772 148.6039385 423.63686772 148.3348732 424.91551018 C147.6780489 428.00471488 146.99966488 431.00100535 146 434 C106.07 434 66.14 434 25 434 C26.12498729 422.7501271 26.12498729 422.7501271 27.0015564 418.67878723 C27.1994448 417.74661943 27.3973332 416.81445164 27.60121822 415.85403633 C27.81708867 414.86426733 28.03295912 413.87449833 28.25537109 412.85473633 C28.48581651 411.77687803 28.71626192 410.69901974 28.95369053 409.58849907 C29.72181984 406.00188973 30.49766316 402.41699408 31.2734375 398.83203125 C31.82639814 396.25692772 32.37890288 393.68173049 32.93080139 391.10639954 C34.11716789 385.57437805 35.30728655 380.04317518 36.49996948 374.51251221 C38.39377571 365.73010216 40.27980033 356.94603076 42.16430664 348.16162109 C42.64717836 345.91097841 43.1300603 343.66033792 43.61294383 341.40969777 C43.9374443 339.89724234 44.26193422 338.38478465 44.58641368 336.87232471 C45.57359178 332.27116568 46.56138575 327.67013936 47.54966837 323.06921744 C52.19277618 301.45335134 56.81341475 279.83280489 61.41015625 258.20703125 C61.6338451 257.15468288 61.6338451 257.15468288 61.86205292 256.08107495 C63.77334237 247.08884584 65.6832462 238.09632268 67.592659 229.10369492 C69.7394485 218.99326007 71.88746196 208.8830851 74.03530884 198.77287483 C74.54681652 196.3650691 75.05829165 193.95725646 75.56973267 191.54943657 C81.69844186 162.69648344 87.84945021 133.84830667 94 105 C56.05 105 18.1 105 -21 105 C-21 97.12497174 -21 97.12497174 -20.24745178 93.61653137 C-20.08061386 92.82175888 -19.91377594 92.02698639 -19.74188232 91.20812988 C-19.46371674 89.93685242 -19.46371674 89.93685242 -19.17993164 88.63989258 C-18.98646652 87.72845993 -18.7930014 86.81702728 -18.59367371 85.87797546 C-17.95595481 82.88199866 -17.30815471 79.88829997 -16.66015625 76.89453125 C-16.2135443 74.80674401 -15.76754399 72.71882586 -15.3221283 70.63078308 C-14.1501168 65.14503685 -12.96943889 59.66119043 -11.78704834 54.17767334 C-10.58489293 48.59424832 -9.39163494 43.00892278 -8.19726562 37.42382812 C-6.4522659 29.27227526 -4.70506179 21.12120117 -2.94946289 12.97192383 C-2.7660434 12.11833282 -2.5826239 11.26474182 -2.39364624 10.38528442 C-2.22398849 9.59897141 -2.05433075 8.81265839 -1.87953186 8.0025177 C-1.73296678 7.32210828 -1.58640169 6.64169886 -1.43539524 5.94067097 C-0.98942767 3.95287634 -0.4940954 1.97638162 0 0 Z " fill="#FFFFFF" transform="translate(883,0)"/>
<path d="M0 0 C39.93 0 79.86 0 121 0 C120.35228796 6.4771204 119.62669219 12.51428257 118.2512207 18.81176758 C118.07424023 19.64337497 117.89725975 20.47498236 117.71491623 21.33178997 C117.12364779 24.1038242 116.52468505 26.87413748 115.92578125 29.64453125 C115.49408999 31.66123077 115.06290715 33.67803917 114.63218689 35.69494629 C113.69551255 40.07616127 112.7554747 44.4566363 111.81286621 48.83657837 C110.27888009 55.96498252 108.75258442 63.09502025 107.22753906 70.2253418 C105.57814361 77.9355613 103.92835275 85.64569481 102.27609253 93.3553009 C98.08324678 112.92093293 93.90911039 132.49050037 89.74609375 152.0625 C89.59351962 152.77979255 89.4409455 153.4970851 89.28374791 154.23611379 C87.72610091 161.55918085 86.16879458 168.88232032 84.6117397 176.2055133 C82.5571195 185.86886308 80.50152874 195.53200613 78.44555664 205.19506836 C77.80904221 208.18673108 77.17253271 211.17839484 76.536026 214.1700592 C76.37836767 214.91107343 76.22070935 215.65208765 76.05827349 216.41555685 C66.75283961 260.15276736 57.45354489 303.89128436 48.1570015 347.6303854 C46.88272355 353.62556471 45.60809483 359.62066892 44.33258057 365.61558533 C42.14283408 375.90879814 39.95555826 386.20249997 37.78155899 396.49905205 C36.84299528 400.9433556 35.90250119 405.38724958 34.96181488 409.83110428 C34.52246091 411.90944187 34.08409322 413.98798824 33.64676666 416.06675339 C33.05177448 418.89479494 32.45351091 421.72212546 31.85449219 424.54931641 C31.67986198 425.38385471 31.50523178 426.21839302 31.32530975 427.07822037 C30.11389377 432.77221246 30.11389377 432.77221246 29 435 C-10.93 435 -50.86 435 -92 435 C-90.87501838 424.87516538 -90.87501838 424.87516538 -90.00517273 420.83268738 C-89.71051967 419.44739303 -89.71051967 419.44739303 -89.40991402 418.03411293 C-89.19560675 417.04856611 -88.98129948 416.06301929 -88.76049805 415.04760742 C-88.53158812 413.97758673 -88.30267818 412.90756603 -88.06683159 411.80512047 C-87.30259744 408.2376683 -86.53211141 404.67159562 -85.76171875 401.10546875 C-85.21238161 398.54639092 -84.66347795 395.98722001 -84.11497498 393.42796326 C-82.93323668 387.91659448 -81.74852269 382.40587258 -80.56182861 376.89556885 C-78.65918796 368.06017581 -76.76316397 359.22336969 -74.86865234 350.38623047 C-74.70847657 349.63910105 -74.5483008 348.89197163 -74.38327122 348.12220192 C-73.73075894 345.07854154 -73.07827244 342.03487564 -72.42586708 338.99119234 C-71.42991313 334.34478314 -70.43353865 329.69846436 -69.43686104 325.05221033 C-63.04766369 295.26597897 -56.71708892 265.46746739 -50.40446496 235.66492695 C-48.83628967 228.26157099 -47.26708263 220.8584338 -45.69775391 213.45532227 C-45.5553372 212.78348589 -45.4129205 212.11164951 -45.26618814 211.41945446 C-44.54270825 208.00653594 -43.81920766 204.59362181 -43.09568787 201.18071175 C-42.51374313 198.4356241 -41.9318252 195.69053077 -41.34992981 192.94543266 C-34.77072701 161.90829689 -28.18221682 130.87313962 -21.58432388 99.83997154 C-19.92058234 92.01451825 -18.25729781 84.18896872 -16.59552002 76.36309814 C-15.19166142 69.75187346 -13.78671513 63.14088108 -12.3803919 56.53018022 C-11.66367072 53.16095706 -10.94740775 49.79163848 -10.23251152 46.42202759 C-9.44886497 42.72977044 -8.66324885 39.03793718 -7.87719727 35.34619141 C-7.65857088 34.31388208 -7.4399445 33.28157276 -7.21469307 32.21798134 C-4.91811256 21.45177689 -2.44053016 10.73833271 0 0 Z " fill="#FFFFFF" transform="translate(604,216)"/>
</svg>
