<svg id="Layer_1" data-name="Layer 1" xmlns="http://www.w3.org/2000/svg" viewBox="0 0 120 17.67"><path d="M5.12,11v6.41H0V.26H12.4V4.35H5.12v2.8h5.61V11Z"/><path d="M23.54,17.42,21,10.88H19.37v6.54H14.1V.26h9c3.89,0,6.23,2,6.23,5.22,0,2.16-.82,3.37-3,4.48l3.09,7.46ZM21.61,7.2c1.41,0,2.21-.61,2.21-1.64s-.75-1.65-2-1.65H19.37V7.2Z"/><path d="M40.46,14.05h-4.6l-1,3.37H30.56L35.86.26h5.55l5.38,17.16H41.41Zm-.92-3.73-1.39-5-1.39,5Z"/><path d="M58.75,17.42,54.07,9.85C53.71,9.21,53.37,8.59,53,8c-.18-.34-.41-.85-.77-1.68a10.76,10.76,0,0,1,.41,2.81v8.31H48.38V.26h5l4,6.28a26.61,26.61,0,0,1,1.82,3.31,26.06,26.06,0,0,1-.41-4.5V.26h4.3V17.42Z"/><path d="M75.75,17.42l-3-6.49L71,13.46v4h-5V.26h5V7.33L75.75.26h4.74L76.17,6.54l5.37,10.88Z"/><path d="M88.23,17.42H83V.26h5.27Z"/><path d="M104.28,17.42H91.39V.26h12.89v4H96.56v2.5h6.26v3.8H96.56v2.81h7.72Z"/><path d="M109.5,11.58c.54,1.49,1.39,2.06,3.19,2.06,1.26,0,2-.39,2-1.09s-.54-1.08-2.08-1.36a17.1,17.1,0,0,1-4.69-1.47,4.44,4.44,0,0,1-2.39-4.09c0-3.39,2.78-5.63,7.05-5.63,3.52,0,5.89,1.41,7,4.22l-4.38,1.31a2.57,2.57,0,0,0-2.75-1.72c-1,0-1.7.41-1.7,1.08s.44.92,1.91,1.23c3.19.67,3.86.88,5,1.47A4.81,4.81,0,0,1,120,11.86c0,3.5-3.06,5.81-7.69,5.81a8.26,8.26,0,0,1-5.94-2.08,6.09,6.09,0,0,1-1.75-3.14Z"/></svg>